# crossbow.obj exported from Blockbench free model
mtllib crossbow.mtl
o crossbow
v 0.465625 0.515625 0.136875
v 0.465625 0.515625 0.568125
v 0.465625 0.562500 0.568125
v 0.465625 0.562500 0.136875
v 0.534375 0.515625 0.568125
v 0.534375 0.515625 0.136875
v 0.534375 0.562500 0.136875
v 0.534375 0.562500 0.568125
v 0.465625 0.577500 0.568125
v 0.465625 0.577500 0.136875
v 0.483125 0.562500 0.568125
v 0.483125 0.562500 0.136875
v 0.483125 0.577500 0.136875
v 0.483125 0.577500 0.568125
v 0.516875 0.562500 0.136875
v 0.516875 0.562500 0.568125
v 0.516875 0.577500 0.568125
v 0.516875 0.577500 0.136875
v 0.534375 0.577500 0.136875
v 0.534375 0.577500 0.568125
v 0.483125 0.566875 0.568125
v 0.483125 0.566875 0.136875
v 0.516875 0.566875 0.136875
v 0.516875 0.566875 0.568125
v 0.460625 0.525000 0.327500
v 0.460625 0.525000 0.411875
v 0.460625 0.551250 0.411875
v 0.460625 0.551250 0.327500
v 0.465625 0.525000 0.411875
v 0.465625 0.525000 0.327500
v 0.465625 0.551250 0.327500
v 0.465625 0.551250 0.411875
v 0.460625 0.525000 0.202500
v 0.460625 0.525000 0.286875
v 0.460625 0.551250 0.286875
v 0.460625 0.551250 0.202500
v 0.465625 0.525000 0.286875
v 0.465625 0.525000 0.202500
v 0.465625 0.551250 0.202500
v 0.465625 0.551250 0.286875
v 0.534375 0.525000 0.327500
v 0.534375 0.525000 0.411875
v 0.534375 0.551250 0.411875
v 0.534375 0.551250 0.327500
v 0.539375 0.525000 0.411875
v 0.539375 0.525000 0.327500
v 0.539375 0.551250 0.327500
v 0.539375 0.551250 0.411875
v 0.534375 0.525000 0.202500
v 0.534375 0.525000 0.286875
v 0.534375 0.551250 0.286875
v 0.534375 0.551250 0.202500
v 0.539375 0.525000 0.286875
v 0.539375 0.525000 0.202500
v 0.539375 0.551250 0.202500
v 0.539375 0.551250 0.286875
v 0.475000 0.503750 0.177500
v 0.475000 0.503750 0.308750
v 0.475000 0.515625 0.308750
v 0.475000 0.515625 0.177500
v 0.525000 0.503750 0.308750
v 0.525000 0.503750 0.177500
v 0.525000 0.515625 0.177500
v 0.525000 0.515625 0.308750
v 0.477500 0.498125 0.286875
v 0.477500 0.498125 0.300625
v 0.477500 0.503750 0.300625
v 0.477500 0.503750 0.286875
v 0.522500 0.498125 0.300625
v 0.522500 0.498125 0.286875
v 0.522500 0.503750 0.286875
v 0.522500 0.503750 0.300625
v 0.477500 0.498125 0.264375
v 0.477500 0.498125 0.278125
v 0.477500 0.503750 0.278125
v 0.477500 0.503750 0.264375
v 0.522500 0.498125 0.278125
v 0.522500 0.498125 0.264375
v 0.522500 0.503750 0.264375
v 0.522500 0.503750 0.278125
v 0.477500 0.498125 0.241875
v 0.477500 0.498125 0.255625
v 0.477500 0.503750 0.255625
v 0.477500 0.503750 0.241875
v 0.522500 0.498125 0.255625
v 0.522500 0.498125 0.241875
v 0.522500 0.503750 0.241875
v 0.522500 0.503750 0.255625
v 0.477500 0.498125 0.219375
v 0.477500 0.498125 0.233125
v 0.477500 0.503750 0.233125
v 0.477500 0.503750 0.219375
v 0.522500 0.498125 0.233125
v 0.522500 0.498125 0.219375
v 0.522500 0.503750 0.219375
v 0.522500 0.503750 0.233125
v 0.477500 0.498125 0.196875
v 0.477500 0.498125 0.210625
v 0.477500 0.503750 0.210625
v 0.477500 0.503750 0.196875
v 0.522500 0.498125 0.210625
v 0.522500 0.498125 0.196875
v 0.522500 0.503750 0.196875
v 0.522500 0.503750 0.210625
v 0.477500 0.498125 0.174375
v 0.477500 0.498125 0.188125
v 0.477500 0.503750 0.188125
v 0.477500 0.503750 0.174375
v 0.522500 0.498125 0.188125
v 0.522500 0.498125 0.174375
v 0.522500 0.503750 0.174375
v 0.522500 0.503750 0.188125
v 0.536250 0.571250 0.101875
v 0.463750 0.571250 0.101875
v 0.455000 0.506250 0.096875
v 0.545000 0.506250 0.096875
v 0.455000 0.506250 0.136875
v 0.463750 0.571250 0.136875
v 0.545000 0.506250 0.136875
v 0.536250 0.571250 0.136875
v 0.458750 0.511250 0.566875
v 0.458750 0.511250 0.590625
v 0.458750 0.567500 0.590625
v 0.458750 0.567500 0.566875
v 0.541250 0.511250 0.590625
v 0.541250 0.511250 0.566875
v 0.541250 0.567500 0.566875
v 0.541250 0.567500 0.590625
v 0.553750 0.572500 0.105625
v 0.446250 0.572500 0.105625
v 0.432500 0.498750 0.095625
v 0.567500 0.498750 0.095625
v 0.432500 0.498750 0.141875
v 0.446250 0.572500 0.130625
v 0.567500 0.498750 0.141875
v 0.553750 0.572500 0.130625
v 0.433750 0.566250 0.081875
v 0.386250 0.566250 0.081875
v 0.382500 0.496250 0.075625
v 0.437500 0.496250 0.075625
v 0.386250 0.566250 0.116875
v 0.382500 0.496250 0.123125
v 0.437500 0.496250 0.123125
v 0.433750 0.566250 0.116875
v 0.621250 0.566250 0.081875
v 0.558750 0.566250 0.081875
v 0.562500 0.496250 0.075625
v 0.617500 0.496250 0.075625
v 0.562500 0.496250 0.123125
v 0.558750 0.566250 0.116875
v 0.617500 0.496250 0.123125
v 0.621250 0.566250 0.116875
v 0.446250 0.516250 0.084375
v 0.446250 0.516250 0.099375
v 0.446250 0.557500 0.099375
v 0.446250 0.557500 0.084375
v 0.553750 0.516250 0.099375
v 0.553750 0.516250 0.084375
v 0.553750 0.557500 0.084375
v 0.553750 0.557500 0.099375
v 0.446250 0.470000 0.075625
v 0.446250 0.470000 0.093125
v 0.446250 0.520000 0.093125
v 0.446250 0.520000 0.075625
v 0.455000 0.470000 0.093125
v 0.455000 0.470000 0.075625
v 0.455000 0.520000 0.075625
v 0.455000 0.520000 0.093125
v 0.545000 0.470000 0.075625
v 0.545000 0.470000 0.093125
v 0.545000 0.520000 0.093125
v 0.545000 0.520000 0.075625
v 0.553750 0.470000 0.093125
v 0.553750 0.470000 0.075625
v 0.553750 0.520000 0.075625
v 0.553750 0.520000 0.093125
v 0.446250 0.470000 0.056875
v 0.446250 0.485000 0.093125
v 0.446250 0.485000 0.056875
v 0.553750 0.470000 0.056875
v 0.553750 0.485000 0.056875
v 0.553750 0.485000 0.093125
v 0.527500 0.560000 0.108125
v 0.472500 0.560000 0.108125
v 0.467500 0.540000 0.104375
v 0.532500 0.540000 0.104375
v 0.472500 0.560000 0.118125
v 0.467500 0.540000 0.121875
v 0.532500 0.540000 0.121875
v 0.527500 0.560000 0.118125
v 0.414227 0.552495 0.112454
v 0.373528 0.552495 0.093256
v 0.343412 0.554374 0.161561
v 0.381688 0.554374 0.176939
v 0.373273 0.535005 0.093796
v 0.343312 0.538126 0.161811
v 0.413972 0.535005 0.112994
v 0.381588 0.538126 0.177189
v 0.319181 0.553743 0.239115
v 0.355672 0.553743 0.247757
v 0.319328 0.538757 0.238493
v 0.355819 0.538757 0.247135
v 0.312129 0.546851 0.314850
v 0.345534 0.546851 0.310037
v 0.311966 0.533149 0.313713
v 0.345371 0.533149 0.308900
v 0.344881 0.539360 0.396354
v 0.372915 0.539360 0.385674
v 0.344585 0.528140 0.395576
v 0.372619 0.528140 0.384896
v 0.370000 0.548750 0.375625
v 0.370000 0.547745 0.371875
v 0.321250 0.547745 0.371875
v 0.321250 0.548750 0.375625
v 0.370000 0.545000 0.369130
v 0.321250 0.545000 0.369130
v 0.370000 0.541250 0.368125
v 0.321250 0.541250 0.368125
v 0.370000 0.537500 0.369130
v 0.321250 0.537500 0.369130
v 0.370000 0.534755 0.371875
v 0.321250 0.534755 0.371875
v 0.370000 0.533750 0.375625
v 0.321250 0.533750 0.375625
v 0.370000 0.534755 0.379375
v 0.321250 0.534755 0.379375
v 0.370000 0.537500 0.382120
v 0.321250 0.537500 0.382120
v 0.370000 0.541250 0.383125
v 0.321250 0.541250 0.383125
v 0.370000 0.545000 0.382120
v 0.321250 0.545000 0.382120
v 0.370000 0.547745 0.379375
v 0.321250 0.547745 0.379375
v 0.361250 0.591250 0.375625
v 0.361250 0.587444 0.356491
v 0.328750 0.587444 0.356491
v 0.328750 0.591250 0.375625
v 0.361250 0.576605 0.340270
v 0.328750 0.576605 0.340270
v 0.361250 0.560384 0.329431
v 0.328750 0.560384 0.329431
v 0.361250 0.541250 0.325625
v 0.328750 0.541250 0.325625
v 0.361250 0.522116 0.329431
v 0.328750 0.522116 0.329431
v 0.361250 0.505895 0.340270
v 0.328750 0.505895 0.340270
v 0.361250 0.495056 0.356491
v 0.328750 0.495056 0.356491
v 0.361250 0.491250 0.375625
v 0.328750 0.491250 0.375625
v 0.361250 0.495056 0.394759
v 0.328750 0.495056 0.394759
v 0.361250 0.505895 0.410980
v 0.328750 0.505895 0.410980
v 0.361250 0.522116 0.421819
v 0.328750 0.522116 0.421819
v 0.361250 0.541250 0.425625
v 0.328750 0.541250 0.425625
v 0.361250 0.560384 0.421819
v 0.328750 0.560384 0.421819
v 0.361250 0.576605 0.410980
v 0.328750 0.576605 0.410980
v 0.361250 0.587444 0.394759
v 0.328750 0.587444 0.394759
v 0.355000 0.576250 0.375625
v 0.355000 0.571561 0.358125
v 0.335000 0.571561 0.358125
v 0.335000 0.576250 0.375625
v 0.355000 0.558750 0.345314
v 0.335000 0.558750 0.345314
v 0.355000 0.541250 0.340625
v 0.335000 0.541250 0.340625
v 0.355000 0.523750 0.345314
v 0.335000 0.523750 0.345314
v 0.355000 0.510939 0.358125
v 0.335000 0.510939 0.358125
v 0.355000 0.506250 0.375625
v 0.335000 0.506250 0.375625
v 0.355000 0.510939 0.393125
v 0.335000 0.510939 0.393125
v 0.355000 0.523750 0.405936
v 0.335000 0.523750 0.405936
v 0.355000 0.541250 0.410625
v 0.335000 0.541250 0.410625
v 0.355000 0.558750 0.405936
v 0.335000 0.558750 0.405936
v 0.355000 0.571561 0.393125
v 0.335000 0.571561 0.393125
v 0.626472 0.552495 0.093256
v 0.585773 0.552495 0.112454
v 0.618312 0.554374 0.176939
v 0.656588 0.554374 0.161561
v 0.586028 0.535005 0.112994
v 0.618412 0.538126 0.177189
v 0.626727 0.535005 0.093796
v 0.656688 0.538126 0.161811
v 0.644328 0.553743 0.247757
v 0.680819 0.553743 0.239115
v 0.644181 0.538757 0.247135
v 0.680672 0.538757 0.238493
v 0.654466 0.546851 0.310037
v 0.687871 0.546851 0.314850
v 0.654629 0.533149 0.308900
v 0.688034 0.533149 0.313713
v 0.627085 0.539360 0.385674
v 0.655119 0.539360 0.396354
v 0.627381 0.528140 0.384896
v 0.655415 0.528140 0.395576
v 0.678750 0.548750 0.375625
v 0.678750 0.547745 0.371875
v 0.630000 0.547745 0.371875
v 0.630000 0.548750 0.375625
v 0.678750 0.545000 0.369130
v 0.630000 0.545000 0.369130
v 0.678750 0.541250 0.368125
v 0.630000 0.541250 0.368125
v 0.678750 0.537500 0.369130
v 0.630000 0.537500 0.369130
v 0.678750 0.534755 0.371875
v 0.630000 0.534755 0.371875
v 0.678750 0.533750 0.375625
v 0.630000 0.533750 0.375625
v 0.678750 0.534755 0.379375
v 0.630000 0.534755 0.379375
v 0.678750 0.537500 0.382120
v 0.630000 0.537500 0.382120
v 0.678750 0.541250 0.383125
v 0.630000 0.541250 0.383125
v 0.678750 0.545000 0.382120
v 0.630000 0.545000 0.382120
v 0.678750 0.547745 0.379375
v 0.630000 0.547745 0.379375
v 0.671250 0.591250 0.375625
v 0.671250 0.587444 0.356491
v 0.638750 0.587444 0.356491
v 0.638750 0.591250 0.375625
v 0.671250 0.576605 0.340270
v 0.638750 0.576605 0.340270
v 0.671250 0.560384 0.329431
v 0.638750 0.560384 0.329431
v 0.671250 0.541250 0.325625
v 0.638750 0.541250 0.325625
v 0.671250 0.522116 0.329431
v 0.638750 0.522116 0.329431
v 0.671250 0.505895 0.340270
v 0.638750 0.505895 0.340270
v 0.671250 0.495056 0.356491
v 0.638750 0.495056 0.356491
v 0.671250 0.491250 0.375625
v 0.638750 0.491250 0.375625
v 0.671250 0.495056 0.394759
v 0.638750 0.495056 0.394759
v 0.671250 0.505895 0.410980
v 0.638750 0.505895 0.410980
v 0.671250 0.522116 0.421819
v 0.638750 0.522116 0.421819
v 0.671250 0.541250 0.425625
v 0.638750 0.541250 0.425625
v 0.671250 0.560384 0.421819
v 0.638750 0.560384 0.421819
v 0.671250 0.576605 0.410980
v 0.638750 0.576605 0.410980
v 0.671250 0.587444 0.394759
v 0.638750 0.587444 0.394759
v 0.665000 0.576250 0.375625
v 0.665000 0.571561 0.358125
v 0.645000 0.571561 0.358125
v 0.645000 0.576250 0.375625
v 0.665000 0.558750 0.345314
v 0.645000 0.558750 0.345314
v 0.665000 0.541250 0.340625
v 0.645000 0.541250 0.340625
v 0.665000 0.523750 0.345314
v 0.645000 0.523750 0.345314
v 0.665000 0.510939 0.358125
v 0.645000 0.510939 0.358125
v 0.665000 0.506250 0.375625
v 0.645000 0.506250 0.375625
v 0.665000 0.510939 0.393125
v 0.645000 0.510939 0.393125
v 0.665000 0.523750 0.405936
v 0.645000 0.523750 0.405936
v 0.665000 0.541250 0.410625
v 0.645000 0.541250 0.410625
v 0.665000 0.558750 0.405936
v 0.645000 0.558750 0.405936
v 0.665000 0.571561 0.393125
v 0.645000 0.571561 0.393125
v 0.362527 0.603114 0.373395
v 0.355321 0.603114 0.378360
v 0.496571 0.585614 0.583360
v 0.503777 0.585614 0.578395
v 0.354973 0.594386 0.377855
v 0.496223 0.576886 0.582855
v 0.362179 0.594386 0.372890
v 0.503429 0.576886 0.577890
v 0.644679 0.603114 0.378360
v 0.637473 0.603114 0.373395
v 0.496223 0.585614 0.578395
v 0.503429 0.585614 0.583360
v 0.637821 0.594386 0.372890
v 0.496571 0.576886 0.577890
v 0.645027 0.594386 0.377855
v 0.503777 0.576886 0.582855
v 0.345668 0.539682 0.355069
v 0.354129 0.539682 0.359107
v 0.471629 0.553432 0.112857
v 0.463168 0.553432 0.108819
v 0.354332 0.530318 0.358681
v 0.471832 0.544068 0.112431
v 0.345871 0.530318 0.354643
v 0.463371 0.544068 0.108393
v 0.645871 0.539682 0.359107
v 0.654332 0.539682 0.355069
v 0.536832 0.553432 0.108819
v 0.528371 0.553432 0.112857
v 0.654129 0.530318 0.354643
v 0.536629 0.544068 0.108393
v 0.645668 0.530318 0.358681
v 0.528168 0.544068 0.112431
v 0.550000 0.476250 0.560625
v 0.450000 0.476250 0.560625
v 0.456250 0.567500 0.566875
v 0.543750 0.567500 0.566875
v 0.450000 0.476250 0.635625
v 0.456250 0.567500 0.630625
v 0.543750 0.567500 0.630625
v 0.550000 0.476250 0.635625
v 0.536250 0.480000 0.630625
v 0.463750 0.480000 0.630625
v 0.465000 0.562500 0.634375
v 0.535000 0.562500 0.634375
v 0.463750 0.480000 0.713125
v 0.465000 0.562500 0.709375
v 0.535000 0.562500 0.709375
v 0.536250 0.480000 0.713125
v 0.445625 0.500000 0.576875
v 0.445625 0.500000 0.621875
v 0.445625 0.542500 0.621875
v 0.445625 0.542500 0.576875
v 0.450000 0.500000 0.621875
v 0.450000 0.500000 0.576875
v 0.450000 0.542500 0.576875
v 0.450000 0.542500 0.621875
v 0.550000 0.500000 0.576875
v 0.550000 0.500000 0.621875
v 0.550000 0.542500 0.621875
v 0.550000 0.542500 0.576875
v 0.554375 0.500000 0.621875
v 0.554375 0.500000 0.576875
v 0.554375 0.542500 0.576875
v 0.554375 0.542500 0.621875
v 0.481250 0.565000 0.565625
v 0.481250 0.565000 0.594375
v 0.481250 0.581250 0.594375
v 0.481250 0.581250 0.565625
v 0.518750 0.565000 0.594375
v 0.518750 0.565000 0.565625
v 0.518750 0.581250 0.565625
v 0.518750 0.581250 0.594375
v 0.486250 0.581250 0.571875
v 0.486250 0.581250 0.585625
v 0.486250 0.586250 0.585625
v 0.486250 0.586250 0.571875
v 0.513750 0.581250 0.585625
v 0.513750 0.581250 0.571875
v 0.513750 0.586250 0.571875
v 0.513750 0.586250 0.585625
v 0.437500 0.507500 0.598125
v 0.437500 0.507500 0.615625
v 0.437500 0.522500 0.615625
v 0.437500 0.522500 0.598125
v 0.446250 0.507500 0.615625
v 0.446250 0.507500 0.598125
v 0.446250 0.522500 0.598125
v 0.446250 0.522500 0.615625
v 0.553750 0.507500 0.598125
v 0.553750 0.507500 0.615625
v 0.553750 0.522500 0.615625
v 0.553750 0.522500 0.598125
v 0.562500 0.507500 0.615625
v 0.562500 0.507500 0.598125
v 0.562500 0.522500 0.598125
v 0.562500 0.522500 0.615625
v 0.473750 0.457500 0.565625
v 0.473750 0.457500 0.578125
v 0.473750 0.482500 0.578125
v 0.473750 0.482500 0.565625
v 0.526250 0.457500 0.578125
v 0.526250 0.457500 0.565625
v 0.526250 0.482500 0.565625
v 0.526250 0.482500 0.578125
v 0.473750 0.442500 0.568125
v 0.473750 0.442500 0.644375
v 0.473750 0.457500 0.644375
v 0.473750 0.457500 0.568125
v 0.526250 0.442500 0.644375
v 0.526250 0.442500 0.568125
v 0.526250 0.457500 0.568125
v 0.526250 0.457500 0.644375
v 0.473750 0.442500 0.641875
v 0.473750 0.442500 0.651875
v 0.473750 0.487500 0.651875
v 0.473750 0.487500 0.641875
v 0.526250 0.442500 0.651875
v 0.526250 0.442500 0.641875
v 0.526250 0.487500 0.641875
v 0.526250 0.487500 0.651875
v 0.511875 0.457500 0.605625
v 0.488125 0.457500 0.605625
v 0.488125 0.492500 0.598125
v 0.511875 0.492500 0.598125
v 0.488125 0.457500 0.614375
v 0.488125 0.492500 0.606875
v 0.511875 0.492500 0.606875
v 0.511875 0.457500 0.614375
v 0.451250 0.496250 0.623125
v 0.451250 0.494419 0.618706
v 0.446250 0.494419 0.618706
v 0.446250 0.496250 0.623125
v 0.451250 0.490000 0.616875
v 0.446250 0.490000 0.616875
v 0.451250 0.485581 0.618706
v 0.446250 0.485581 0.618706
v 0.451250 0.483750 0.623125
v 0.446250 0.483750 0.623125
v 0.451250 0.485581 0.627544
v 0.446250 0.485581 0.627544
v 0.451250 0.490000 0.629375
v 0.446250 0.490000 0.629375
v 0.451250 0.494419 0.627544
v 0.446250 0.494419 0.627544
v 0.451250 0.497500 0.580625
v 0.451250 0.495669 0.576206
v 0.446250 0.495669 0.576206
v 0.446250 0.497500 0.580625
v 0.451250 0.491250 0.574375
v 0.446250 0.491250 0.574375
v 0.451250 0.486831 0.576206
v 0.446250 0.486831 0.576206
v 0.451250 0.485000 0.580625
v 0.446250 0.485000 0.580625
v 0.451250 0.486831 0.585044
v 0.446250 0.486831 0.585044
v 0.451250 0.491250 0.586875
v 0.446250 0.491250 0.586875
v 0.451250 0.495669 0.585044
v 0.446250 0.495669 0.585044
v 0.553750 0.496250 0.623125
v 0.553750 0.494419 0.618706
v 0.548750 0.494419 0.618706
v 0.548750 0.496250 0.623125
v 0.553750 0.490000 0.616875
v 0.548750 0.490000 0.616875
v 0.553750 0.485581 0.618706
v 0.548750 0.485581 0.618706
v 0.553750 0.483750 0.623125
v 0.548750 0.483750 0.623125
v 0.553750 0.485581 0.627544
v 0.548750 0.485581 0.627544
v 0.553750 0.490000 0.629375
v 0.548750 0.490000 0.629375
v 0.553750 0.494419 0.627544
v 0.548750 0.494419 0.627544
v 0.553750 0.497500 0.580625
v 0.553750 0.495669 0.576206
v 0.548750 0.495669 0.576206
v 0.548750 0.497500 0.580625
v 0.553750 0.491250 0.574375
v 0.548750 0.491250 0.574375
v 0.553750 0.486831 0.576206
v 0.548750 0.486831 0.576206
v 0.553750 0.485000 0.580625
v 0.548750 0.485000 0.580625
v 0.553750 0.486831 0.585044
v 0.548750 0.486831 0.585044
v 0.553750 0.491250 0.586875
v 0.548750 0.491250 0.586875
v 0.553750 0.495669 0.585044
v 0.548750 0.495669 0.585044
v 0.532500 0.356250 0.670625
v 0.467500 0.356250 0.670625
v 0.462500 0.480000 0.643125
v 0.537500 0.480000 0.643125
v 0.467500 0.356250 0.713125
v 0.462500 0.480000 0.694375
v 0.537500 0.480000 0.694375
v 0.532500 0.356250 0.713125
v 0.458125 0.373750 0.663125
v 0.458125 0.373750 0.700625
v 0.458125 0.468750 0.700625
v 0.458125 0.468750 0.663125
v 0.463750 0.373750 0.700625
v 0.463750 0.373750 0.663125
v 0.463750 0.468750 0.663125
v 0.463750 0.468750 0.700625
v 0.536250 0.373750 0.663125
v 0.536250 0.373750 0.700625
v 0.536250 0.468750 0.700625
v 0.536250 0.468750 0.663125
v 0.541875 0.373750 0.700625
v 0.541875 0.373750 0.663125
v 0.541875 0.468750 0.663125
v 0.541875 0.468750 0.700625
v 0.472500 0.440968 0.709052
v 0.472500 0.414309 0.926171
v 0.472500 0.440363 0.929370
v 0.472500 0.467022 0.712251
v 0.527500 0.414309 0.926171
v 0.527500 0.440968 0.709052
v 0.527500 0.467022 0.712251
v 0.527500 0.440363 0.929370
v 0.536250 0.520000 0.709375
v 0.463750 0.520000 0.709375
v 0.463750 0.563750 0.709375
v 0.536250 0.563750 0.709375
v 0.463750 0.520000 0.926875
v 0.467500 0.563750 0.924375
v 0.532500 0.563750 0.924375
v 0.536250 0.520000 0.926875
v 0.538750 0.563750 0.748125
v 0.461250 0.563750 0.748125
v 0.471250 0.582500 0.758125
v 0.528750 0.582500 0.758125
v 0.471250 0.582500 0.898125
v 0.461250 0.563750 0.909375
v 0.528750 0.582500 0.898125
v 0.538750 0.563750 0.909375
v 0.543750 0.416250 0.911875
v 0.456250 0.416250 0.911875
v 0.461250 0.578750 0.925625
v 0.538750 0.578750 0.925625
v 0.456250 0.416250 0.926875
v 0.461250 0.578750 0.943125
v 0.538750 0.578750 0.943125
v 0.543750 0.416250 0.926875
v 0.459375 0.523750 0.740625
v 0.459375 0.523750 0.900625
v 0.459375 0.558750 0.900625
v 0.459375 0.558750 0.740625
v 0.463750 0.523750 0.900625
v 0.463750 0.523750 0.740625
v 0.463750 0.558750 0.740625
v 0.463750 0.558750 0.900625
v 0.536250 0.523750 0.740625
v 0.536250 0.523750 0.900625
v 0.536250 0.558750 0.900625
v 0.536250 0.558750 0.740625
v 0.540625 0.523750 0.900625
v 0.540625 0.523750 0.740625
v 0.540625 0.558750 0.740625
v 0.540625 0.558750 0.900625
v 0.552500 0.470000 0.879375
v 0.552500 0.467990 0.871875
v 0.538750 0.467990 0.871875
v 0.538750 0.470000 0.879375
v 0.552500 0.462500 0.866385
v 0.538750 0.462500 0.866385
v 0.552500 0.455000 0.864375
v 0.538750 0.455000 0.864375
v 0.552500 0.447500 0.866385
v 0.538750 0.447500 0.866385
v 0.552500 0.442010 0.871875
v 0.538750 0.442010 0.871875
v 0.552500 0.440000 0.879375
v 0.538750 0.440000 0.879375
v 0.552500 0.442010 0.886875
v 0.538750 0.442010 0.886875
v 0.552500 0.447500 0.892365
v 0.538750 0.447500 0.892365
v 0.552500 0.455000 0.894375
v 0.538750 0.455000 0.894375
v 0.552500 0.462500 0.892365
v 0.538750 0.462500 0.892365
v 0.552500 0.467990 0.886875
v 0.538750 0.467990 0.886875
v 0.535000 0.440000 0.873125
v 0.535000 0.440000 0.885625
v 0.535000 0.470000 0.885625
v 0.535000 0.470000 0.873125
v 0.538750 0.440000 0.885625
v 0.538750 0.440000 0.873125
v 0.538750 0.470000 0.873125
v 0.538750 0.470000 0.885625
v 0.481250 0.609375 0.711875
v 0.482677 0.616550 0.711875
v 0.482677 0.616550 0.399375
v 0.481250 0.609375 0.399375
v 0.486742 0.622633 0.711875
v 0.486742 0.622633 0.399375
v 0.492825 0.626698 0.711875
v 0.492825 0.626698 0.399375
v 0.500000 0.628125 0.711875
v 0.500000 0.628125 0.399375
v 0.507175 0.626698 0.711875
v 0.507175 0.626698 0.399375
v 0.513258 0.622633 0.711875
v 0.513258 0.622633 0.399375
v 0.517323 0.616550 0.711875
v 0.517323 0.616550 0.399375
v 0.518750 0.609375 0.711875
v 0.518750 0.609375 0.399375
v 0.517323 0.602200 0.711875
v 0.517323 0.602200 0.399375
v 0.513258 0.596117 0.711875
v 0.513258 0.596117 0.399375
v 0.507175 0.592052 0.711875
v 0.507175 0.592052 0.399375
v 0.500000 0.590625 0.711875
v 0.500000 0.590625 0.399375
v 0.492825 0.592052 0.711875
v 0.492825 0.592052 0.399375
v 0.486742 0.596117 0.711875
v 0.486742 0.596117 0.399375
v 0.482677 0.602200 0.711875
v 0.482677 0.602200 0.399375
v 0.478750 0.609375 0.399375
v 0.480368 0.617507 0.399375
v 0.475748 0.619420 0.366875
v 0.473750 0.609375 0.366875
v 0.484974 0.624401 0.399375
v 0.481438 0.627937 0.366875
v 0.491868 0.629007 0.399375
v 0.489955 0.633627 0.366875
v 0.500000 0.630625 0.399375
v 0.500000 0.635625 0.366875
v 0.508132 0.629007 0.399375
v 0.510045 0.633627 0.366875
v 0.515026 0.624401 0.399375
v 0.518562 0.627937 0.366875
v 0.519632 0.617507 0.399375
v 0.524252 0.619420 0.366875
v 0.521250 0.609375 0.399375
v 0.526250 0.609375 0.366875
v 0.519632 0.601243 0.399375
v 0.524252 0.599330 0.366875
v 0.515026 0.594349 0.399375
v 0.518562 0.590813 0.366875
v 0.508132 0.589743 0.399375
v 0.510045 0.585123 0.366875
v 0.500000 0.588125 0.399375
v 0.500000 0.583125 0.366875
v 0.491868 0.589743 0.399375
v 0.489955 0.585123 0.366875
v 0.484974 0.594349 0.399375
v 0.481438 0.590813 0.366875
v 0.480368 0.601243 0.399375
v 0.475748 0.599330 0.366875
v 0.476903 0.618942 0.362500
v 0.475000 0.609375 0.362500
v 0.482322 0.627053 0.362500
v 0.490433 0.632472 0.362500
v 0.500000 0.634375 0.362500
v 0.509567 0.632472 0.362500
v 0.517678 0.627053 0.362500
v 0.523097 0.618942 0.362500
v 0.525000 0.609375 0.362500
v 0.523097 0.599808 0.362500
v 0.517678 0.591697 0.362500
v 0.509567 0.586278 0.362500
v 0.500000 0.584375 0.362500
v 0.490433 0.586278 0.362500
v 0.482322 0.591697 0.362500
v 0.476903 0.599808 0.362500
v 0.478750 0.609375 0.362500
v 0.480368 0.617507 0.362500
v 0.480368 0.617507 0.360000
v 0.478750 0.609375 0.360000
v 0.484974 0.624401 0.362500
v 0.484974 0.624401 0.360000
v 0.491868 0.629007 0.362500
v 0.491868 0.629007 0.360000
v 0.500000 0.630625 0.362500
v 0.500000 0.630625 0.360000
v 0.508132 0.629007 0.362500
v 0.508132 0.629007 0.360000
v 0.515026 0.624401 0.362500
v 0.515026 0.624401 0.360000
v 0.519632 0.617507 0.362500
v 0.519632 0.617507 0.360000
v 0.521250 0.609375 0.362500
v 0.521250 0.609375 0.360000
v 0.519632 0.601243 0.362500
v 0.519632 0.601243 0.360000
v 0.515026 0.594349 0.362500
v 0.515026 0.594349 0.360000
v 0.508132 0.589743 0.362500
v 0.508132 0.589743 0.360000
v 0.500000 0.588125 0.362500
v 0.500000 0.588125 0.360000
v 0.491868 0.589743 0.362500
v 0.491868 0.589743 0.360000
v 0.484974 0.594349 0.362500
v 0.484974 0.594349 0.360000
v 0.480368 0.601243 0.362500
v 0.480368 0.601243 0.360000
v 0.478750 0.609375 0.744375
v 0.480368 0.617507 0.744375
v 0.480945 0.617268 0.711875
v 0.479375 0.609375 0.711875
v 0.484974 0.624401 0.744375
v 0.485416 0.623959 0.711875
v 0.491868 0.629007 0.744375
v 0.492107 0.628430 0.711875
v 0.500000 0.630625 0.744375
v 0.500000 0.630000 0.711875
v 0.508132 0.629007 0.744375
v 0.507893 0.628430 0.711875
v 0.515026 0.624401 0.744375
v 0.514584 0.623959 0.711875
v 0.519632 0.617507 0.744375
v 0.519055 0.617268 0.711875
v 0.521250 0.609375 0.744375
v 0.520625 0.609375 0.711875
v 0.519632 0.601243 0.744375
v 0.519055 0.601482 0.711875
v 0.515026 0.594349 0.744375
v 0.514584 0.594791 0.711875
v 0.508132 0.589743 0.744375
v 0.507893 0.590320 0.711875
v 0.500000 0.588125 0.744375
v 0.500000 0.588750 0.711875
v 0.491868 0.589743 0.744375
v 0.492107 0.590320 0.711875
v 0.484974 0.594349 0.744375
v 0.485416 0.594791 0.711875
v 0.480368 0.601243 0.744375
v 0.480945 0.601482 0.711875
v 0.472500 0.609375 0.755625
v 0.474593 0.619899 0.755625
v 0.476903 0.618942 0.744375
v 0.475000 0.609375 0.744375
v 0.480555 0.628820 0.755625
v 0.482322 0.627053 0.744375
v 0.489476 0.634782 0.755625
v 0.490433 0.632472 0.744375
v 0.500000 0.636875 0.755625
v 0.500000 0.634375 0.744375
v 0.510524 0.634782 0.755625
v 0.509567 0.632472 0.744375
v 0.519445 0.628820 0.755625
v 0.517678 0.627053 0.744375
v 0.525407 0.619899 0.755625
v 0.523097 0.618942 0.744375
v 0.527500 0.609375 0.755625
v 0.525000 0.609375 0.744375
v 0.525407 0.598851 0.755625
v 0.523097 0.599808 0.744375
v 0.519445 0.589930 0.755625
v 0.517678 0.591697 0.744375
v 0.510524 0.583968 0.755625
v 0.509567 0.586278 0.744375
v 0.500000 0.581875 0.755625
v 0.500000 0.584375 0.744375
v 0.489476 0.583968 0.755625
v 0.490433 0.586278 0.744375
v 0.480555 0.589930 0.755625
v 0.482322 0.591697 0.744375
v 0.474593 0.598851 0.755625
v 0.476903 0.599808 0.744375
v 0.478125 0.609375 0.514375
v 0.479790 0.617746 0.514375
v 0.479790 0.617746 0.496875
v 0.478125 0.609375 0.496875
v 0.484532 0.624843 0.514375
v 0.484532 0.624843 0.496875
v 0.491629 0.629585 0.514375
v 0.491629 0.629585 0.496875
v 0.500000 0.631250 0.514375
v 0.500000 0.631250 0.496875
v 0.508371 0.629585 0.514375
v 0.508371 0.629585 0.496875
v 0.515468 0.624843 0.514375
v 0.515468 0.624843 0.496875
v 0.520210 0.617746 0.514375
v 0.520210 0.617746 0.496875
v 0.521875 0.609375 0.514375
v 0.521875 0.609375 0.496875
v 0.520210 0.601004 0.514375
v 0.520210 0.601004 0.496875
v 0.515468 0.593907 0.514375
v 0.515468 0.593907 0.496875
v 0.508371 0.589165 0.514375
v 0.508371 0.589165 0.496875
v 0.500000 0.587500 0.514375
v 0.500000 0.587500 0.496875
v 0.491629 0.589165 0.514375
v 0.491629 0.589165 0.496875
v 0.484532 0.593907 0.514375
v 0.484532 0.593907 0.496875
v 0.479790 0.601004 0.514375
v 0.479790 0.601004 0.496875
v 0.487500 0.643750 0.536875
v 0.489175 0.643750 0.530625
v 0.489175 0.626250 0.530625
v 0.487500 0.626250 0.536875
v 0.493750 0.643750 0.526050
v 0.493750 0.626250 0.526050
v 0.500000 0.643750 0.524375
v 0.500000 0.626250 0.524375
v 0.506250 0.643750 0.526050
v 0.506250 0.626250 0.526050
v 0.510825 0.643750 0.530625
v 0.510825 0.626250 0.530625
v 0.512500 0.643750 0.536875
v 0.512500 0.626250 0.536875
v 0.510825 0.643750 0.543125
v 0.510825 0.626250 0.543125
v 0.506250 0.643750 0.547700
v 0.506250 0.626250 0.547700
v 0.500000 0.643750 0.549375
v 0.500000 0.626250 0.549375
v 0.493750 0.643750 0.547700
v 0.493750 0.626250 0.547700
v 0.489175 0.643750 0.543125
v 0.489175 0.626250 0.543125
v 0.481250 0.621250 0.536875
v 0.481250 0.619659 0.530937
v 0.467500 0.619659 0.530937
v 0.467500 0.621250 0.536875
v 0.481250 0.615313 0.526591
v 0.467500 0.615313 0.526591
v 0.481250 0.609375 0.525000
v 0.467500 0.609375 0.525000
v 0.481250 0.603438 0.526591
v 0.467500 0.603438 0.526591
v 0.481250 0.599091 0.530937
v 0.467500 0.599091 0.530937
v 0.481250 0.597500 0.536875
v 0.467500 0.597500 0.536875
v 0.481250 0.599091 0.542812
v 0.467500 0.599091 0.542812
v 0.481250 0.603437 0.547159
v 0.467500 0.603437 0.547159
v 0.481250 0.609375 0.548750
v 0.467500 0.609375 0.548750
v 0.481250 0.615313 0.547159
v 0.467500 0.615313 0.547159
v 0.481250 0.619659 0.542812
v 0.467500 0.619659 0.542812
v 0.532500 0.606250 0.536875
v 0.532500 0.604827 0.531562
v 0.518750 0.604827 0.531562
v 0.518750 0.606250 0.536875
v 0.532500 0.600938 0.527673
v 0.518750 0.600938 0.527673
v 0.532500 0.595625 0.526250
v 0.518750 0.595625 0.526250
v 0.532500 0.590313 0.527673
v 0.518750 0.590313 0.527673
v 0.532500 0.586423 0.531562
v 0.518750 0.586423 0.531562
v 0.532500 0.585000 0.536875
v 0.518750 0.585000 0.536875
v 0.532500 0.586423 0.542187
v 0.518750 0.586423 0.542187
v 0.532500 0.590313 0.546077
v 0.518750 0.590313 0.546077
v 0.532500 0.595625 0.547500
v 0.518750 0.595625 0.547500
v 0.532500 0.600938 0.546077
v 0.518750 0.600938 0.546077
v 0.532500 0.604827 0.542188
v 0.518750 0.604827 0.542188
v 0.476250 0.561250 0.653125
v 0.476250 0.561250 0.686875
v 0.476250 0.600000 0.686875
v 0.476250 0.600000 0.653125
v 0.523750 0.561250 0.686875
v 0.523750 0.561250 0.653125
v 0.523750 0.600000 0.653125
v 0.523750 0.600000 0.686875
v 0.471250 0.566250 0.662500
v 0.471250 0.566250 0.677500
v 0.471250 0.576250 0.677500
v 0.471250 0.576250 0.662500
v 0.476250 0.566250 0.677500
v 0.476250 0.566250 0.662500
v 0.476250 0.576250 0.662500
v 0.476250 0.576250 0.677500
v 0.523750 0.566250 0.662500
v 0.523750 0.566250 0.677500
v 0.523750 0.576250 0.677500
v 0.523750 0.576250 0.662500
v 0.528750 0.566250 0.677500
v 0.528750 0.566250 0.662500
v 0.528750 0.576250 0.662500
v 0.528750 0.576250 0.677500
v 0.476250 0.561250 0.494375
v 0.476250 0.561250 0.528125
v 0.476250 0.600000 0.528125
v 0.476250 0.600000 0.494375
v 0.523750 0.561250 0.528125
v 0.523750 0.561250 0.494375
v 0.523750 0.600000 0.494375
v 0.523750 0.600000 0.528125
v 0.471250 0.566250 0.503750
v 0.471250 0.566250 0.518750
v 0.471250 0.576250 0.518750
v 0.471250 0.576250 0.503750
v 0.476250 0.566250 0.518750
v 0.476250 0.566250 0.503750
v 0.476250 0.576250 0.503750
v 0.476250 0.576250 0.518750
v 0.523750 0.566250 0.503750
v 0.523750 0.566250 0.518750
v 0.523750 0.576250 0.518750
v 0.523750 0.576250 0.503750
v 0.528750 0.566250 0.518750
v 0.528750 0.566250 0.503750
v 0.528750 0.576250 0.503750
v 0.528750 0.576250 0.518750
v 0.473750 0.561250 0.480625
v 0.473750 0.561250 0.703125
v 0.473750 0.571250 0.703125
v 0.473750 0.571250 0.480625
v 0.526250 0.561250 0.703125
v 0.526250 0.561250 0.480625
v 0.526250 0.571250 0.480625
v 0.526250 0.571250 0.703125
v 0.477500 0.571250 0.685625
v 0.477500 0.571250 0.698125
v 0.477500 0.577500 0.698125
v 0.477500 0.577500 0.685625
v 0.522500 0.571250 0.698125
v 0.522500 0.571250 0.685625
v 0.522500 0.577500 0.685625
v 0.522500 0.577500 0.698125
v 0.477500 0.571250 0.654375
v 0.477500 0.571250 0.666875
v 0.477500 0.577500 0.666875
v 0.477500 0.577500 0.654375
v 0.522500 0.571250 0.666875
v 0.522500 0.571250 0.654375
v 0.522500 0.577500 0.654375
v 0.522500 0.577500 0.666875
v 0.477500 0.571250 0.623125
v 0.477500 0.571250 0.635625
v 0.477500 0.577500 0.635625
v 0.477500 0.577500 0.623125
v 0.522500 0.571250 0.635625
v 0.522500 0.571250 0.623125
v 0.522500 0.577500 0.623125
v 0.522500 0.577500 0.635625
v 0.477500 0.571250 0.591875
v 0.477500 0.571250 0.604375
v 0.477500 0.577500 0.604375
v 0.477500 0.577500 0.591875
v 0.522500 0.571250 0.604375
v 0.522500 0.571250 0.591875
v 0.522500 0.577500 0.591875
v 0.522500 0.577500 0.604375
v 0.477500 0.571250 0.560625
v 0.477500 0.571250 0.573125
v 0.477500 0.577500 0.573125
v 0.477500 0.577500 0.560625
v 0.522500 0.571250 0.573125
v 0.522500 0.571250 0.560625
v 0.522500 0.577500 0.560625
v 0.522500 0.577500 0.573125
v 0.477500 0.571250 0.529375
v 0.477500 0.571250 0.541875
v 0.477500 0.577500 0.541875
v 0.477500 0.577500 0.529375
v 0.522500 0.571250 0.541875
v 0.522500 0.571250 0.529375
v 0.522500 0.577500 0.529375
v 0.522500 0.577500 0.541875
v 0.477500 0.571250 0.498125
v 0.477500 0.571250 0.510625
v 0.477500 0.577500 0.510625
v 0.477500 0.577500 0.498125
v 0.522500 0.571250 0.510625
v 0.522500 0.571250 0.498125
v 0.522500 0.577500 0.498125
v 0.522500 0.577500 0.510625
v 0.481250 0.576250 0.469375
v 0.481250 0.576250 0.495625
v 0.481250 0.583750 0.495625
v 0.481250 0.583750 0.469375
v 0.518750 0.576250 0.495625
v 0.518750 0.576250 0.469375
v 0.518750 0.583750 0.469375
v 0.518750 0.583750 0.495625
v 0.481250 0.566875 0.159375
v 0.481250 0.566875 0.176875
v 0.481250 0.576250 0.176875
v 0.481250 0.576250 0.159375
v 0.518750 0.566875 0.176875
v 0.518750 0.566875 0.159375
v 0.518750 0.576250 0.159375
v 0.518750 0.576250 0.176875
v 0.467500 0.553750 0.135625
v 0.467500 0.553750 0.155625
v 0.467500 0.572500 0.155625
v 0.467500 0.572500 0.135625
v 0.475000 0.553750 0.155625
v 0.475000 0.553750 0.135625
v 0.475000 0.572500 0.135625
v 0.475000 0.572500 0.155625
v 0.525000 0.553750 0.135625
v 0.525000 0.553750 0.155625
v 0.525000 0.572500 0.155625
v 0.525000 0.572500 0.135625
v 0.532500 0.553750 0.155625
v 0.532500 0.553750 0.135625
v 0.532500 0.572500 0.135625
v 0.532500 0.572500 0.155625
vt 0.000977 0.061523
vt 0.061523 0.061523
vt 0.061523 0.000977
vt 0.000977 0.000977
vt 0.063477 0.061523
vt 0.124023 0.061523
vt 0.124023 0.000977
vt 0.063477 0.000977
vt 0.186523 0.000977
vt 0.125977 0.000977
vt 0.125977 0.061523
vt 0.186523 0.061523
vt 0.375977 0.061523
vt 0.436523 0.061523
vt 0.436523 0.000977
vt 0.375977 0.000977
vt 0.813477 0.186523
vt 0.874023 0.186523
vt 0.874023 0.125977
vt 0.813477 0.125977
vt 0.561523 0.000977
vt 0.500977 0.000977
vt 0.500977 0.061523
vt 0.561523 0.061523
vt 0.250977 0.186523
vt 0.311523 0.186523
vt 0.311523 0.125977
vt 0.250977 0.125977
vt 0.438477 0.061523
vt 0.499023 0.061523
vt 0.499023 0.000977
vt 0.438477 0.000977
vt 0.243137 0.000977
vt 0.194363 0.000977
vt 0.188477 0.061523
vt 0.249023 0.061523
vt 0.249023 0.000977
vt 0.196045 0.000977
vt 0.241455 0.000977
vt 0.188477 0.000977
vt 0.374023 0.000977
vt 0.313477 0.000977
vt 0.313477 0.061523
vt 0.374023 0.061523
vt 0.311523 0.000977
vt 0.250977 0.000977
vt 0.250977 0.061523
vt 0.311523 0.061523
vt 0.242857 0.000977
vt 0.194643 0.000977
vt 0.234296 0.000977
vt 0.201568 0.000977
vt 0.235932 0.000977
vt 0.203204 0.000977
vt 0.244895 0.000977
vt 0.192605 0.000977
vt 0.241057 0.000977
vt 0.196443 0.000977
vt 0.192109 0.061523
vt 0.245391 0.061523
vt 0.619366 0.000977
vt 0.568134 0.000977
vt 0.563477 0.061523
vt 0.624023 0.061523
vt 0.611049 0.000977
vt 0.576451 0.000977
vt 0.749023 0.000977
vt 0.688477 0.000977
vt 0.688477 0.061523
vt 0.749023 0.061523
vt 0.374023 0.125977
vt 0.313477 0.125977
vt 0.313477 0.186523
vt 0.374023 0.186523
vt 0.000977 0.110134
vt 0.035765 0.124023
vt 0.061523 0.074604
vt 0.028806 0.063477
vt 0.938477 0.006850
vt 0.938959 0.061523
vt 0.999023 0.051767
vt 0.998806 0.000977
vt 0.089176 0.124023
vt 0.124023 0.110087
vt 0.096249 0.063477
vt 0.063477 0.074644
vt 0.998525 0.061523
vt 0.999023 0.006850
vt 0.938701 0.000977
vt 0.938477 0.051767
vt 0.000977 0.113221
vt 0.038051 0.124023
vt 0.061523 0.069547
vt 0.026178 0.063477
vt 0.938477 0.000977
vt 0.938677 0.061523
vt 0.998548 0.059173
vt 0.999023 0.003327
vt 0.086801 0.124023
vt 0.124023 0.113111
vt 0.098962 0.063477
vt 0.063477 0.069609
vt 0.998807 0.061523
vt 0.999023 0.000977
vt 0.938477 0.003327
vt 0.938986 0.059173
vt 0.000977 0.117160
vt 0.051674 0.124023
vt 0.061523 0.063477
vt 0.015112 0.067276
vt 0.938977 0.000977
vt 0.938477 0.045033
vt 0.998142 0.061523
vt 0.999023 0.021236
vt 0.073671 0.124023
vt 0.124023 0.117098
vt 0.109572 0.067317
vt 0.063477 0.063477
vt 0.999023 0.045030
vt 0.998417 0.000977
vt 0.938477 0.021234
vt 0.939517 0.061523
vt 0.028339 0.124023
vt 0.061523 0.120629
vt 0.028826 0.063477
vt 0.000977 0.070949
vt 0.939237 0.000977
vt 0.938477 0.045320
vt 0.998457 0.061523
vt 0.999023 0.025223
vt 0.063477 0.120653
vt 0.096783 0.124023
vt 0.124023 0.070928
vt 0.096072 0.063477
vt 0.999023 0.045319
vt 0.998188 0.000977
vt 0.938477 0.025222
vt 0.939094 0.061523
vt 0.063477 0.124023
vt 0.124023 0.124023
vt 0.124023 0.063477
vt 0.063477 0.063477
vt 0.063477 0.124023
vt 0.124023 0.124023
vt 0.453613 0.005032
vt 0.442532 0.016113
vt 0.438477 0.031250
vt 0.442532 0.046387
vt 0.453613 0.057468
vt 0.468750 0.061523
vt 0.483887 0.057468
vt 0.494968 0.046387
vt 0.499023 0.031250
vt 0.494968 0.016113
vt 0.483887 0.005032
vt 0.468750 0.000977
vt 0.500977 0.125977
vt 0.500977 0.186523
vt 0.561523 0.186523
vt 0.561523 0.125977
vt 0.582165 0.128281
vt 0.572343 0.134843
vt 0.565781 0.144665
vt 0.563477 0.156250
vt 0.565781 0.167835
vt 0.572343 0.177657
vt 0.582165 0.184219
vt 0.593750 0.186523
vt 0.605335 0.184219
vt 0.615157 0.177657
vt 0.621719 0.167835
vt 0.624023 0.156250
vt 0.621719 0.144665
vt 0.615157 0.134843
vt 0.605335 0.128281
vt 0.593750 0.125977
vt 0.578613 0.130032
vt 0.567532 0.141113
vt 0.567532 0.171387
vt 0.578613 0.182468
vt 0.608887 0.182468
vt 0.619968 0.171387
vt 0.619968 0.141113
vt 0.608887 0.130032
vt 0.026735 0.124023
vt 0.061523 0.110134
vt 0.033694 0.063477
vt 0.000977 0.074604
vt 0.938975 0.061523
vt 0.998799 0.000977
vt 0.063477 0.110087
vt 0.098324 0.124023
vt 0.124023 0.074644
vt 0.091251 0.063477
vt 0.998541 0.061523
vt 0.938694 0.000977
vt 0.024449 0.124023
vt 0.061523 0.113221
vt 0.036322 0.063477
vt 0.000977 0.069547
vt 0.938693 0.061523
vt 0.998514 0.059173
vt 0.999023 0.003327
vt 0.063477 0.113111
vt 0.100699 0.124023
vt 0.124023 0.069609
vt 0.088538 0.063477
vt 0.998823 0.061523
vt 0.938477 0.003327
vt 0.938952 0.059173
vt 0.010826 0.124023
vt 0.061523 0.117160
vt 0.047388 0.067276
vt 0.000977 0.063477
vt 0.939083 0.000977
vt 0.938477 0.045030
vt 0.997983 0.061523
vt 0.999023 0.021234
vt 0.063477 0.117098
vt 0.113829 0.124023
vt 0.077928 0.067317
vt 0.999023 0.045033
vt 0.998523 0.000977
vt 0.938477 0.021236
vt 0.939358 0.061523
vt 0.000977 0.120629
vt 0.034161 0.124023
vt 0.061523 0.070949
vt 0.033674 0.063477
vt 0.939312 0.000977
vt 0.938477 0.045319
vt 0.998406 0.061523
vt 0.999023 0.025222
vt 0.090717 0.124023
vt 0.124023 0.120653
vt 0.091428 0.063477
vt 0.063477 0.070928
vt 0.999023 0.045320
vt 0.998263 0.000977
vt 0.938477 0.025223
vt 0.939043 0.061523
vt 0.124023 0.063477
vt 0.063477 0.124023
vt 0.621099 0.124023
vt 0.624023 0.122592
vt 0.566401 0.063477
vt 0.563477 0.064908
vt 0.501125 0.063477
vt 0.500977 0.083626
vt 0.561375 0.124023
vt 0.561523 0.103874
vt 0.625977 0.122592
vt 0.628901 0.124023
vt 0.686523 0.064908
vt 0.683599 0.063477
vt 0.561523 0.083626
vt 0.561375 0.063477
vt 0.500977 0.103874
vt 0.501125 0.124023
vt 0.625977 0.124023
vt 0.686523 0.124023
vt 0.686523 0.063477
vt 0.625977 0.063477
vt 0.686523 0.063477
vt 0.625977 0.124023
vt 0.686523 0.124023
vt 0.563477 0.122592
vt 0.566401 0.124023
vt 0.624023 0.064908
vt 0.621099 0.063477
vt 0.683599 0.124023
vt 0.686523 0.122592
vt 0.628901 0.063477
vt 0.625977 0.064908
vt 0.625977 0.063477
vt 0.686523 0.063477
vt 0.625977 0.124023
vt 0.811523 0.064453
vt 0.807466 0.063477
vt 0.750977 0.123047
vt 0.755034 0.124023
vt 0.688477 0.099496
vt 0.688581 0.124023
vt 0.749023 0.088004
vt 0.748919 0.063477
vt 0.817534 0.063477
vt 0.813477 0.064453
vt 0.869966 0.124023
vt 0.874023 0.123047
vt 0.748919 0.124023
vt 0.749023 0.099496
vt 0.688581 0.063477
vt 0.688477 0.088004
vt 0.813477 0.124023
vt 0.874023 0.124023
vt 0.874023 0.063477
vt 0.813477 0.063477
vt 0.813477 0.063477
vt 0.813477 0.124023
vt 0.755034 0.063477
vt 0.750977 0.064453
vt 0.807466 0.124023
vt 0.811523 0.123047
vt 0.874023 0.064453
vt 0.869966 0.063477
vt 0.813477 0.123047
vt 0.817534 0.124023
vt 0.874023 0.124023
vt 0.874023 0.063477
vt 0.813477 0.063477
vt 0.245239 0.000977
vt 0.192261 0.000977
vt 0.244987 0.000977
vt 0.193522 0.000977
vt 0.243978 0.000977
vt 0.192513 0.000977
vt 0.060480 0.000977
vt 0.002020 0.000977
vt 0.058771 0.000977
vt 0.003729 0.000977
vt 0.063477 0.186523
vt 0.124023 0.186523
vt 0.124023 0.125977
vt 0.063477 0.125977
vt 0.403921 0.061523
vt 0.408579 0.000977
vt 0.408579 0.061523
vt 0.403921 0.000977
vt 0.875977 0.063477
vt 0.875977 0.124023
vt 0.936523 0.124023
vt 0.936523 0.063477
vt 0.947343 0.072343
vt 0.938477 0.093750
vt 0.947343 0.115157
vt 0.968750 0.124023
vt 0.990157 0.115157
vt 0.999023 0.093750
vt 0.990157 0.072343
vt 0.968750 0.063477
vt 0.567513 0.061523
vt 0.619987 0.061523
vt 0.624023 0.000977
vt 0.563477 0.000977
vt 0.587263 0.061523
vt 0.607806 0.000977
vt 0.600237 0.061523
vt 0.579694 0.000977
vt 0.936523 0.000977
vt 0.875977 0.000977
vt 0.875977 0.061523
vt 0.936523 0.061523
vt 0.625977 0.061523
vt 0.686523 0.061523
vt 0.686523 0.000977
vt 0.625977 0.000977
vt 0.375977 0.186523
vt 0.436523 0.186523
vt 0.436523 0.125977
vt 0.375977 0.125977
vt 0.000977 0.061411
vt 0.060837 0.000977
vt 0.000977 0.001089
vt 0.058392 0.000977
vt 0.004108 0.000977
vt 0.061523 0.061411
vt 0.061523 0.001089
vt 0.001663 0.000977
vt 0.120892 0.000977
vt 0.066608 0.000977
vt 0.616211 0.000977
vt 0.571289 0.000977
vt 0.620269 0.000977
vt 0.567701 0.000977
vt 0.619799 0.000977
vt 0.567231 0.000977
vt 0.750977 0.061523
vt 0.811523 0.061523
vt 0.808064 0.000977
vt 0.754436 0.000977
vt 0.780039 0.061523
vt 0.811523 0.000977
vt 0.777617 0.000977
vt 0.782461 0.061523
vt 0.784883 0.000977
vt 0.750977 0.000977
vt 0.874023 0.000977
vt 0.813477 0.000977
vt 0.813477 0.061523
vt 0.874023 0.061523
vt 0.625977 0.125977
vt 0.625977 0.186523
vt 0.686523 0.186523
vt 0.686523 0.125977
vt 0.374023 0.124023
vt 0.374023 0.063477
vt 0.313477 0.063477
vt 0.313477 0.124023
vt 0.373574 0.124023
vt 0.374023 0.075009
vt 0.314032 0.063477
vt 0.372542 0.124023
vt 0.374023 0.084002
vt 0.315306 0.063477
vt 0.313477 0.112915
vt 0.370815 0.124023
vt 0.374023 0.093793
vt 0.317440 0.063477
vt 0.313477 0.100821
vt 0.368257 0.063477
vt 0.319243 0.063477
vt 0.313477 0.093793
vt 0.316685 0.124023
vt 0.374023 0.100821
vt 0.370060 0.063477
vt 0.313477 0.084002
vt 0.314958 0.124023
vt 0.374023 0.112915
vt 0.372194 0.063477
vt 0.313477 0.075009
vt 0.313926 0.124023
vt 0.373468 0.063477
vt 0.313926 0.063477
vt 0.313477 0.112491
vt 0.373468 0.124023
vt 0.374023 0.063477
vt 0.314958 0.063477
vt 0.313477 0.103498
vt 0.372194 0.124023
vt 0.374023 0.074585
vt 0.316685 0.063477
vt 0.313477 0.093707
vt 0.370060 0.124023
vt 0.374023 0.086679
vt 0.368257 0.063477
vt 0.374023 0.093707
vt 0.370815 0.063477
vt 0.313477 0.086679
vt 0.317440 0.124023
vt 0.374023 0.103498
vt 0.372542 0.063477
vt 0.313477 0.074585
vt 0.315306 0.124023
vt 0.374023 0.112491
vt 0.373574 0.063477
vt 0.314032 0.124023
vt 0.367472 0.063477
vt 0.313477 0.066360
vt 0.319716 0.124023
vt 0.374023 0.120803
vt 0.356405 0.063477
vt 0.313477 0.069426
vt 0.330256 0.124023
vt 0.374023 0.115883
vt 0.344840 0.063477
vt 0.313477 0.074113
vt 0.341270 0.124023
vt 0.314918 0.124023
vt 0.372582 0.124023
vt 0.372582 0.124023
vt 0.342660 0.063477
vt 0.313477 0.115883
vt 0.346230 0.124023
vt 0.374023 0.074113
vt 0.331095 0.063477
vt 0.313477 0.120803
vt 0.357244 0.124023
vt 0.374023 0.069426
vt 0.320028 0.063477
vt 0.367784 0.124023
vt 0.374023 0.066360
vt 0.320028 0.124023
vt 0.374023 0.121140
vt 0.367784 0.063477
vt 0.313477 0.066697
vt 0.331095 0.124023
vt 0.374023 0.118074
vt 0.357244 0.063477
vt 0.313477 0.071617
vt 0.342660 0.124023
vt 0.374023 0.113387
vt 0.346230 0.063477
vt 0.344840 0.124023
vt 0.374023 0.071617
vt 0.341270 0.063477
vt 0.313477 0.113387
vt 0.356405 0.124023
vt 0.374023 0.066697
vt 0.330256 0.063477
vt 0.313477 0.118074
vt 0.367472 0.124023
vt 0.319716 0.063477
vt 0.313477 0.121140
vt 0.749023 0.156250
vt 0.746719 0.144665
vt 0.740157 0.134843
vt 0.730335 0.128281
vt 0.718750 0.125977
vt 0.707165 0.128281
vt 0.697343 0.134843
vt 0.690781 0.144665
vt 0.688477 0.156250
vt 0.690781 0.167835
vt 0.697343 0.177657
vt 0.707165 0.184219
vt 0.718750 0.186523
vt 0.730335 0.184219
vt 0.740157 0.177657
vt 0.746719 0.167835
vt 0.374023 0.124023
vt 0.373966 0.063477
vt 0.313477 0.065257
vt 0.313533 0.124023
vt 0.374023 0.121993
vt 0.373829 0.063477
vt 0.313477 0.067228
vt 0.313665 0.124023
vt 0.374023 0.118723
vt 0.373591 0.063477
vt 0.313477 0.070402
vt 0.313897 0.124023
vt 0.314367 0.124023
vt 0.373133 0.124023
vt 0.313909 0.063477
vt 0.313477 0.118723
vt 0.373603 0.124023
vt 0.374023 0.070402
vt 0.313671 0.063477
vt 0.313477 0.121993
vt 0.373835 0.124023
vt 0.374023 0.067228
vt 0.313534 0.063477
vt 0.313477 0.124023
vt 0.373967 0.124023
vt 0.374023 0.065257
vt 0.313534 0.124023
vt 0.374023 0.122243
vt 0.373967 0.063477
vt 0.313477 0.065507
vt 0.313671 0.124023
vt 0.374023 0.120272
vt 0.373835 0.063477
vt 0.313477 0.068777
vt 0.313909 0.124023
vt 0.374023 0.117098
vt 0.373603 0.063477
vt 0.373591 0.124023
vt 0.374023 0.068777
vt 0.313897 0.063477
vt 0.313477 0.117098
vt 0.373829 0.124023
vt 0.374023 0.065507
vt 0.313665 0.063477
vt 0.313477 0.120272
vt 0.373966 0.124023
vt 0.313533 0.063477
vt 0.313477 0.122243
vt 0.753281 0.167835
vt 0.759843 0.177657
vt 0.769665 0.184219
vt 0.781250 0.186523
vt 0.792835 0.184219
vt 0.802657 0.177657
vt 0.809219 0.167835
vt 0.811523 0.156250
vt 0.809219 0.144665
vt 0.802657 0.134843
vt 0.792835 0.128281
vt 0.781250 0.125977
vt 0.769665 0.128281
vt 0.759843 0.134843
vt 0.753281 0.144665
vt 0.750977 0.156250
vt 0.809220 0.000977
vt 0.750977 0.006481
vt 0.753070 0.061523
vt 0.811523 0.055660
vt 0.804397 0.000977
vt 0.750977 0.011812
vt 0.757455 0.061523
vt 0.811523 0.047675
vt 0.797513 0.000977
vt 0.750977 0.019070
vt 0.763713 0.061523
vt 0.753729 0.061523
vt 0.808771 0.061523
vt 0.764987 0.000977
vt 0.750977 0.047675
vt 0.798787 0.061523
vt 0.811523 0.019070
vt 0.758103 0.000977
vt 0.750977 0.055660
vt 0.805045 0.061523
vt 0.811523 0.011812
vt 0.753280 0.000977
vt 0.809430 0.061523
vt 0.811523 0.006481
vt 0.753280 0.061523
vt 0.811523 0.056019
vt 0.809430 0.000977
vt 0.750977 0.006840
vt 0.758103 0.061523
vt 0.811523 0.050688
vt 0.805045 0.000977
vt 0.750977 0.014825
vt 0.764987 0.061523
vt 0.811523 0.043430
vt 0.798787 0.000977
vt 0.797513 0.061523
vt 0.811523 0.014825
vt 0.763713 0.000977
vt 0.750977 0.043430
vt 0.804397 0.061523
vt 0.811523 0.006840
vt 0.757455 0.000977
vt 0.750977 0.050688
vt 0.809220 0.061523
vt 0.753070 0.000977
vt 0.750977 0.056019
vt 0.878281 0.042835
vt 0.884843 0.052657
vt 0.894665 0.059219
vt 0.906250 0.061523
vt 0.917835 0.059219
vt 0.927657 0.052657
vt 0.934219 0.042835
vt 0.936523 0.031250
vt 0.934219 0.019665
vt 0.927657 0.009843
vt 0.917835 0.003281
vt 0.906250 0.000977
vt 0.894665 0.003281
vt 0.884843 0.009843
vt 0.878281 0.019665
vt 0.875977 0.031250
vt 0.499023 0.186523
vt 0.499023 0.125977
vt 0.438477 0.125977
vt 0.438477 0.186523
vt 0.253281 0.042835
vt 0.259843 0.052657
vt 0.269665 0.059219
vt 0.281250 0.061523
vt 0.292835 0.059219
vt 0.302657 0.052657
vt 0.309219 0.042835
vt 0.311523 0.031250
vt 0.309219 0.019665
vt 0.302657 0.009843
vt 0.292835 0.003281
vt 0.281250 0.000977
vt 0.269665 0.003281
vt 0.259843 0.009843
vt 0.253281 0.019665
vt 0.250977 0.031250
vt 0.438477 0.156250
vt 0.442532 0.171387
vt 0.453613 0.182468
vt 0.468750 0.186523
vt 0.483887 0.182468
vt 0.494968 0.171387
vt 0.499023 0.156250
vt 0.494968 0.141113
vt 0.483887 0.130032
vt 0.468750 0.125977
vt 0.453613 0.130032
vt 0.442532 0.141113
vt 0.938477 0.124023
vt 0.999023 0.124023
vt 0.999023 0.063477
vt 0.938477 0.063477
vt 0.061523 0.125977
vt 0.000977 0.125977
vt 0.000977 0.186523
vt 0.061523 0.186523
usemtl mat
f 1/1 2/2 3/3
f 1/1 3/3 4/4
f 5/1 6/2 7/3
f 5/1 7/3 8/4
f 6/1 1/2 4/3
f 6/1 4/3 7/4
f 2/1 5/2 8/3
f 2/1 8/3 3/4
f 7/5 4/6 3/7
f 7/5 3/7 8/8
f 5/9 2/10 1/11
f 5/9 1/11 6/12
f 4/1 3/2 9/3
f 4/1 9/3 10/4
f 11/1 12/2 13/3
f 11/1 13/3 14/4
f 12/1 4/2 10/3
f 12/1 10/3 13/4
f 3/1 11/2 14/3
f 3/1 14/3 9/4
f 13/5 10/6 9/7
f 13/5 9/7 14/8
f 11/9 3/10 4/11
f 11/9 4/11 12/12
f 15/1 16/2 17/3
f 15/1 17/3 18/4
f 8/1 7/2 19/3
f 8/1 19/3 20/4
f 7/1 15/2 18/3
f 7/1 18/3 19/4
f 16/1 8/2 20/3
f 16/1 20/3 17/4
f 19/5 18/6 17/7
f 19/5 17/7 20/8
f 8/9 16/10 15/11
f 8/9 15/11 7/12
f 12/13 11/14 21/15
f 12/13 21/15 22/16
f 16/13 15/14 23/15
f 16/13 23/15 24/16
f 15/13 12/14 22/15
f 15/13 22/15 23/16
f 11/13 16/14 24/15
f 11/13 24/15 21/16
f 23/17 22/18 21/19
f 23/17 21/19 24/20
f 16/21 11/22 12/23
f 16/21 12/23 15/24
f 25/25 26/26 27/27
f 25/25 27/27 28/28
f 29/1 30/2 31/3
f 29/1 31/3 32/4
f 30/1 25/2 28/3
f 30/1 28/3 31/4
f 26/1 29/2 32/3
f 26/1 32/3 27/4
f 31/5 28/6 27/7
f 31/5 27/7 32/8
f 29/9 26/10 25/11
f 29/9 25/11 30/12
f 33/25 34/26 35/27
f 33/25 35/27 36/28
f 37/1 38/2 39/3
f 37/1 39/3 40/4
f 38/1 33/2 36/3
f 38/1 36/3 39/4
f 34/1 37/2 40/3
f 34/1 40/3 35/4
f 39/5 36/6 35/7
f 39/5 35/7 40/8
f 37/9 34/10 33/11
f 37/9 33/11 38/12
f 41/1 42/2 43/3
f 41/1 43/3 44/4
f 45/25 46/26 47/27
f 45/25 47/27 48/28
f 46/1 41/2 44/3
f 46/1 44/3 47/4
f 42/1 45/2 48/3
f 42/1 48/3 43/4
f 47/5 44/6 43/7
f 47/5 43/7 48/8
f 45/9 42/10 41/11
f 45/9 41/11 46/12
f 49/1 50/2 51/3
f 49/1 51/3 52/4
f 53/25 54/26 55/27
f 53/25 55/27 56/28
f 54/1 49/2 52/3
f 54/1 52/3 55/4
f 50/1 53/2 56/3
f 50/1 56/3 51/4
f 55/5 52/6 51/7
f 55/5 51/7 56/8
f 53/9 50/10 49/11
f 53/9 49/11 54/12
f 57/13 58/14 59/15
f 57/13 59/15 60/16
f 61/13 62/14 63/15
f 61/13 63/15 64/16
f 62/13 57/14 60/15
f 62/13 60/15 63/16
f 58/13 61/14 64/15
f 58/13 64/15 59/16
f 63/29 60/30 59/31
f 63/29 59/31 64/32
f 61/21 58/22 57/23
f 61/21 57/23 62/24
f 65/13 66/14 67/15
f 65/13 67/15 68/16
f 69/13 70/14 71/15
f 69/13 71/15 72/16
f 70/13 65/14 68/15
f 70/13 68/15 71/16
f 66/13 69/14 72/15
f 66/13 72/15 67/16
f 71/29 68/30 67/31
f 71/29 67/31 72/32
f 69/21 66/22 65/23
f 69/21 65/23 70/24
f 73/13 74/14 75/15
f 73/13 75/15 76/16
f 77/13 78/14 79/15
f 77/13 79/15 80/16
f 78/13 73/14 76/15
f 78/13 76/15 79/16
f 74/13 77/14 80/15
f 74/13 80/15 75/16
f 79/29 76/30 75/31
f 79/29 75/31 80/32
f 77/21 74/22 73/23
f 77/21 73/23 78/24
f 81/13 82/14 83/15
f 81/13 83/15 84/16
f 85/13 86/14 87/15
f 85/13 87/15 88/16
f 86/13 81/14 84/15
f 86/13 84/15 87/16
f 82/13 85/14 88/15
f 82/13 88/15 83/16
f 87/29 84/30 83/31
f 87/29 83/31 88/32
f 85/21 82/22 81/23
f 85/21 81/23 86/24
f 89/13 90/14 91/15
f 89/13 91/15 92/16
f 93/13 94/14 95/15
f 93/13 95/15 96/16
f 94/13 89/14 92/15
f 94/13 92/15 95/16
f 90/13 93/14 96/15
f 90/13 96/15 91/16
f 95/29 92/30 91/31
f 95/29 91/31 96/32
f 93/21 90/22 89/23
f 93/21 89/23 94/24
f 97/13 98/14 99/15
f 97/13 99/15 100/16
f 101/13 102/14 103/15
f 101/13 103/15 104/16
f 102/13 97/14 100/15
f 102/13 100/15 103/16
f 98/13 101/14 104/15
f 98/13 104/15 99/16
f 103/29 100/30 99/31
f 103/29 99/31 104/32
f 101/21 98/22 97/23
f 101/21 97/23 102/24
f 105/13 106/14 107/15
f 105/13 107/15 108/16
f 109/13 110/14 111/15
f 109/13 111/15 112/16
f 110/13 105/14 108/15
f 110/13 108/15 111/16
f 106/13 109/14 112/15
f 106/13 112/15 107/16
f 111/29 108/30 107/31
f 111/29 107/31 112/32
f 109/21 106/22 105/23
f 109/21 105/23 110/24
f 113/33 114/34 115/35
f 113/33 115/35 116/36
f 115/35 117/36 118/37
f 115/35 118/37 114/38
f 117/35 119/36 120/33
f 117/35 120/33 118/34
f 119/35 116/36 113/39
f 119/35 113/39 120/40
f 119/41 117/42 115/43
f 119/41 115/43 116/44
f 120/45 118/46 114/47
f 120/45 114/47 113/48
f 121/35 122/36 123/37
f 121/35 123/37 124/40
f 125/35 126/36 127/37
f 125/35 127/37 128/40
f 126/35 121/36 124/37
f 126/35 124/37 127/40
f 122/35 125/36 128/37
f 122/35 128/37 123/40
f 127/47 124/48 123/45
f 127/47 123/45 128/46
f 125/41 122/42 121/43
f 125/41 121/43 126/44
f 129/49 130/50 131/35
f 129/49 131/35 132/36
f 131/35 133/36 134/51
f 131/35 134/51 130/52
f 133/35 135/36 136/49
f 133/35 136/49 134/50
f 135/35 132/36 129/53
f 135/35 129/53 136/54
f 135/41 133/42 131/43
f 135/41 131/43 132/44
f 136/45 134/46 130/47
f 136/45 130/47 129/48
f 137/55 138/56 139/35
f 137/55 139/35 140/36
f 138/57 141/58 142/35
f 138/57 142/35 139/36
f 142/35 143/36 144/55
f 142/35 144/55 141/56
f 143/35 140/36 137/57
f 143/35 137/57 144/58
f 143/41 142/42 139/43
f 143/41 139/43 140/44
f 144/45 141/46 138/47
f 144/45 138/47 137/48
f 145/37 146/40 147/59
f 145/37 147/59 148/60
f 147/35 149/36 150/57
f 147/35 150/57 146/58
f 149/59 151/60 152/37
f 149/59 152/37 150/40
f 152/57 145/58 148/35
f 152/57 148/35 151/36
f 151/41 149/42 147/43
f 151/41 147/43 148/44
f 152/45 150/46 146/47
f 152/45 146/47 145/48
f 153/1 154/2 155/3
f 153/1 155/3 156/4
f 157/1 158/2 159/3
f 157/1 159/3 160/4
f 158/1 153/2 156/3
f 158/1 156/3 159/4
f 154/1 157/2 160/3
f 154/1 160/3 155/4
f 159/5 156/6 155/7
f 159/5 155/7 160/8
f 157/9 154/10 153/11
f 157/9 153/11 158/12
f 161/35 162/36 163/37
f 161/35 163/37 164/40
f 165/35 166/36 167/37
f 165/35 167/37 168/40
f 166/35 161/36 164/37
f 166/35 164/37 167/40
f 162/35 165/36 168/37
f 162/35 168/37 163/40
f 167/47 164/48 163/45
f 167/47 163/45 168/46
f 165/41 162/42 161/43
f 165/41 161/43 166/44
f 169/35 170/36 171/37
f 169/35 171/37 172/40
f 173/35 174/36 175/37
f 173/35 175/37 176/40
f 174/35 169/36 172/37
f 174/35 172/37 175/40
f 170/35 173/36 176/37
f 170/35 176/37 171/40
f 175/47 172/48 171/45
f 175/47 171/45 176/46
f 173/41 170/42 169/43
f 173/41 169/43 174/44
f 177/35 162/36 178/37
f 177/35 178/37 179/40
f 173/35 180/36 181/37
f 173/35 181/37 182/40
f 180/35 177/36 179/37
f 180/35 179/37 181/40
f 162/35 173/36 182/37
f 162/35 182/37 178/40
f 181/47 179/48 178/45
f 181/47 178/45 182/46
f 173/41 162/42 177/43
f 173/41 177/43 180/44
f 183/61 184/62 185/63
f 183/61 185/63 186/64
f 184/65 187/66 188/63
f 184/65 188/63 185/64
f 188/63 189/64 190/61
f 188/63 190/61 187/62
f 190/65 183/66 186/63
f 190/65 186/63 189/64
f 189/67 188/68 185/69
f 189/67 185/69 186/70
f 190/71 187/72 184/73
f 190/71 184/73 183/74
f 191/75 192/76 193/77
f 191/75 193/77 194/78
f 192/79 195/80 196/81
f 192/79 196/81 193/82
f 195/83 197/84 198/85
f 195/83 198/85 196/86
f 197/87 191/88 194/89
f 197/87 194/89 198/90
f 194/91 193/92 199/93
f 194/91 199/93 200/94
f 193/95 196/96 201/97
f 193/95 201/97 199/98
f 196/99 198/100 202/101
f 196/99 202/101 201/102
f 198/103 194/104 200/105
f 198/103 200/105 202/106
f 200/107 199/108 203/109
f 200/107 203/109 204/110
f 199/111 201/112 205/113
f 199/111 205/113 203/114
f 201/115 202/116 206/117
f 201/115 206/117 205/118
f 202/119 200/120 204/121
f 202/119 204/121 206/122
f 204/123 203/124 207/125
f 204/123 207/125 208/126
f 203/127 205/128 209/129
f 203/127 209/129 207/130
f 205/131 206/132 210/133
f 205/131 210/133 209/134
f 206/135 204/136 208/137
f 206/135 208/137 210/138
f 197/139 195/140 192/141
f 197/139 192/141 191/118
f 208/141 207/142 209/143
f 208/141 209/143 210/144
f 211/16 212/13 213/14
f 211/16 213/14 214/15
f 212/16 215/13 216/14
f 212/16 216/14 213/15
f 215/16 217/13 218/14
f 215/16 218/14 216/15
f 217/16 219/13 220/14
f 217/16 220/14 218/15
f 219/16 221/13 222/14
f 219/16 222/14 220/15
f 221/14 223/15 224/16
f 221/14 224/16 222/13
f 223/14 225/15 226/16
f 223/14 226/16 224/13
f 225/14 227/15 228/16
f 225/14 228/16 226/13
f 227/14 229/15 230/16
f 227/14 230/16 228/13
f 229/14 231/15 232/16
f 229/14 232/16 230/13
f 231/14 233/15 234/16
f 231/14 234/16 232/13
f 233/16 211/13 214/14
f 233/16 214/14 234/15
f 233/145 231/146 229/147
f 233/145 229/147 227/148
f 233/145 227/148 225/149
f 233/145 225/149 223/150
f 233/145 223/150 221/151
f 233/145 221/151 219/152
f 233/145 219/152 217/153
f 233/145 217/153 215/154
f 233/145 215/154 212/155
f 233/145 212/155 211/156
f 214/156 213/145 216/146
f 214/156 216/146 218/147
f 214/156 218/147 220/148
f 214/156 220/148 222/149
f 214/156 222/149 224/150
f 214/156 224/150 226/151
f 214/156 226/151 228/152
f 214/156 228/152 230/153
f 214/156 230/153 232/154
f 214/156 232/154 234/155
f 235/157 236/158 237/159
f 235/157 237/159 238/160
f 236/157 239/158 240/159
f 236/157 240/159 237/160
f 239/157 241/158 242/159
f 239/157 242/159 240/160
f 241/157 243/158 244/159
f 241/157 244/159 242/160
f 243/157 245/158 246/159
f 243/157 246/159 244/160
f 245/157 247/158 248/159
f 245/157 248/159 246/160
f 247/157 249/158 250/159
f 247/157 250/159 248/160
f 249/159 251/160 252/157
f 249/159 252/157 250/158
f 251/159 253/160 254/157
f 251/159 254/157 252/158
f 253/159 255/160 256/157
f 253/159 256/157 254/158
f 255/159 257/160 258/157
f 255/159 258/157 256/158
f 257/159 259/160 260/157
f 257/159 260/157 258/158
f 259/159 261/160 262/157
f 259/159 262/157 260/158
f 261/159 263/160 264/157
f 261/159 264/157 262/158
f 263/159 265/160 266/157
f 263/159 266/157 264/158
f 265/157 235/158 238/159
f 265/157 238/159 266/160
f 265/161 263/162 261/163
f 265/161 261/163 259/164
f 265/161 259/164 257/165
f 265/161 257/165 255/166
f 265/161 255/166 253/167
f 265/161 253/167 251/168
f 265/161 251/168 249/169
f 265/161 249/169 247/170
f 265/161 247/170 245/171
f 265/161 245/171 243/172
f 265/161 243/172 241/173
f 265/161 241/173 239/174
f 265/161 239/174 236/175
f 265/161 236/175 235/176
f 238/176 237/161 240/162
f 238/176 240/162 242/163
f 238/176 242/163 244/164
f 238/176 244/164 246/165
f 238/176 246/165 248/166
f 238/176 248/166 250/167
f 238/176 250/167 252/168
f 238/176 252/168 254/169
f 238/176 254/169 256/170
f 238/176 256/170 258/171
f 238/176 258/171 260/172
f 238/176 260/172 262/173
f 238/176 262/173 264/174
f 238/176 264/174 266/175
f 267/16 268/13 269/14
f 267/16 269/14 270/15
f 268/16 271/13 272/14
f 268/16 272/14 269/15
f 271/16 273/13 274/14
f 271/16 274/14 272/15
f 273/16 275/13 276/14
f 273/16 276/14 274/15
f 275/16 277/13 278/14
f 275/16 278/14 276/15
f 277/14 279/15 280/16
f 277/14 280/16 278/13
f 279/14 281/15 282/16
f 279/14 282/16 280/13
f 281/14 283/15 284/16
f 281/14 284/16 282/13
f 283/14 285/15 286/16
f 283/14 286/16 284/13
f 285/14 287/15 288/16
f 285/14 288/16 286/13
f 287/14 289/15 290/16
f 287/14 290/16 288/13
f 289/16 267/13 270/14
f 289/16 270/14 290/15
f 289/177 287/178 285/164
f 289/177 285/164 283/179
f 289/177 283/179 281/180
f 289/177 281/180 279/168
f 289/177 279/168 277/181
f 289/177 277/181 275/182
f 289/177 275/182 273/172
f 289/177 273/172 271/183
f 289/177 271/183 268/184
f 289/177 268/184 267/176
f 270/176 269/177 272/178
f 270/176 272/178 274/164
f 270/176 274/164 276/179
f 270/176 276/179 278/180
f 270/176 278/180 280/168
f 270/176 280/168 282/181
f 270/176 282/181 284/182
f 270/176 284/182 286/172
f 270/176 286/172 288/183
f 270/176 288/183 290/184
f 291/185 292/186 293/187
f 291/185 293/187 294/188
f 292/79 295/189 296/81
f 292/79 296/81 293/190
f 295/191 297/192 298/193
f 295/191 298/193 296/194
f 297/195 291/88 294/196
f 297/195 294/196 298/90
f 294/197 293/198 299/199
f 294/197 299/199 300/200
f 293/95 296/201 301/202
f 293/95 301/202 299/203
f 296/204 298/205 302/206
f 296/204 302/206 301/207
f 298/208 294/104 300/209
f 298/208 300/209 302/210
f 300/211 299/212 303/213
f 300/211 303/213 304/214
f 299/215 301/216 305/217
f 299/215 305/217 303/218
f 301/219 302/220 306/141
f 301/219 306/141 305/221
f 302/222 300/223 304/224
f 302/222 304/224 306/225
f 304/226 303/227 307/228
f 304/226 307/228 308/229
f 303/230 305/231 309/232
f 303/230 309/232 307/233
f 305/234 306/235 310/236
f 305/234 310/236 309/237
f 306/238 304/239 308/240
f 306/238 308/240 310/241
f 297/139 295/140 292/141
f 297/139 292/141 291/118
f 308/242 307/118 309/243
f 308/242 309/243 310/140
f 311/16 312/13 313/14
f 311/16 313/14 314/15
f 312/16 315/13 316/14
f 312/16 316/14 313/15
f 315/16 317/13 318/14
f 315/16 318/14 316/15
f 317/16 319/13 320/14
f 317/16 320/14 318/15
f 319/16 321/13 322/14
f 319/16 322/14 320/15
f 321/14 323/15 324/16
f 321/14 324/16 322/13
f 323/14 325/15 326/16
f 323/14 326/16 324/13
f 325/14 327/15 328/16
f 325/14 328/16 326/13
f 327/14 329/15 330/16
f 327/14 330/16 328/13
f 329/14 331/15 332/16
f 329/14 332/16 330/13
f 331/14 333/15 334/16
f 331/14 334/16 332/13
f 333/16 311/13 314/14
f 333/16 314/14 334/15
f 333/145 331/146 329/147
f 333/145 329/147 327/148
f 333/145 327/148 325/149
f 333/145 325/149 323/150
f 333/145 323/150 321/151
f 333/145 321/151 319/152
f 333/145 319/152 317/153
f 333/145 317/153 315/154
f 333/145 315/154 312/155
f 333/145 312/155 311/156
f 314/156 313/145 316/146
f 314/156 316/146 318/147
f 314/156 318/147 320/148
f 314/156 320/148 322/149
f 314/156 322/149 324/150
f 314/156 324/150 326/151
f 314/156 326/151 328/152
f 314/156 328/152 330/153
f 314/156 330/153 332/154
f 314/156 332/154 334/155
f 335/157 336/158 337/159
f 335/157 337/159 338/160
f 336/157 339/158 340/159
f 336/157 340/159 337/160
f 339/157 341/158 342/159
f 339/157 342/159 340/160
f 341/157 343/158 344/159
f 341/157 344/159 342/160
f 343/157 345/158 346/159
f 343/157 346/159 344/160
f 345/157 347/158 348/159
f 345/157 348/159 346/160
f 347/157 349/158 350/159
f 347/157 350/159 348/160
f 349/159 351/160 352/157
f 349/159 352/157 350/158
f 351/159 353/160 354/157
f 351/159 354/157 352/158
f 353/159 355/160 356/157
f 353/159 356/157 354/158
f 355/159 357/160 358/157
f 355/159 358/157 356/158
f 357/159 359/160 360/157
f 357/159 360/157 358/158
f 359/159 361/160 362/157
f 359/159 362/157 360/158
f 361/159 363/160 364/157
f 361/159 364/157 362/158
f 363/159 365/160 366/157
f 363/159 366/157 364/158
f 365/157 335/158 338/159
f 365/157 338/159 366/160
f 365/161 363/162 361/163
f 365/161 361/163 359/164
f 365/161 359/164 357/165
f 365/161 357/165 355/166
f 365/161 355/166 353/167
f 365/161 353/167 351/168
f 365/161 351/168 349/169
f 365/161 349/169 347/170
f 365/161 347/170 345/171
f 365/161 345/171 343/172
f 365/161 343/172 341/173
f 365/161 341/173 339/174
f 365/161 339/174 336/175
f 365/161 336/175 335/176
f 338/176 337/161 340/162
f 338/176 340/162 342/163
f 338/176 342/163 344/164
f 338/176 344/164 346/165
f 338/176 346/165 348/166
f 338/176 348/166 350/167
f 338/176 350/167 352/168
f 338/176 352/168 354/169
f 338/176 354/169 356/170
f 338/176 356/170 358/171
f 338/176 358/171 360/172
f 338/176 360/172 362/173
f 338/176 362/173 364/174
f 338/176 364/174 366/175
f 367/16 368/13 369/14
f 367/16 369/14 370/15
f 368/16 371/13 372/14
f 368/16 372/14 369/15
f 371/16 373/13 374/14
f 371/16 374/14 372/15
f 373/16 375/13 376/14
f 373/16 376/14 374/15
f 375/16 377/13 378/14
f 375/16 378/14 376/15
f 377/14 379/15 380/16
f 377/14 380/16 378/13
f 379/14 381/15 382/16
f 379/14 382/16 380/13
f 381/14 383/15 384/16
f 381/14 384/16 382/13
f 383/14 385/15 386/16
f 383/14 386/16 384/13
f 385/14 387/15 388/16
f 385/14 388/16 386/13
f 387/14 389/15 390/16
f 387/14 390/16 388/13
f 389/16 367/13 370/14
f 389/16 370/14 390/15
f 389/177 387/178 385/164
f 389/177 385/164 383/179
f 389/177 383/179 381/180
f 389/177 381/180 379/168
f 389/177 379/168 377/181
f 389/177 377/181 375/182
f 389/177 375/182 373/172
f 389/177 373/172 371/183
f 389/177 371/183 368/184
f 389/177 368/184 367/176
f 370/176 369/177 372/178
f 370/176 372/178 374/164
f 370/176 374/164 376/179
f 370/176 376/179 378/180
f 370/176 378/180 380/168
f 370/176 380/168 382/181
f 370/176 382/181 384/182
f 370/176 384/182 386/172
f 370/176 386/172 388/183
f 370/176 388/183 390/184
f 391/244 392/245 393/246
f 391/244 393/246 394/247
f 392/248 395/249 396/250
f 392/248 396/250 393/251
f 395/252 397/253 398/254
f 395/252 398/254 396/255
f 397/256 391/257 394/258
f 397/256 394/258 398/259
f 397/260 395/261 392/262
f 397/260 392/262 391/263
f 394/264 393/263 396/265
f 394/264 396/265 398/266
f 399/267 400/268 401/269
f 399/267 401/269 402/270
f 400/248 403/249 404/250
f 400/248 404/250 401/251
f 403/271 405/272 406/273
f 403/271 406/273 404/274
f 405/256 399/257 402/258
f 405/256 402/258 406/259
f 405/265 403/266 400/264
f 405/265 400/264 399/275
f 402/276 401/275 404/277
f 402/276 404/277 406/261
f 407/278 408/279 409/280
f 407/278 409/280 410/281
f 408/282 411/283 412/284
f 408/282 412/284 409/285
f 411/286 413/287 414/288
f 411/286 414/288 412/289
f 413/290 407/291 410/292
f 413/290 410/292 414/293
f 413/294 411/295 408/296
f 413/294 408/296 407/297
f 410/296 409/298 412/299
f 410/296 412/299 414/295
f 415/300 416/301 417/302
f 415/300 417/302 418/303
f 416/282 419/283 420/284
f 416/282 420/284 417/285
f 419/304 421/305 422/306
f 419/304 422/306 420/307
f 421/290 415/291 418/292
f 421/290 418/292 422/293
f 421/299 419/308 416/309
f 421/299 416/309 415/310
f 418/296 417/298 420/294
f 418/296 420/294 422/295
f 423/35 424/36 425/311
f 423/35 425/311 426/312
f 424/35 427/36 428/313
f 424/35 428/313 425/314
f 428/311 429/312 430/35
f 428/311 430/35 427/36
f 430/35 423/36 426/315
f 430/35 426/315 429/316
f 430/41 427/42 424/43
f 430/41 424/43 423/44
f 429/45 428/46 425/47
f 429/45 425/47 426/48
f 431/1 432/2 433/317
f 431/1 433/317 434/318
f 432/1 435/2 436/319
f 432/1 436/319 433/320
f 436/317 437/318 438/1
f 436/317 438/1 435/2
f 438/1 431/2 434/319
f 438/1 434/319 437/320
f 438/9 435/10 432/11
f 438/9 432/11 431/12
f 437/7 436/8 433/5
f 437/7 433/5 434/6
f 439/25 440/26 441/27
f 439/25 441/27 442/28
f 443/1 444/2 445/3
f 443/1 445/3 446/4
f 444/1 439/2 442/3
f 444/1 442/3 445/4
f 440/1 443/2 446/3
f 440/1 446/3 441/4
f 445/5 442/6 441/7
f 445/5 441/7 446/8
f 443/9 440/10 439/11
f 443/9 439/11 444/12
f 447/1 448/2 449/3
f 447/1 449/3 450/4
f 451/25 452/26 453/27
f 451/25 453/27 454/28
f 452/1 447/2 450/3
f 452/1 450/3 453/4
f 448/1 451/2 454/3
f 448/1 454/3 449/4
f 453/5 450/6 449/7
f 453/5 449/7 454/8
f 451/9 448/10 447/11
f 451/9 447/11 452/12
f 455/13 456/14 457/15
f 455/13 457/15 458/16
f 459/13 460/14 461/15
f 459/13 461/15 462/16
f 460/13 455/14 458/15
f 460/13 458/15 461/16
f 456/13 459/14 462/15
f 456/13 462/15 457/16
f 461/29 458/30 457/31
f 461/29 457/31 462/32
f 459/21 456/22 455/23
f 459/21 455/23 460/24
f 463/13 464/14 465/15
f 463/13 465/15 466/16
f 467/13 468/14 469/15
f 467/13 469/15 470/16
f 468/13 463/14 466/15
f 468/13 466/15 469/16
f 464/13 467/14 470/15
f 464/13 470/15 465/16
f 469/17 466/18 465/19
f 469/17 465/19 470/20
f 467/21 464/22 463/23
f 467/21 463/23 468/24
f 471/321 472/322 473/323
f 471/321 473/323 474/324
f 475/35 476/36 477/37
f 475/35 477/37 478/40
f 476/35 471/36 474/37
f 476/35 474/37 477/40
f 472/35 475/36 478/37
f 472/35 478/37 473/40
f 477/47 474/48 473/45
f 477/47 473/45 478/46
f 475/41 472/42 471/43
f 475/41 471/43 476/44
f 479/35 480/36 481/37
f 479/35 481/37 482/40
f 483/35 484/36 485/37
f 483/35 485/37 486/40
f 484/35 479/36 482/37
f 484/35 482/37 485/40
f 480/35 483/36 486/37
f 480/35 486/37 481/40
f 485/47 482/48 481/45
f 485/47 481/45 486/46
f 483/41 480/42 479/43
f 483/41 479/43 484/44
f 487/35 488/36 489/37
f 487/35 489/37 490/40
f 491/35 492/36 493/37
f 491/35 493/37 494/40
f 492/35 487/36 490/37
f 492/35 490/37 493/40
f 488/35 491/36 494/37
f 488/35 494/37 489/40
f 493/47 490/48 489/45
f 493/47 489/45 494/46
f 491/41 488/42 487/43
f 491/41 487/43 492/44
f 495/35 496/36 497/37
f 495/35 497/37 498/40
f 499/35 500/36 501/37
f 499/35 501/37 502/40
f 500/35 495/36 498/37
f 500/35 498/37 501/40
f 496/35 499/36 502/37
f 496/35 502/37 497/40
f 501/47 498/48 497/45
f 501/47 497/45 502/46
f 499/41 496/42 495/43
f 499/41 495/43 500/44
f 503/35 504/36 505/37
f 503/35 505/37 506/40
f 507/35 508/36 509/37
f 507/35 509/37 510/40
f 508/35 503/36 506/37
f 508/35 506/37 509/40
f 504/35 507/36 510/37
f 504/35 510/37 505/40
f 509/47 506/48 505/45
f 509/47 505/45 510/46
f 507/41 504/42 503/43
f 507/41 503/43 508/44
f 511/13 512/14 513/15
f 511/13 513/15 514/16
f 512/325 515/14 516/326
f 512/325 516/326 513/16
f 516/15 517/16 518/13
f 516/15 518/13 515/14
f 518/13 511/327 514/15
f 518/13 514/15 517/328
f 518/21 515/22 512/23
f 518/21 512/23 511/24
f 517/31 516/32 513/29
f 517/31 513/29 514/30
f 519/329 520/330 521/331
f 519/329 521/331 522/332
f 520/329 523/330 524/331
f 520/329 524/331 521/332
f 523/329 525/330 526/331
f 523/329 526/331 524/332
f 525/331 527/332 528/329
f 525/331 528/329 526/330
f 527/331 529/332 530/329
f 527/331 530/329 528/330
f 529/331 531/332 532/329
f 529/331 532/329 530/330
f 531/331 533/332 534/329
f 531/331 534/329 532/330
f 533/329 519/330 522/331
f 533/329 522/331 534/332
f 533/333 531/334 529/335
f 533/333 529/335 527/336
f 533/333 527/336 525/337
f 533/333 525/337 523/338
f 533/333 523/338 520/339
f 533/333 520/339 519/340
f 522/340 521/333 524/334
f 522/340 524/334 526/335
f 522/340 526/335 528/336
f 522/340 528/336 530/337
f 522/340 530/337 532/338
f 522/340 532/338 534/339
f 535/329 536/330 537/331
f 535/329 537/331 538/332
f 536/329 539/330 540/331
f 536/329 540/331 537/332
f 539/329 541/330 542/331
f 539/329 542/331 540/332
f 541/331 543/332 544/329
f 541/331 544/329 542/330
f 543/331 545/332 546/329
f 543/331 546/329 544/330
f 545/331 547/332 548/329
f 545/331 548/329 546/330
f 547/331 549/332 550/329
f 547/331 550/329 548/330
f 549/329 535/330 538/331
f 549/329 538/331 550/332
f 549/333 547/334 545/335
f 549/333 545/335 543/336
f 549/333 543/336 541/337
f 549/333 541/337 539/338
f 549/333 539/338 536/339
f 549/333 536/339 535/340
f 538/340 537/333 540/334
f 538/340 540/334 542/335
f 538/340 542/335 544/336
f 538/340 544/336 546/337
f 538/340 546/337 548/338
f 538/340 548/338 550/339
f 551/329 552/330 553/331
f 551/329 553/331 554/332
f 552/329 555/330 556/331
f 552/329 556/331 553/332
f 555/329 557/330 558/331
f 555/329 558/331 556/332
f 557/331 559/332 560/329
f 557/331 560/329 558/330
f 559/331 561/332 562/329
f 559/331 562/329 560/330
f 561/331 563/332 564/329
f 561/331 564/329 562/330
f 563/331 565/332 566/329
f 563/331 566/329 564/330
f 565/329 551/330 554/331
f 565/329 554/331 566/332
f 565/333 563/334 561/335
f 565/333 561/335 559/336
f 565/333 559/336 557/337
f 565/333 557/337 555/338
f 565/333 555/338 552/339
f 565/333 552/339 551/340
f 554/340 553/333 556/334
f 554/340 556/334 558/335
f 554/340 558/335 560/336
f 554/340 560/336 562/337
f 554/340 562/337 564/338
f 554/340 564/338 566/339
f 567/329 568/330 569/331
f 567/329 569/331 570/332
f 568/329 571/330 572/331
f 568/329 572/331 569/332
f 571/329 573/330 574/331
f 571/329 574/331 572/332
f 573/331 575/332 576/329
f 573/331 576/329 574/330
f 575/331 577/332 578/329
f 575/331 578/329 576/330
f 577/331 579/332 580/329
f 577/331 580/329 578/330
f 579/331 581/332 582/329
f 579/331 582/329 580/330
f 581/329 567/330 570/331
f 581/329 570/331 582/332
f 581/333 579/334 577/335
f 581/333 577/335 575/336
f 581/333 575/336 573/337
f 581/333 573/337 571/338
f 581/333 571/338 568/339
f 581/333 568/339 567/340
f 570/340 569/333 572/334
f 570/340 572/334 574/335
f 570/340 574/335 576/336
f 570/340 576/336 578/337
f 570/340 578/337 580/338
f 570/340 580/338 582/339
f 583/341 584/342 585/343
f 583/341 585/343 586/344
f 584/345 587/64 588/346
f 584/345 588/346 585/344
f 588/343 589/344 590/341
f 588/343 590/341 587/342
f 590/63 583/347 586/343
f 590/63 586/343 589/348
f 590/349 587/350 584/351
f 590/349 584/351 583/352
f 586/353 585/354 588/355
f 586/353 588/355 589/356
f 591/357 592/358 593/359
f 591/357 593/359 594/360
f 595/63 596/64 597/343
f 595/63 597/343 598/344
f 596/63 591/64 594/343
f 596/63 594/343 597/344
f 592/63 595/64 598/343
f 592/63 598/343 593/344
f 597/353 594/354 593/355
f 597/353 593/355 598/356
f 595/67 592/68 591/69
f 595/67 591/69 596/70
f 599/63 600/64 601/343
f 599/63 601/343 602/344
f 603/357 604/358 605/359
f 603/357 605/359 606/360
f 604/63 599/64 602/343
f 604/63 602/343 605/344
f 600/63 603/64 606/343
f 600/63 606/343 601/344
f 605/353 602/354 601/355
f 605/353 601/355 606/356
f 603/67 600/68 599/69
f 603/67 599/69 604/70
f 607/1 608/2 609/3
f 607/1 609/3 610/4
f 611/1 612/2 613/3
f 611/1 613/3 614/4
f 612/1 607/2 610/3
f 612/1 610/3 613/4
f 608/1 611/2 614/3
f 608/1 614/3 609/4
f 613/5 610/6 609/7
f 613/5 609/7 614/8
f 611/9 608/10 607/11
f 611/9 607/11 612/12
f 615/1 616/2 617/3
f 615/1 617/3 618/4
f 616/361 619/2 620/362
f 616/361 620/362 617/363
f 620/364 621/365 622/1
f 620/364 622/1 619/2
f 622/1 615/366 618/367
f 622/1 618/367 621/368
f 622/9 619/10 616/11
f 622/9 616/11 615/12
f 621/369 620/370 617/5
f 621/369 617/5 618/6
f 623/63 624/64 625/371
f 623/63 625/371 626/372
f 625/373 627/374 628/63
f 625/373 628/63 624/64
f 627/371 629/372 630/63
f 627/371 630/63 628/64
f 629/375 626/376 623/63
f 629/375 623/63 630/64
f 630/67 628/68 624/69
f 630/67 624/69 623/70
f 629/355 627/356 625/353
f 629/355 625/353 626/354
f 631/377 632/378 633/379
f 631/377 633/379 634/380
f 632/377 635/381 636/382
f 632/377 636/382 633/383
f 636/379 637/380 638/377
f 636/379 638/377 635/378
f 638/384 631/378 634/385
f 638/384 634/385 637/386
f 638/349 635/350 632/351
f 638/349 632/351 631/352
f 637/387 636/388 633/389
f 637/387 633/389 634/390
f 639/73 640/74 641/71
f 639/73 641/71 642/72
f 643/35 644/36 645/37
f 643/35 645/37 646/40
f 644/35 639/36 642/37
f 644/35 642/37 645/40
f 640/35 643/36 646/37
f 640/35 646/37 641/40
f 645/47 642/48 641/45
f 645/47 641/45 646/46
f 643/41 640/42 639/43
f 643/41 639/43 644/44
f 647/35 648/36 649/37
f 647/35 649/37 650/40
f 651/73 652/74 653/71
f 651/73 653/71 654/72
f 652/35 647/36 650/37
f 652/35 650/37 653/40
f 648/35 651/36 654/37
f 648/35 654/37 649/40
f 653/47 650/48 649/45
f 653/47 649/45 654/46
f 651/41 648/42 647/43
f 651/41 647/43 652/44
f 655/391 656/392 657/393
f 655/391 657/393 658/394
f 656/391 659/392 660/393
f 656/391 660/393 657/394
f 659/391 661/392 662/393
f 659/391 662/393 660/394
f 661/391 663/392 664/393
f 661/391 664/393 662/394
f 663/391 665/392 666/393
f 663/391 666/393 664/394
f 665/393 667/394 668/391
f 665/393 668/391 666/392
f 667/393 669/394 670/391
f 667/393 670/391 668/392
f 669/393 671/394 672/391
f 669/393 672/391 670/392
f 671/393 673/394 674/391
f 671/393 674/391 672/392
f 673/393 675/394 676/391
f 673/393 676/391 674/392
f 675/393 677/394 678/391
f 675/393 678/391 676/392
f 677/391 655/392 658/393
f 677/391 658/393 678/394
f 677/177 675/178 673/164
f 677/177 673/164 671/179
f 677/177 671/179 669/180
f 677/177 669/180 667/168
f 677/177 667/168 665/181
f 677/177 665/181 663/182
f 677/177 663/182 661/172
f 677/177 661/172 659/183
f 677/177 659/183 656/184
f 677/177 656/184 655/176
f 658/176 657/177 660/178
f 658/176 660/178 662/164
f 658/176 662/164 664/179
f 658/176 664/179 666/180
f 658/176 666/180 668/168
f 658/176 668/168 670/181
f 658/176 670/181 672/182
f 658/176 672/182 674/172
f 658/176 674/172 676/183
f 658/176 676/183 678/184
f 679/35 680/36 681/37
f 679/35 681/37 682/40
f 683/35 684/36 685/37
f 683/35 685/37 686/40
f 684/35 679/36 682/37
f 684/35 682/37 685/40
f 680/35 683/36 686/37
f 680/35 686/37 681/40
f 685/47 682/48 681/45
f 685/47 681/45 686/46
f 683/41 680/42 679/43
f 683/41 679/43 684/44
f 687/395 688/396 689/397
f 687/395 689/397 690/398
f 688/395 691/396 692/397
f 688/395 692/397 689/398
f 691/395 693/396 694/397
f 691/395 694/397 692/398
f 693/396 695/397 696/398
f 693/396 696/398 694/395
f 695/396 697/397 698/398
f 695/396 698/398 696/395
f 697/397 699/398 700/395
f 697/397 700/395 698/396
f 699/397 701/398 702/395
f 699/397 702/395 700/396
f 701/397 703/398 704/395
f 701/397 704/395 702/396
f 703/397 705/398 706/395
f 703/397 706/395 704/396
f 705/397 707/398 708/395
f 705/397 708/395 706/396
f 707/397 709/398 710/395
f 707/397 710/395 708/396
f 709/396 711/397 712/398
f 709/396 712/398 710/395
f 711/396 713/397 714/398
f 711/396 714/398 712/395
f 713/395 715/396 716/397
f 713/395 716/397 714/398
f 715/395 717/396 718/397
f 715/395 718/397 716/398
f 717/395 687/396 690/397
f 717/395 690/397 718/398
f 719/399 720/400 721/401
f 719/399 721/401 722/398
f 720/402 723/403 724/404
f 720/402 724/404 721/405
f 723/406 725/407 726/408
f 723/406 726/408 724/409
f 725/410 727/411 728/398
f 725/410 728/398 726/395
f 727/410 729/411 730/398
f 727/410 730/398 728/395
f 729/412 731/413 732/414
f 729/412 732/414 730/415
f 731/416 733/417 734/418
f 731/416 734/418 732/419
f 733/420 735/421 736/395
f 733/420 736/395 734/422
f 735/423 737/424 738/425
f 735/423 738/425 736/426
f 737/427 739/428 740/429
f 737/427 740/429 738/430
f 739/431 741/432 742/433
f 739/431 742/433 740/434
f 741/435 743/411 744/398
f 741/435 744/398 742/395
f 743/410 745/411 746/398
f 743/410 746/398 744/395
f 745/436 747/437 748/438
f 745/436 748/438 746/439
f 747/440 749/441 750/442
f 747/440 750/442 748/443
f 749/444 719/445 722/397
f 749/444 722/397 750/446
f 722/395 721/447 751/448
f 722/395 751/448 752/449
f 721/450 724/451 753/452
f 721/450 753/452 751/453
f 724/454 726/455 754/456
f 724/454 754/456 753/457
f 726/396 728/397 755/458
f 726/396 755/458 754/459
f 728/426 730/397 756/458
f 728/426 756/458 755/460
f 730/461 732/462 757/463
f 730/461 757/463 756/464
f 732/465 734/466 758/467
f 732/465 758/467 757/468
f 734/469 736/398 759/470
f 734/469 759/470 758/471
f 736/397 738/472 760/473
f 736/397 760/473 759/474
f 738/475 740/476 761/477
f 738/475 761/477 760/478
f 740/479 742/480 762/481
f 740/479 762/481 761/482
f 742/396 744/397 763/458
f 742/396 763/458 762/460
f 744/396 746/397 764/458
f 744/396 764/458 763/460
f 746/483 748/484 765/485
f 746/483 765/485 764/486
f 748/487 750/488 766/489
f 748/487 766/489 765/490
f 750/491 722/396 752/492
f 750/491 752/492 766/493
f 767/395 768/396 769/397
f 767/395 769/397 770/398
f 768/395 771/396 772/397
f 768/395 772/397 769/398
f 771/395 773/396 774/397
f 771/395 774/397 772/398
f 773/396 775/397 776/398
f 773/396 776/398 774/395
f 775/396 777/397 778/398
f 775/396 778/398 776/395
f 777/397 779/398 780/395
f 777/397 780/395 778/396
f 779/397 781/398 782/395
f 779/397 782/395 780/396
f 781/397 783/398 784/395
f 781/397 784/395 782/396
f 783/397 785/398 786/395
f 783/397 786/395 784/396
f 785/397 787/398 788/395
f 785/397 788/395 786/396
f 787/397 789/398 790/395
f 787/397 790/395 788/396
f 789/396 791/397 792/398
f 789/396 792/398 790/395
f 791/396 793/397 794/398
f 791/396 794/398 792/395
f 793/395 795/396 796/397
f 793/395 796/397 794/398
f 795/395 797/396 798/397
f 795/395 798/397 796/398
f 797/395 767/396 770/397
f 797/395 770/397 798/398
f 770/494 769/495 772/496
f 770/494 772/496 774/497
f 770/494 774/497 776/498
f 770/494 776/498 778/499
f 770/494 778/499 780/500
f 770/494 780/500 782/501
f 770/494 782/501 784/502
f 770/494 784/502 786/503
f 770/494 786/503 788/504
f 770/494 788/504 790/505
f 770/494 790/505 792/506
f 770/494 792/506 794/507
f 770/494 794/507 796/508
f 770/494 796/508 798/509
f 799/510 800/511 801/512
f 799/510 801/512 802/513
f 800/514 803/515 804/516
f 800/514 804/516 801/517
f 803/518 805/519 806/520
f 803/518 806/520 804/521
f 805/396 807/397 808/522
f 805/396 808/522 806/523
f 807/396 809/397 810/522
f 807/396 810/522 808/523
f 809/524 811/525 812/526
f 809/524 812/526 810/527
f 811/528 813/529 814/530
f 811/528 814/530 812/531
f 813/532 815/533 816/534
f 813/532 816/534 814/535
f 815/397 817/536 818/537
f 815/397 818/537 816/538
f 817/539 819/540 820/541
f 817/539 820/541 818/542
f 819/543 821/544 822/545
f 819/543 822/545 820/546
f 821/396 823/397 824/522
f 821/396 824/522 822/523
f 823/396 825/397 826/522
f 823/396 826/522 824/523
f 825/547 827/548 828/549
f 825/547 828/549 826/550
f 827/551 829/552 830/553
f 827/551 830/553 828/554
f 829/555 799/426 802/556
f 829/555 802/556 830/557
f 829/558 827/559 825/560
f 829/558 825/560 823/561
f 829/558 823/561 821/562
f 829/558 821/562 819/563
f 829/558 819/563 817/564
f 829/558 817/564 815/565
f 829/558 815/565 813/566
f 829/558 813/566 811/567
f 829/558 811/567 809/568
f 829/558 809/568 807/569
f 829/558 807/569 805/570
f 829/558 805/570 803/571
f 829/558 803/571 800/572
f 829/558 800/572 799/573
f 831/378 832/574 833/575
f 831/378 833/575 834/576
f 832/577 835/578 836/579
f 832/577 836/579 833/580
f 835/581 837/582 838/583
f 835/581 838/583 836/584
f 837/382 839/386 840/585
f 837/382 840/585 838/586
f 839/382 841/386 842/585
f 839/382 842/585 840/586
f 841/587 843/588 844/589
f 841/587 844/589 842/590
f 843/591 845/592 846/593
f 843/591 846/593 844/594
f 845/595 847/377 848/596
f 845/595 848/596 846/597
f 847/386 849/598 850/599
f 847/386 850/599 848/600
f 849/601 851/602 852/603
f 849/601 852/603 850/604
f 851/605 853/606 854/607
f 851/605 854/607 852/608
f 853/382 855/386 856/585
f 853/382 856/585 854/586
f 855/382 857/386 858/585
f 855/382 858/585 856/586
f 857/609 859/610 860/611
f 857/609 860/611 858/612
f 859/613 861/614 862/615
f 859/613 862/615 860/616
f 861/617 831/382 834/618
f 861/617 834/618 862/619
f 861/620 859/621 857/622
f 861/620 857/622 855/623
f 861/620 855/623 853/624
f 861/620 853/624 851/625
f 861/620 851/625 849/626
f 861/620 849/626 847/627
f 861/620 847/627 845/628
f 861/620 845/628 843/629
f 861/620 843/629 841/630
f 861/620 841/630 839/631
f 861/620 839/631 837/632
f 861/620 837/632 835/633
f 861/620 835/633 832/634
f 861/620 832/634 831/635
f 863/636 864/637 865/638
f 863/636 865/638 866/639
f 864/636 867/637 868/638
f 864/636 868/638 865/639
f 867/636 869/637 870/638
f 867/636 870/638 868/639
f 869/637 871/638 872/639
f 869/637 872/639 870/636
f 871/637 873/638 874/639
f 871/637 874/639 872/636
f 873/638 875/639 876/636
f 873/638 876/636 874/637
f 875/638 877/639 878/636
f 875/638 878/636 876/637
f 877/638 879/639 880/636
f 877/638 880/636 878/637
f 879/638 881/639 882/636
f 879/638 882/636 880/637
f 881/638 883/639 884/636
f 881/638 884/636 882/637
f 883/638 885/639 886/636
f 883/638 886/636 884/637
f 885/637 887/638 888/639
f 885/637 888/639 886/636
f 887/637 889/638 890/639
f 887/637 890/639 888/636
f 889/636 891/637 892/638
f 889/636 892/638 890/639
f 891/636 893/637 894/638
f 891/636 894/638 892/639
f 893/636 863/637 866/638
f 893/636 866/638 894/639
f 893/640 891/641 889/642
f 893/640 889/642 887/643
f 893/640 887/643 885/644
f 893/640 885/644 883/645
f 893/640 883/645 881/646
f 893/640 881/646 879/647
f 893/640 879/647 877/648
f 893/640 877/648 875/649
f 893/640 875/649 873/650
f 893/640 873/650 871/651
f 893/640 871/651 869/652
f 893/640 869/652 867/653
f 893/640 867/653 864/654
f 893/640 864/654 863/655
f 866/647 865/648 868/649
f 866/647 868/649 870/650
f 866/647 870/650 872/651
f 866/647 872/651 874/652
f 866/647 874/652 876/653
f 866/647 876/653 878/654
f 866/647 878/654 880/655
f 866/647 880/655 882/640
f 866/647 882/640 884/641
f 866/647 884/641 886/642
f 866/647 886/642 888/643
f 866/647 888/643 890/644
f 866/647 890/644 892/645
f 866/647 892/645 894/646
f 895/637 896/638 897/639
f 895/637 897/639 898/636
f 896/637 899/638 900/639
f 896/637 900/639 897/636
f 899/637 901/638 902/639
f 899/637 902/639 900/636
f 901/637 903/638 904/639
f 901/637 904/639 902/636
f 903/637 905/638 906/639
f 903/637 906/639 904/636
f 905/637 907/638 908/639
f 905/637 908/639 906/636
f 907/637 909/638 910/639
f 907/637 910/639 908/636
f 909/637 911/638 912/639
f 909/637 912/639 910/636
f 911/637 913/638 914/639
f 911/637 914/639 912/636
f 913/637 915/638 916/639
f 913/637 916/639 914/636
f 915/637 917/638 918/639
f 915/637 918/639 916/636
f 917/637 895/638 898/639
f 917/637 898/639 918/636
f 898/656 897/657 900/658
f 898/656 900/658 902/659
f 898/656 902/659 904/660
f 898/656 904/660 906/661
f 898/656 906/661 908/662
f 898/656 908/662 910/663
f 898/656 910/663 912/664
f 898/656 912/664 914/665
f 898/656 914/665 916/666
f 898/656 916/666 918/667
f 917/663 915/664 913/665
f 917/663 913/665 911/666
f 917/663 911/666 909/667
f 917/663 909/667 907/656
f 917/663 907/656 905/657
f 917/663 905/657 903/658
f 917/663 903/658 901/659
f 917/663 901/659 899/660
f 917/663 899/660 896/661
f 917/663 896/661 895/662
f 919/638 920/639 921/636
f 919/638 921/636 922/637
f 920/638 923/639 924/636
f 920/638 924/636 921/637
f 923/638 925/639 926/636
f 923/638 926/636 924/637
f 925/638 927/639 928/636
f 925/638 928/636 926/637
f 927/638 929/639 930/636
f 927/638 930/636 928/637
f 929/636 931/637 932/638
f 929/636 932/638 930/639
f 931/636 933/637 934/638
f 931/636 934/638 932/639
f 933/636 935/637 936/638
f 933/636 936/638 934/639
f 935/636 937/637 938/638
f 935/636 938/638 936/639
f 937/636 939/637 940/638
f 937/636 940/638 938/639
f 939/636 941/637 942/638
f 939/636 942/638 940/639
f 941/638 919/639 922/636
f 941/638 922/636 942/637
f 941/666 939/667 937/656
f 941/666 937/656 935/657
f 941/666 935/657 933/658
f 941/666 933/658 931/659
f 941/666 931/659 929/660
f 941/666 929/660 927/661
f 941/666 927/661 925/662
f 941/666 925/662 923/663
f 941/666 923/663 920/664
f 941/666 920/664 919/665
f 922/665 921/666 924/667
f 922/665 924/667 926/656
f 922/665 926/656 928/657
f 922/665 928/657 930/658
f 922/665 930/658 932/659
f 922/665 932/659 934/660
f 922/665 934/660 936/661
f 922/665 936/661 938/662
f 922/665 938/662 940/663
f 922/665 940/663 942/664
f 943/638 944/639 945/636
f 943/638 945/636 946/637
f 944/638 947/639 948/636
f 944/638 948/636 945/637
f 947/638 949/639 950/636
f 947/638 950/636 948/637
f 949/638 951/639 952/636
f 949/638 952/636 950/637
f 951/638 953/639 954/636
f 951/638 954/636 952/637
f 953/636 955/637 956/638
f 953/636 956/638 954/639
f 955/636 957/637 958/638
f 955/636 958/638 956/639
f 957/636 959/637 960/638
f 957/636 960/638 958/639
f 959/636 961/637 962/638
f 959/636 962/638 960/639
f 961/636 963/637 964/638
f 961/636 964/638 962/639
f 963/636 965/637 966/638
f 963/636 966/638 964/639
f 965/638 943/639 946/636
f 965/638 946/636 966/637
f 965/666 963/667 961/656
f 965/666 961/656 959/657
f 965/666 959/657 957/658
f 965/666 957/658 955/659
f 965/666 955/659 953/660
f 965/666 953/660 951/661
f 965/666 951/661 949/662
f 965/666 949/662 947/663
f 965/666 947/663 944/664
f 965/666 944/664 943/665
f 946/665 945/666 948/667
f 946/665 948/667 950/656
f 946/665 950/656 952/657
f 946/665 952/657 954/658
f 946/665 954/658 956/659
f 946/665 956/659 958/660
f 946/665 958/660 960/661
f 946/665 960/661 962/662
f 946/665 962/662 964/663
f 946/665 964/663 966/664
f 967/35 968/36 969/37
f 967/35 969/37 970/40
f 971/35 972/36 973/37
f 971/35 973/37 974/40
f 972/35 967/36 970/37
f 972/35 970/37 973/40
f 968/35 971/36 974/37
f 968/35 974/37 969/40
f 973/47 970/48 969/45
f 973/47 969/45 974/46
f 971/41 968/42 967/43
f 971/41 967/43 972/44
f 975/330 976/331 977/332
f 975/330 977/332 978/329
f 979/330 980/331 981/332
f 979/330 981/332 982/329
f 980/330 975/331 978/332
f 980/330 978/332 981/329
f 976/330 979/331 982/332
f 976/330 982/332 977/329
f 981/668 978/669 977/670
f 981/668 977/670 982/671
f 979/672 976/673 975/674
f 979/672 975/674 980/675
f 983/330 984/331 985/332
f 983/330 985/332 986/329
f 987/330 988/331 989/332
f 987/330 989/332 990/329
f 988/330 983/331 986/332
f 988/330 986/332 989/329
f 984/330 987/331 990/332
f 984/330 990/332 985/329
f 989/668 986/669 985/670
f 989/668 985/670 990/671
f 987/672 984/673 983/674
f 987/672 983/674 988/675
f 991/35 992/36 993/37
f 991/35 993/37 994/40
f 995/35 996/36 997/37
f 995/35 997/37 998/40
f 996/35 991/36 994/37
f 996/35 994/37 997/40
f 992/35 995/36 998/37
f 992/35 998/37 993/40
f 997/47 994/48 993/45
f 997/47 993/45 998/46
f 995/41 992/42 991/43
f 995/41 991/43 996/44
f 999/330 1000/331 1001/332
f 999/330 1001/332 1002/329
f 1003/330 1004/331 1005/332
f 1003/330 1005/332 1006/329
f 1004/330 999/331 1002/332
f 1004/330 1002/332 1005/329
f 1000/330 1003/331 1006/332
f 1000/330 1006/332 1001/329
f 1005/668 1002/669 1001/670
f 1005/668 1001/670 1006/671
f 1003/672 1000/673 999/674
f 1003/672 999/674 1004/675
f 1007/330 1008/331 1009/332
f 1007/330 1009/332 1010/329
f 1011/330 1012/331 1013/332
f 1011/330 1013/332 1014/329
f 1012/330 1007/331 1010/332
f 1012/330 1010/332 1013/329
f 1008/330 1011/331 1014/332
f 1008/330 1014/332 1009/329
f 1013/668 1010/669 1009/670
f 1013/668 1009/670 1014/671
f 1011/672 1008/673 1007/674
f 1011/672 1007/674 1012/675
f 1015/13 1016/14 1017/15
f 1015/13 1017/15 1018/16
f 1019/13 1020/14 1021/15
f 1019/13 1021/15 1022/16
f 1020/13 1015/14 1018/15
f 1020/13 1018/15 1021/16
f 1016/13 1019/14 1022/15
f 1016/13 1022/15 1017/16
f 1021/29 1018/30 1017/31
f 1021/29 1017/31 1022/32
f 1019/21 1016/22 1015/23
f 1019/21 1015/23 1020/24
f 1023/13 1024/14 1025/15
f 1023/13 1025/15 1026/16
f 1027/13 1028/14 1029/15
f 1027/13 1029/15 1030/16
f 1028/13 1023/14 1026/15
f 1028/13 1026/15 1029/16
f 1024/13 1027/14 1030/15
f 1024/13 1030/15 1025/16
f 1029/29 1026/30 1025/31
f 1029/29 1025/31 1030/32
f 1027/21 1024/22 1023/23
f 1027/21 1023/23 1028/24
f 1031/13 1032/14 1033/15
f 1031/13 1033/15 1034/16
f 1035/13 1036/14 1037/15
f 1035/13 1037/15 1038/16
f 1036/13 1031/14 1034/15
f 1036/13 1034/15 1037/16
f 1032/13 1035/14 1038/15
f 1032/13 1038/15 1033/16
f 1037/29 1034/30 1033/31
f 1037/29 1033/31 1038/32
f 1035/21 1032/22 1031/23
f 1035/21 1031/23 1036/24
f 1039/13 1040/14 1041/15
f 1039/13 1041/15 1042/16
f 1043/13 1044/14 1045/15
f 1043/13 1045/15 1046/16
f 1044/13 1039/14 1042/15
f 1044/13 1042/15 1045/16
f 1040/13 1043/14 1046/15
f 1040/13 1046/15 1041/16
f 1045/29 1042/30 1041/31
f 1045/29 1041/31 1046/32
f 1043/21 1040/22 1039/23
f 1043/21 1039/23 1044/24
f 1047/13 1048/14 1049/15
f 1047/13 1049/15 1050/16
f 1051/13 1052/14 1053/15
f 1051/13 1053/15 1054/16
f 1052/13 1047/14 1050/15
f 1052/13 1050/15 1053/16
f 1048/13 1051/14 1054/15
f 1048/13 1054/15 1049/16
f 1053/29 1050/30 1049/31
f 1053/29 1049/31 1054/32
f 1051/21 1048/22 1047/23
f 1051/21 1047/23 1052/24
f 1055/13 1056/14 1057/15
f 1055/13 1057/15 1058/16
f 1059/13 1060/14 1061/15
f 1059/13 1061/15 1062/16
f 1060/13 1055/14 1058/15
f 1060/13 1058/15 1061/16
f 1056/13 1059/14 1062/15
f 1056/13 1062/15 1057/16
f 1061/29 1058/30 1057/31
f 1061/29 1057/31 1062/32
f 1059/21 1056/22 1055/23
f 1059/21 1055/23 1060/24
f 1063/13 1064/14 1065/15
f 1063/13 1065/15 1066/16
f 1067/13 1068/14 1069/15
f 1067/13 1069/15 1070/16
f 1068/13 1063/14 1066/15
f 1068/13 1066/15 1069/16
f 1064/13 1067/14 1070/15
f 1064/13 1070/15 1065/16
f 1069/29 1066/30 1065/31
f 1069/29 1065/31 1070/32
f 1067/21 1064/22 1063/23
f 1067/21 1063/23 1068/24
f 1071/13 1072/14 1073/15
f 1071/13 1073/15 1074/16
f 1075/13 1076/14 1077/15
f 1075/13 1077/15 1078/16
f 1076/13 1071/14 1074/15
f 1076/13 1074/15 1077/16
f 1072/13 1075/14 1078/15
f 1072/13 1078/15 1073/16
f 1077/29 1074/30 1073/31
f 1077/29 1073/31 1078/32
f 1075/21 1072/22 1071/23
f 1075/21 1071/23 1076/24
f 1079/13 1080/14 1081/15
f 1079/13 1081/15 1082/16
f 1083/13 1084/14 1085/15
f 1083/13 1085/15 1086/16
f 1084/13 1079/14 1082/15
f 1084/13 1082/15 1085/16
f 1080/13 1083/14 1086/15
f 1080/13 1086/15 1081/16
f 1085/29 1082/30 1081/31
f 1085/29 1081/31 1086/32
f 1083/21 1080/22 1079/23
f 1083/21 1079/23 1084/24
f 1087/13 1088/14 1089/15
f 1087/13 1089/15 1090/16
f 1091/13 1092/14 1093/15
f 1091/13 1093/15 1094/16
f 1092/13 1087/14 1090/15
f 1092/13 1090/15 1093/16
f 1088/13 1091/14 1094/15
f 1088/13 1094/15 1089/16
f 1093/29 1090/30 1089/31
f 1093/29 1089/31 1094/32
f 1091/21 1088/22 1087/23
f 1091/21 1087/23 1092/24
f 1095/35 1096/36 1097/37
f 1095/35 1097/37 1098/40
f 1099/35 1100/36 1101/37
f 1099/35 1101/37 1102/40
f 1100/35 1095/36 1098/37
f 1100/35 1098/37 1101/40
f 1096/35 1099/36 1102/37
f 1096/35 1102/37 1097/40
f 1101/47 1098/48 1097/45
f 1101/47 1097/45 1102/46
f 1099/41 1096/42 1095/43
f 1099/41 1095/43 1100/44
f 1103/35 1104/36 1105/37
f 1103/35 1105/37 1106/40
f 1107/35 1108/36 1109/37
f 1107/35 1109/37 1110/40
f 1108/35 1103/36 1106/37
f 1108/35 1106/37 1109/40
f 1104/35 1107/36 1110/37
f 1104/35 1110/37 1105/40
f 1109/47 1106/48 1105/45
f 1109/47 1105/45 1110/46
f 1107/41 1104/42 1103/43
f 1107/41 1103/43 1108/44
