# crossbow.obj exported from Blockbench free model
mtllib crossbow.mtl
o crossbow
v 0.465625 0.515625 0.136875
v 0.465625 0.515625 0.568125
v 0.465625 0.562500 0.568125
v 0.465625 0.562500 0.136875
v 0.534375 0.515625 0.568125
v 0.534375 0.515625 0.136875
v 0.534375 0.562500 0.136875
v 0.534375 0.562500 0.568125
v 0.465625 0.577500 0.568125
v 0.465625 0.577500 0.136875
v 0.483125 0.562500 0.568125
v 0.483125 0.562500 0.136875
v 0.483125 0.577500 0.136875
v 0.483125 0.577500 0.568125
v 0.516875 0.562500 0.136875
v 0.516875 0.562500 0.568125
v 0.516875 0.577500 0.568125
v 0.516875 0.577500 0.136875
v 0.534375 0.577500 0.136875
v 0.534375 0.577500 0.568125
v 0.483125 0.566875 0.568125
v 0.483125 0.566875 0.136875
v 0.516875 0.566875 0.136875
v 0.516875 0.566875 0.568125
v 0.460625 0.525000 0.327500
v 0.460625 0.525000 0.411875
v 0.460625 0.551250 0.411875
v 0.460625 0.551250 0.327500
v 0.465625 0.525000 0.411875
v 0.465625 0.525000 0.327500
v 0.465625 0.551250 0.327500
v 0.465625 0.551250 0.411875
v 0.460625 0.525000 0.202500
v 0.460625 0.525000 0.286875
v 0.460625 0.551250 0.286875
v 0.460625 0.551250 0.202500
v 0.465625 0.525000 0.286875
v 0.465625 0.525000 0.202500
v 0.465625 0.551250 0.202500
v 0.465625 0.551250 0.286875
v 0.534375 0.525000 0.327500
v 0.534375 0.525000 0.411875
v 0.534375 0.551250 0.411875
v 0.534375 0.551250 0.327500
v 0.539375 0.525000 0.411875
v 0.539375 0.525000 0.327500
v 0.539375 0.551250 0.327500
v 0.539375 0.551250 0.411875
v 0.534375 0.525000 0.202500
v 0.534375 0.525000 0.286875
v 0.534375 0.551250 0.286875
v 0.534375 0.551250 0.202500
v 0.539375 0.525000 0.286875
v 0.539375 0.525000 0.202500
v 0.539375 0.551250 0.202500
v 0.539375 0.551250 0.286875
v 0.475000 0.503750 0.177500
v 0.475000 0.503750 0.308750
v 0.475000 0.515625 0.308750
v 0.475000 0.515625 0.177500
v 0.525000 0.503750 0.308750
v 0.525000 0.503750 0.177500
v 0.525000 0.515625 0.177500
v 0.525000 0.515625 0.308750
v 0.477500 0.498125 0.286875
v 0.477500 0.498125 0.300625
v 0.477500 0.503750 0.300625
v 0.477500 0.503750 0.286875
v 0.522500 0.498125 0.300625
v 0.522500 0.498125 0.286875
v 0.522500 0.503750 0.286875
v 0.522500 0.503750 0.300625
v 0.477500 0.498125 0.264375
v 0.477500 0.498125 0.278125
v 0.477500 0.503750 0.278125
v 0.477500 0.503750 0.264375
v 0.522500 0.498125 0.278125
v 0.522500 0.498125 0.264375
v 0.522500 0.503750 0.264375
v 0.522500 0.503750 0.278125
v 0.477500 0.498125 0.241875
v 0.477500 0.498125 0.255625
v 0.477500 0.503750 0.255625
v 0.477500 0.503750 0.241875
v 0.522500 0.498125 0.255625
v 0.522500 0.498125 0.241875
v 0.522500 0.503750 0.241875
v 0.522500 0.503750 0.255625
v 0.477500 0.498125 0.219375
v 0.477500 0.498125 0.233125
v 0.477500 0.503750 0.233125
v 0.477500 0.503750 0.219375
v 0.522500 0.498125 0.233125
v 0.522500 0.498125 0.219375
v 0.522500 0.503750 0.219375
v 0.522500 0.503750 0.233125
v 0.477500 0.498125 0.196875
v 0.477500 0.498125 0.210625
v 0.477500 0.503750 0.210625
v 0.477500 0.503750 0.196875
v 0.522500 0.498125 0.210625
v 0.522500 0.498125 0.196875
v 0.522500 0.503750 0.196875
v 0.522500 0.503750 0.210625
v 0.477500 0.498125 0.174375
v 0.477500 0.498125 0.188125
v 0.477500 0.503750 0.188125
v 0.477500 0.503750 0.174375
v 0.522500 0.498125 0.188125
v 0.522500 0.498125 0.174375
v 0.522500 0.503750 0.174375
v 0.522500 0.503750 0.188125
v 0.536250 0.571250 0.101875
v 0.463750 0.571250 0.101875
v 0.455000 0.506250 0.096875
v 0.545000 0.506250 0.096875
v 0.455000 0.506250 0.136875
v 0.463750 0.571250 0.136875
v 0.545000 0.506250 0.136875
v 0.536250 0.571250 0.136875
v 0.458750 0.511250 0.566875
v 0.458750 0.511250 0.590625
v 0.458750 0.567500 0.590625
v 0.458750 0.567500 0.566875
v 0.541250 0.511250 0.590625
v 0.541250 0.511250 0.566875
v 0.541250 0.567500 0.566875
v 0.541250 0.567500 0.590625
v 0.553750 0.572500 0.105625
v 0.446250 0.572500 0.105625
v 0.432500 0.498750 0.095625
v 0.567500 0.498750 0.095625
v 0.432500 0.498750 0.141875
v 0.446250 0.572500 0.130625
v 0.567500 0.498750 0.141875
v 0.553750 0.572500 0.130625
v 0.433750 0.566250 0.081875
v 0.386250 0.566250 0.081875
v 0.382500 0.496250 0.075625
v 0.437500 0.496250 0.075625
v 0.386250 0.566250 0.116875
v 0.382500 0.496250 0.123125
v 0.437500 0.496250 0.123125
v 0.433750 0.566250 0.116875
v 0.621250 0.566250 0.081875
v 0.558750 0.566250 0.081875
v 0.562500 0.496250 0.075625
v 0.617500 0.496250 0.075625
v 0.562500 0.496250 0.123125
v 0.558750 0.566250 0.116875
v 0.617500 0.496250 0.123125
v 0.621250 0.566250 0.116875
v 0.446250 0.516250 0.084375
v 0.446250 0.516250 0.099375
v 0.446250 0.557500 0.099375
v 0.446250 0.557500 0.084375
v 0.553750 0.516250 0.099375
v 0.553750 0.516250 0.084375
v 0.553750 0.557500 0.084375
v 0.553750 0.557500 0.099375
v 0.446250 0.470000 0.075625
v 0.446250 0.470000 0.093125
v 0.446250 0.520000 0.093125
v 0.446250 0.520000 0.075625
v 0.455000 0.470000 0.093125
v 0.455000 0.470000 0.075625
v 0.455000 0.520000 0.075625
v 0.455000 0.520000 0.093125
v 0.545000 0.470000 0.075625
v 0.545000 0.470000 0.093125
v 0.545000 0.520000 0.093125
v 0.545000 0.520000 0.075625
v 0.553750 0.470000 0.093125
v 0.553750 0.470000 0.075625
v 0.553750 0.520000 0.075625
v 0.553750 0.520000 0.093125
v 0.446250 0.470000 0.056875
v 0.446250 0.485000 0.093125
v 0.446250 0.485000 0.056875
v 0.553750 0.470000 0.056875
v 0.553750 0.485000 0.056875
v 0.553750 0.485000 0.093125
v 0.527500 0.560000 0.108125
v 0.472500 0.560000 0.108125
v 0.467500 0.540000 0.104375
v 0.532500 0.540000 0.104375
v 0.472500 0.560000 0.118125
v 0.467500 0.540000 0.121875
v 0.532500 0.540000 0.121875
v 0.527500 0.560000 0.118125
v 0.414183 0.552497 0.112549
v 0.373522 0.552497 0.093270
v 0.347472 0.553625 0.152594
v 0.385078 0.553625 0.169546
v 0.373317 0.535003 0.093701
v 0.347422 0.537375 0.152704
v 0.413978 0.535003 0.112980
v 0.385028 0.537375 0.169656
v 0.320275 0.552236 0.220896
v 0.355948 0.552236 0.232460
v 0.320552 0.537264 0.220040
v 0.356225 0.537264 0.231604
v 0.309711 0.544540 0.285759
v 0.343409 0.544540 0.283888
v 0.309591 0.530960 0.283612
v 0.343289 0.530960 0.281741
v 0.331047 0.530283 0.357304
v 0.359986 0.530283 0.349397
v 0.330514 0.519217 0.355353
v 0.359453 0.519217 0.347446
v 0.356500 0.539750 0.337375
v 0.356500 0.538745 0.333625
v 0.307750 0.538745 0.333625
v 0.307750 0.539750 0.337375
v 0.356500 0.536000 0.330880
v 0.307750 0.536000 0.330880
v 0.356500 0.532250 0.329875
v 0.307750 0.532250 0.329875
v 0.356500 0.528500 0.330880
v 0.307750 0.528500 0.330880
v 0.356500 0.525755 0.333625
v 0.307750 0.525755 0.333625
v 0.356500 0.524750 0.337375
v 0.307750 0.524750 0.337375
v 0.356500 0.525755 0.341125
v 0.307750 0.525755 0.341125
v 0.356500 0.528500 0.343870
v 0.307750 0.528500 0.343870
v 0.356500 0.532250 0.344875
v 0.307750 0.532250 0.344875
v 0.356500 0.536000 0.343870
v 0.307750 0.536000 0.343870
v 0.356500 0.538745 0.341125
v 0.307750 0.538745 0.341125
v 0.347750 0.582250 0.337375
v 0.347750 0.578444 0.318241
v 0.315250 0.578444 0.318241
v 0.315250 0.582250 0.337375
v 0.347750 0.567605 0.302020
v 0.315250 0.567605 0.302020
v 0.347750 0.551384 0.291181
v 0.315250 0.551384 0.291181
v 0.347750 0.532250 0.287375
v 0.315250 0.532250 0.287375
v 0.347750 0.513116 0.291181
v 0.315250 0.513116 0.291181
v 0.347750 0.496895 0.302020
v 0.315250 0.496895 0.302020
v 0.347750 0.486056 0.318241
v 0.315250 0.486056 0.318241
v 0.347750 0.482250 0.337375
v 0.315250 0.482250 0.337375
v 0.347750 0.486056 0.356509
v 0.315250 0.486056 0.356509
v 0.347750 0.496895 0.372730
v 0.315250 0.496895 0.372730
v 0.347750 0.513116 0.383569
v 0.315250 0.513116 0.383569
v 0.347750 0.532250 0.387375
v 0.315250 0.532250 0.387375
v 0.347750 0.551384 0.383569
v 0.315250 0.551384 0.383569
v 0.347750 0.567605 0.372730
v 0.315250 0.567605 0.372730
v 0.347750 0.578444 0.356509
v 0.315250 0.578444 0.356509
v 0.341500 0.567250 0.337375
v 0.341500 0.562561 0.319875
v 0.321500 0.562561 0.319875
v 0.321500 0.567250 0.337375
v 0.341500 0.549750 0.307064
v 0.321500 0.549750 0.307064
v 0.341500 0.532250 0.302375
v 0.321500 0.532250 0.302375
v 0.341500 0.514750 0.307064
v 0.321500 0.514750 0.307064
v 0.341500 0.501939 0.319875
v 0.321500 0.501939 0.319875
v 0.341500 0.497250 0.337375
v 0.321500 0.497250 0.337375
v 0.341500 0.501939 0.354875
v 0.321500 0.501939 0.354875
v 0.341500 0.514750 0.367686
v 0.321500 0.514750 0.367686
v 0.341500 0.532250 0.372375
v 0.321500 0.532250 0.372375
v 0.341500 0.549750 0.367686
v 0.321500 0.549750 0.367686
v 0.341500 0.562561 0.354875
v 0.321500 0.562561 0.354875
v 0.626478 0.552497 0.093270
v 0.585817 0.552497 0.112549
v 0.614922 0.553625 0.169546
v 0.652528 0.553625 0.152594
v 0.586022 0.535003 0.112980
v 0.614972 0.537375 0.169656
v 0.626683 0.535003 0.093701
v 0.652578 0.537375 0.152704
v 0.644052 0.552236 0.232460
v 0.679725 0.552236 0.220896
v 0.643775 0.537264 0.231604
v 0.679448 0.537264 0.220040
v 0.656591 0.544540 0.283888
v 0.690289 0.544540 0.285759
v 0.656711 0.530960 0.281741
v 0.690409 0.530960 0.283612
v 0.640014 0.530283 0.349397
v 0.668953 0.530283 0.357304
v 0.640547 0.519217 0.347446
v 0.669486 0.519217 0.355353
v 0.692250 0.539750 0.337375
v 0.692250 0.538745 0.333625
v 0.643500 0.538745 0.333625
v 0.643500 0.539750 0.337375
v 0.692250 0.536000 0.330880
v 0.643500 0.536000 0.330880
v 0.692250 0.532250 0.329875
v 0.643500 0.532250 0.329875
v 0.692250 0.528500 0.330880
v 0.643500 0.528500 0.330880
v 0.692250 0.525755 0.333625
v 0.643500 0.525755 0.333625
v 0.692250 0.524750 0.337375
v 0.643500 0.524750 0.337375
v 0.692250 0.525755 0.341125
v 0.643500 0.525755 0.341125
v 0.692250 0.528500 0.343870
v 0.643500 0.528500 0.343870
v 0.692250 0.532250 0.344875
v 0.643500 0.532250 0.344875
v 0.692250 0.536000 0.343870
v 0.643500 0.536000 0.343870
v 0.692250 0.538745 0.341125
v 0.643500 0.538745 0.341125
v 0.684750 0.582250 0.337375
v 0.684750 0.578444 0.318241
v 0.652250 0.578444 0.318241
v 0.652250 0.582250 0.337375
v 0.684750 0.567605 0.302020
v 0.652250 0.567605 0.302020
v 0.684750 0.551384 0.291181
v 0.652250 0.551384 0.291181
v 0.684750 0.532250 0.287375
v 0.652250 0.532250 0.287375
v 0.684750 0.513116 0.291181
v 0.652250 0.513116 0.291181
v 0.684750 0.496895 0.302020
v 0.652250 0.496895 0.302020
v 0.684750 0.486056 0.318241
v 0.652250 0.486056 0.318241
v 0.684750 0.482250 0.337375
v 0.652250 0.482250 0.337375
v 0.684750 0.486056 0.356509
v 0.652250 0.486056 0.356509
v 0.684750 0.496895 0.372730
v 0.652250 0.496895 0.372730
v 0.684750 0.513116 0.383569
v 0.652250 0.513116 0.383569
v 0.684750 0.532250 0.387375
v 0.652250 0.532250 0.387375
v 0.684750 0.551384 0.383569
v 0.652250 0.551384 0.383569
v 0.684750 0.567605 0.372730
v 0.652250 0.567605 0.372730
v 0.684750 0.578444 0.356509
v 0.652250 0.578444 0.356509
v 0.678500 0.567250 0.337375
v 0.678500 0.562561 0.319875
v 0.658500 0.562561 0.319875
v 0.658500 0.567250 0.337375
v 0.678500 0.549750 0.307064
v 0.658500 0.549750 0.307064
v 0.678500 0.532250 0.302375
v 0.658500 0.532250 0.302375
v 0.678500 0.514750 0.307064
v 0.658500 0.514750 0.307064
v 0.678500 0.501939 0.319875
v 0.658500 0.501939 0.319875
v 0.678500 0.497250 0.337375
v 0.658500 0.497250 0.337375
v 0.678500 0.501939 0.354875
v 0.658500 0.501939 0.354875
v 0.678500 0.514750 0.367686
v 0.658500 0.514750 0.367686
v 0.678500 0.532250 0.372375
v 0.658500 0.532250 0.372375
v 0.678500 0.549750 0.367686
v 0.658500 0.549750 0.367686
v 0.678500 0.562561 0.354875
v 0.658500 0.562561 0.354875
v 0.347423 0.594124 0.333577
v 0.343206 0.594124 0.341244
v 0.497956 0.591149 0.426381
v 0.502173 0.591149 0.418715
v 0.343077 0.585376 0.341173
v 0.497827 0.582401 0.426310
v 0.347294 0.585376 0.333506
v 0.502044 0.582401 0.418644
v 0.656794 0.594124 0.341244
v 0.652577 0.594124 0.333577
v 0.497827 0.591149 0.418715
v 0.502044 0.591149 0.426381
v 0.652706 0.585376 0.333506
v 0.497956 0.582401 0.418644
v 0.656923 0.585376 0.341173
v 0.502173 0.582401 0.426310
v 0.332303 0.530668 0.316492
v 0.340236 0.530668 0.321489
v 0.471236 0.553418 0.113489
v 0.463303 0.553418 0.108492
v 0.340697 0.521332 0.320758
v 0.471697 0.544082 0.112758
v 0.332764 0.521332 0.315761
v 0.463764 0.544082 0.107761
v 0.659764 0.530668 0.321489
v 0.667697 0.530668 0.316492
v 0.536697 0.553418 0.108492
v 0.528764 0.553418 0.113489
v 0.667236 0.521332 0.315761
v 0.536236 0.544082 0.107761
v 0.659303 0.521332 0.320758
v 0.528303 0.544082 0.112758
v 0.550000 0.476250 0.560625
v 0.450000 0.476250 0.560625
v 0.456250 0.567500 0.566875
v 0.543750 0.567500 0.566875
v 0.450000 0.476250 0.635625
v 0.456250 0.567500 0.630625
v 0.543750 0.567500 0.630625
v 0.550000 0.476250 0.635625
v 0.536250 0.480000 0.630625
v 0.463750 0.480000 0.630625
v 0.465000 0.562500 0.634375
v 0.535000 0.562500 0.634375
v 0.463750 0.480000 0.713125
v 0.465000 0.562500 0.709375
v 0.535000 0.562500 0.709375
v 0.536250 0.480000 0.713125
v 0.445625 0.500000 0.576875
v 0.445625 0.500000 0.621875
v 0.445625 0.542500 0.621875
v 0.445625 0.542500 0.576875
v 0.450000 0.500000 0.621875
v 0.450000 0.500000 0.576875
v 0.450000 0.542500 0.576875
v 0.450000 0.542500 0.621875
v 0.550000 0.500000 0.576875
v 0.550000 0.500000 0.621875
v 0.550000 0.542500 0.621875
v 0.550000 0.542500 0.576875
v 0.554375 0.500000 0.621875
v 0.554375 0.500000 0.576875
v 0.554375 0.542500 0.576875
v 0.554375 0.542500 0.621875
v 0.481250 0.565000 0.565625
v 0.481250 0.565000 0.594375
v 0.481250 0.581250 0.594375
v 0.481250 0.581250 0.565625
v 0.518750 0.565000 0.594375
v 0.518750 0.565000 0.565625
v 0.518750 0.581250 0.565625
v 0.518750 0.581250 0.594375
v 0.486250 0.581250 0.571875
v 0.486250 0.581250 0.585625
v 0.486250 0.586250 0.585625
v 0.486250 0.586250 0.571875
v 0.513750 0.581250 0.585625
v 0.513750 0.581250 0.571875
v 0.513750 0.586250 0.571875
v 0.513750 0.586250 0.585625
v 0.437500 0.507500 0.598125
v 0.437500 0.507500 0.615625
v 0.437500 0.522500 0.615625
v 0.437500 0.522500 0.598125
v 0.446250 0.507500 0.615625
v 0.446250 0.507500 0.598125
v 0.446250 0.522500 0.598125
v 0.446250 0.522500 0.615625
v 0.553750 0.507500 0.598125
v 0.553750 0.507500 0.615625
v 0.553750 0.522500 0.615625
v 0.553750 0.522500 0.598125
v 0.562500 0.507500 0.615625
v 0.562500 0.507500 0.598125
v 0.562500 0.522500 0.598125
v 0.562500 0.522500 0.615625
v 0.473750 0.457500 0.565625
v 0.473750 0.457500 0.578125
v 0.473750 0.482500 0.578125
v 0.473750 0.482500 0.565625
v 0.526250 0.457500 0.578125
v 0.526250 0.457500 0.565625
v 0.526250 0.482500 0.565625
v 0.526250 0.482500 0.578125
v 0.473750 0.442500 0.568125
v 0.473750 0.442500 0.644375
v 0.473750 0.457500 0.644375
v 0.473750 0.457500 0.568125
v 0.526250 0.442500 0.644375
v 0.526250 0.442500 0.568125
v 0.526250 0.457500 0.568125
v 0.526250 0.457500 0.644375
v 0.473750 0.442500 0.641875
v 0.473750 0.442500 0.651875
v 0.473750 0.487500 0.651875
v 0.473750 0.487500 0.641875
v 0.526250 0.442500 0.651875
v 0.526250 0.442500 0.641875
v 0.526250 0.487500 0.641875
v 0.526250 0.487500 0.651875
v 0.511875 0.457500 0.605625
v 0.488125 0.457500 0.605625
v 0.488125 0.492500 0.598125
v 0.511875 0.492500 0.598125
v 0.488125 0.457500 0.614375
v 0.488125 0.492500 0.606875
v 0.511875 0.492500 0.606875
v 0.511875 0.457500 0.614375
v 0.451250 0.496250 0.623125
v 0.451250 0.494419 0.618706
v 0.446250 0.494419 0.618706
v 0.446250 0.496250 0.623125
v 0.451250 0.490000 0.616875
v 0.446250 0.490000 0.616875
v 0.451250 0.485581 0.618706
v 0.446250 0.485581 0.618706
v 0.451250 0.483750 0.623125
v 0.446250 0.483750 0.623125
v 0.451250 0.485581 0.627544
v 0.446250 0.485581 0.627544
v 0.451250 0.490000 0.629375
v 0.446250 0.490000 0.629375
v 0.451250 0.494419 0.627544
v 0.446250 0.494419 0.627544
v 0.451250 0.497500 0.580625
v 0.451250 0.495669 0.576206
v 0.446250 0.495669 0.576206
v 0.446250 0.497500 0.580625
v 0.451250 0.491250 0.574375
v 0.446250 0.491250 0.574375
v 0.451250 0.486831 0.576206
v 0.446250 0.486831 0.576206
v 0.451250 0.485000 0.580625
v 0.446250 0.485000 0.580625
v 0.451250 0.486831 0.585044
v 0.446250 0.486831 0.585044
v 0.451250 0.491250 0.586875
v 0.446250 0.491250 0.586875
v 0.451250 0.495669 0.585044
v 0.446250 0.495669 0.585044
v 0.553750 0.496250 0.623125
v 0.553750 0.494419 0.618706
v 0.548750 0.494419 0.618706
v 0.548750 0.496250 0.623125
v 0.553750 0.490000 0.616875
v 0.548750 0.490000 0.616875
v 0.553750 0.485581 0.618706
v 0.548750 0.485581 0.618706
v 0.553750 0.483750 0.623125
v 0.548750 0.483750 0.623125
v 0.553750 0.485581 0.627544
v 0.548750 0.485581 0.627544
v 0.553750 0.490000 0.629375
v 0.548750 0.490000 0.629375
v 0.553750 0.494419 0.627544
v 0.548750 0.494419 0.627544
v 0.553750 0.497500 0.580625
v 0.553750 0.495669 0.576206
v 0.548750 0.495669 0.576206
v 0.548750 0.497500 0.580625
v 0.553750 0.491250 0.574375
v 0.548750 0.491250 0.574375
v 0.553750 0.486831 0.576206
v 0.548750 0.486831 0.576206
v 0.553750 0.485000 0.580625
v 0.548750 0.485000 0.580625
v 0.553750 0.486831 0.585044
v 0.548750 0.486831 0.585044
v 0.553750 0.491250 0.586875
v 0.548750 0.491250 0.586875
v 0.553750 0.495669 0.585044
v 0.548750 0.495669 0.585044
v 0.532500 0.356250 0.670625
v 0.467500 0.356250 0.670625
v 0.462500 0.480000 0.643125
v 0.537500 0.480000 0.643125
v 0.467500 0.356250 0.713125
v 0.462500 0.480000 0.694375
v 0.537500 0.480000 0.694375
v 0.532500 0.356250 0.713125
v 0.458125 0.373750 0.663125
v 0.458125 0.373750 0.700625
v 0.458125 0.468750 0.700625
v 0.458125 0.468750 0.663125
v 0.463750 0.373750 0.700625
v 0.463750 0.373750 0.663125
v 0.463750 0.468750 0.663125
v 0.463750 0.468750 0.700625
v 0.536250 0.373750 0.663125
v 0.536250 0.373750 0.700625
v 0.536250 0.468750 0.700625
v 0.536250 0.468750 0.663125
v 0.541875 0.373750 0.700625
v 0.541875 0.373750 0.663125
v 0.541875 0.468750 0.663125
v 0.541875 0.468750 0.700625
v 0.472500 0.440968 0.709052
v 0.472500 0.414309 0.926171
v 0.472500 0.440363 0.929370
v 0.472500 0.467022 0.712251
v 0.527500 0.414309 0.926171
v 0.527500 0.440968 0.709052
v 0.527500 0.467022 0.712251
v 0.527500 0.440363 0.929370
v 0.536250 0.520000 0.709375
v 0.463750 0.520000 0.709375
v 0.463750 0.563750 0.709375
v 0.536250 0.563750 0.709375
v 0.463750 0.520000 0.926875
v 0.467500 0.563750 0.924375
v 0.532500 0.563750 0.924375
v 0.536250 0.520000 0.926875
v 0.538750 0.563750 0.748125
v 0.461250 0.563750 0.748125
v 0.471250 0.582500 0.758125
v 0.528750 0.582500 0.758125
v 0.471250 0.582500 0.898125
v 0.461250 0.563750 0.909375
v 0.528750 0.582500 0.898125
v 0.538750 0.563750 0.909375
v 0.543750 0.416250 0.911875
v 0.456250 0.416250 0.911875
v 0.461250 0.578750 0.925625
v 0.538750 0.578750 0.925625
v 0.456250 0.416250 0.926875
v 0.461250 0.578750 0.943125
v 0.538750 0.578750 0.943125
v 0.543750 0.416250 0.926875
v 0.459375 0.523750 0.740625
v 0.459375 0.523750 0.900625
v 0.459375 0.558750 0.900625
v 0.459375 0.558750 0.740625
v 0.463750 0.523750 0.900625
v 0.463750 0.523750 0.740625
v 0.463750 0.558750 0.740625
v 0.463750 0.558750 0.900625
v 0.536250 0.523750 0.740625
v 0.536250 0.523750 0.900625
v 0.536250 0.558750 0.900625
v 0.536250 0.558750 0.740625
v 0.540625 0.523750 0.900625
v 0.540625 0.523750 0.740625
v 0.540625 0.558750 0.740625
v 0.540625 0.558750 0.900625
v 0.552500 0.470000 0.879375
v 0.552500 0.467990 0.871875
v 0.538750 0.467990 0.871875
v 0.538750 0.470000 0.879375
v 0.552500 0.462500 0.866385
v 0.538750 0.462500 0.866385
v 0.552500 0.455000 0.864375
v 0.538750 0.455000 0.864375
v 0.552500 0.447500 0.866385
v 0.538750 0.447500 0.866385
v 0.552500 0.442010 0.871875
v 0.538750 0.442010 0.871875
v 0.552500 0.440000 0.879375
v 0.538750 0.440000 0.879375
v 0.552500 0.442010 0.886875
v 0.538750 0.442010 0.886875
v 0.552500 0.447500 0.892365
v 0.538750 0.447500 0.892365
v 0.552500 0.455000 0.894375
v 0.538750 0.455000 0.894375
v 0.552500 0.462500 0.892365
v 0.538750 0.462500 0.892365
v 0.552500 0.467990 0.886875
v 0.538750 0.467990 0.886875
v 0.535000 0.440000 0.873125
v 0.535000 0.440000 0.885625
v 0.535000 0.470000 0.885625
v 0.535000 0.470000 0.873125
v 0.538750 0.440000 0.885625
v 0.538750 0.440000 0.873125
v 0.538750 0.470000 0.873125
v 0.538750 0.470000 0.885625
v 0.481250 0.609375 0.711875
v 0.482677 0.616550 0.711875
v 0.482677 0.616550 0.399375
v 0.481250 0.609375 0.399375
v 0.486742 0.622633 0.711875
v 0.486742 0.622633 0.399375
v 0.492825 0.626698 0.711875
v 0.492825 0.626698 0.399375
v 0.500000 0.628125 0.711875
v 0.500000 0.628125 0.399375
v 0.507175 0.626698 0.711875
v 0.507175 0.626698 0.399375
v 0.513258 0.622633 0.711875
v 0.513258 0.622633 0.399375
v 0.517323 0.616550 0.711875
v 0.517323 0.616550 0.399375
v 0.518750 0.609375 0.711875
v 0.518750 0.609375 0.399375
v 0.517323 0.602200 0.711875
v 0.517323 0.602200 0.399375
v 0.513258 0.596117 0.711875
v 0.513258 0.596117 0.399375
v 0.507175 0.592052 0.711875
v 0.507175 0.592052 0.399375
v 0.500000 0.590625 0.711875
v 0.500000 0.590625 0.399375
v 0.492825 0.592052 0.711875
v 0.492825 0.592052 0.399375
v 0.486742 0.596117 0.711875
v 0.486742 0.596117 0.399375
v 0.482677 0.602200 0.711875
v 0.482677 0.602200 0.399375
v 0.478750 0.609375 0.399375
v 0.480368 0.617507 0.399375
v 0.475748 0.619420 0.366875
v 0.473750 0.609375 0.366875
v 0.484974 0.624401 0.399375
v 0.481438 0.627937 0.366875
v 0.491868 0.629007 0.399375
v 0.489955 0.633627 0.366875
v 0.500000 0.630625 0.399375
v 0.500000 0.635625 0.366875
v 0.508132 0.629007 0.399375
v 0.510045 0.633627 0.366875
v 0.515026 0.624401 0.399375
v 0.518562 0.627937 0.366875
v 0.519632 0.617507 0.399375
v 0.524252 0.619420 0.366875
v 0.521250 0.609375 0.399375
v 0.526250 0.609375 0.366875
v 0.519632 0.601243 0.399375
v 0.524252 0.599330 0.366875
v 0.515026 0.594349 0.399375
v 0.518562 0.590813 0.366875
v 0.508132 0.589743 0.399375
v 0.510045 0.585123 0.366875
v 0.500000 0.588125 0.399375
v 0.500000 0.583125 0.366875
v 0.491868 0.589743 0.399375
v 0.489955 0.585123 0.366875
v 0.484974 0.594349 0.399375
v 0.481438 0.590813 0.366875
v 0.480368 0.601243 0.399375
v 0.475748 0.599330 0.366875
v 0.476903 0.618942 0.362500
v 0.475000 0.609375 0.362500
v 0.482322 0.627053 0.362500
v 0.490433 0.632472 0.362500
v 0.500000 0.634375 0.362500
v 0.509567 0.632472 0.362500
v 0.517678 0.627053 0.362500
v 0.523097 0.618942 0.362500
v 0.525000 0.609375 0.362500
v 0.523097 0.599808 0.362500
v 0.517678 0.591697 0.362500
v 0.509567 0.586278 0.362500
v 0.500000 0.584375 0.362500
v 0.490433 0.586278 0.362500
v 0.482322 0.591697 0.362500
v 0.476903 0.599808 0.362500
v 0.478750 0.609375 0.362500
v 0.480368 0.617507 0.362500
v 0.480368 0.617507 0.360000
v 0.478750 0.609375 0.360000
v 0.484974 0.624401 0.362500
v 0.484974 0.624401 0.360000
v 0.491868 0.629007 0.362500
v 0.491868 0.629007 0.360000
v 0.500000 0.630625 0.362500
v 0.500000 0.630625 0.360000
v 0.508132 0.629007 0.362500
v 0.508132 0.629007 0.360000
v 0.515026 0.624401 0.362500
v 0.515026 0.624401 0.360000
v 0.519632 0.617507 0.362500
v 0.519632 0.617507 0.360000
v 0.521250 0.609375 0.362500
v 0.521250 0.609375 0.360000
v 0.519632 0.601243 0.362500
v 0.519632 0.601243 0.360000
v 0.515026 0.594349 0.362500
v 0.515026 0.594349 0.360000
v 0.508132 0.589743 0.362500
v 0.508132 0.589743 0.360000
v 0.500000 0.588125 0.362500
v 0.500000 0.588125 0.360000
v 0.491868 0.589743 0.362500
v 0.491868 0.589743 0.360000
v 0.484974 0.594349 0.362500
v 0.484974 0.594349 0.360000
v 0.480368 0.601243 0.362500
v 0.480368 0.601243 0.360000
v 0.478750 0.609375 0.744375
v 0.480368 0.617507 0.744375
v 0.480945 0.617268 0.711875
v 0.479375 0.609375 0.711875
v 0.484974 0.624401 0.744375
v 0.485416 0.623959 0.711875
v 0.491868 0.629007 0.744375
v 0.492107 0.628430 0.711875
v 0.500000 0.630625 0.744375
v 0.500000 0.630000 0.711875
v 0.508132 0.629007 0.744375
v 0.507893 0.628430 0.711875
v 0.515026 0.624401 0.744375
v 0.514584 0.623959 0.711875
v 0.519632 0.617507 0.744375
v 0.519055 0.617268 0.711875
v 0.521250 0.609375 0.744375
v 0.520625 0.609375 0.711875
v 0.519632 0.601243 0.744375
v 0.519055 0.601482 0.711875
v 0.515026 0.594349 0.744375
v 0.514584 0.594791 0.711875
v 0.508132 0.589743 0.744375
v 0.507893 0.590320 0.711875
v 0.500000 0.588125 0.744375
v 0.500000 0.588750 0.711875
v 0.491868 0.589743 0.744375
v 0.492107 0.590320 0.711875
v 0.484974 0.594349 0.744375
v 0.485416 0.594791 0.711875
v 0.480368 0.601243 0.744375
v 0.480945 0.601482 0.711875
v 0.472500 0.609375 0.755625
v 0.474593 0.619899 0.755625
v 0.476903 0.618942 0.744375
v 0.475000 0.609375 0.744375
v 0.480555 0.628820 0.755625
v 0.482322 0.627053 0.744375
v 0.489476 0.634782 0.755625
v 0.490433 0.632472 0.744375
v 0.500000 0.636875 0.755625
v 0.500000 0.634375 0.744375
v 0.510524 0.634782 0.755625
v 0.509567 0.632472 0.744375
v 0.519445 0.628820 0.755625
v 0.517678 0.627053 0.744375
v 0.525407 0.619899 0.755625
v 0.523097 0.618942 0.744375
v 0.527500 0.609375 0.755625
v 0.525000 0.609375 0.744375
v 0.525407 0.598851 0.755625
v 0.523097 0.599808 0.744375
v 0.519445 0.589930 0.755625
v 0.517678 0.591697 0.744375
v 0.510524 0.583968 0.755625
v 0.509567 0.586278 0.744375
v 0.500000 0.581875 0.755625
v 0.500000 0.584375 0.744375
v 0.489476 0.583968 0.755625
v 0.490433 0.586278 0.744375
v 0.480555 0.589930 0.755625
v 0.482322 0.591697 0.744375
v 0.474593 0.598851 0.755625
v 0.476903 0.599808 0.744375
v 0.478125 0.609375 0.514375
v 0.479790 0.617746 0.514375
v 0.479790 0.617746 0.496875
v 0.478125 0.609375 0.496875
v 0.484532 0.624843 0.514375
v 0.484532 0.624843 0.496875
v 0.491629 0.629585 0.514375
v 0.491629 0.629585 0.496875
v 0.500000 0.631250 0.514375
v 0.500000 0.631250 0.496875
v 0.508371 0.629585 0.514375
v 0.508371 0.629585 0.496875
v 0.515468 0.624843 0.514375
v 0.515468 0.624843 0.496875
v 0.520210 0.617746 0.514375
v 0.520210 0.617746 0.496875
v 0.521875 0.609375 0.514375
v 0.521875 0.609375 0.496875
v 0.520210 0.601004 0.514375
v 0.520210 0.601004 0.496875
v 0.515468 0.593907 0.514375
v 0.515468 0.593907 0.496875
v 0.508371 0.589165 0.514375
v 0.508371 0.589165 0.496875
v 0.500000 0.587500 0.514375
v 0.500000 0.587500 0.496875
v 0.491629 0.589165 0.514375
v 0.491629 0.589165 0.496875
v 0.484532 0.593907 0.514375
v 0.484532 0.593907 0.496875
v 0.479790 0.601004 0.514375
v 0.479790 0.601004 0.496875
v 0.487500 0.643750 0.536875
v 0.489175 0.643750 0.530625
v 0.489175 0.626250 0.530625
v 0.487500 0.626250 0.536875
v 0.493750 0.643750 0.526050
v 0.493750 0.626250 0.526050
v 0.500000 0.643750 0.524375
v 0.500000 0.626250 0.524375
v 0.506250 0.643750 0.526050
v 0.506250 0.626250 0.526050
v 0.510825 0.643750 0.530625
v 0.510825 0.626250 0.530625
v 0.512500 0.643750 0.536875
v 0.512500 0.626250 0.536875
v 0.510825 0.643750 0.543125
v 0.510825 0.626250 0.543125
v 0.506250 0.643750 0.547700
v 0.506250 0.626250 0.547700
v 0.500000 0.643750 0.549375
v 0.500000 0.626250 0.549375
v 0.493750 0.643750 0.547700
v 0.493750 0.626250 0.547700
v 0.489175 0.643750 0.543125
v 0.489175 0.626250 0.543125
v 0.481250 0.621250 0.536875
v 0.481250 0.619659 0.530937
v 0.467500 0.619659 0.530937
v 0.467500 0.621250 0.536875
v 0.481250 0.615313 0.526591
v 0.467500 0.615313 0.526591
v 0.481250 0.609375 0.525000
v 0.467500 0.609375 0.525000
v 0.481250 0.603438 0.526591
v 0.467500 0.603438 0.526591
v 0.481250 0.599091 0.530937
v 0.467500 0.599091 0.530937
v 0.481250 0.597500 0.536875
v 0.467500 0.597500 0.536875
v 0.481250 0.599091 0.542812
v 0.467500 0.599091 0.542812
v 0.481250 0.603437 0.547159
v 0.467500 0.603437 0.547159
v 0.481250 0.609375 0.548750
v 0.467500 0.609375 0.548750
v 0.481250 0.615313 0.547159
v 0.467500 0.615313 0.547159
v 0.481250 0.619659 0.542812
v 0.467500 0.619659 0.542812
v 0.532500 0.606250 0.536875
v 0.532500 0.604827 0.531562
v 0.518750 0.604827 0.531562
v 0.518750 0.606250 0.536875
v 0.532500 0.600938 0.527673
v 0.518750 0.600938 0.527673
v 0.532500 0.595625 0.526250
v 0.518750 0.595625 0.526250
v 0.532500 0.590313 0.527673
v 0.518750 0.590313 0.527673
v 0.532500 0.586423 0.531562
v 0.518750 0.586423 0.531562
v 0.532500 0.585000 0.536875
v 0.518750 0.585000 0.536875
v 0.532500 0.586423 0.542187
v 0.518750 0.586423 0.542187
v 0.532500 0.590313 0.546077
v 0.518750 0.590313 0.546077
v 0.532500 0.595625 0.547500
v 0.518750 0.595625 0.547500
v 0.532500 0.600938 0.546077
v 0.518750 0.600938 0.546077
v 0.532500 0.604827 0.542188
v 0.518750 0.604827 0.542188
v 0.476250 0.561250 0.653125
v 0.476250 0.561250 0.686875
v 0.476250 0.600000 0.686875
v 0.476250 0.600000 0.653125
v 0.523750 0.561250 0.686875
v 0.523750 0.561250 0.653125
v 0.523750 0.600000 0.653125
v 0.523750 0.600000 0.686875
v 0.471250 0.566250 0.662500
v 0.471250 0.566250 0.677500
v 0.471250 0.576250 0.677500
v 0.471250 0.576250 0.662500
v 0.476250 0.566250 0.677500
v 0.476250 0.566250 0.662500
v 0.476250 0.576250 0.662500
v 0.476250 0.576250 0.677500
v 0.523750 0.566250 0.662500
v 0.523750 0.566250 0.677500
v 0.523750 0.576250 0.677500
v 0.523750 0.576250 0.662500
v 0.528750 0.566250 0.677500
v 0.528750 0.566250 0.662500
v 0.528750 0.576250 0.662500
v 0.528750 0.576250 0.677500
v 0.476250 0.561250 0.494375
v 0.476250 0.561250 0.528125
v 0.476250 0.600000 0.528125
v 0.476250 0.600000 0.494375
v 0.523750 0.561250 0.528125
v 0.523750 0.561250 0.494375
v 0.523750 0.600000 0.494375
v 0.523750 0.600000 0.528125
v 0.471250 0.566250 0.503750
v 0.471250 0.566250 0.518750
v 0.471250 0.576250 0.518750
v 0.471250 0.576250 0.503750
v 0.476250 0.566250 0.518750
v 0.476250 0.566250 0.503750
v 0.476250 0.576250 0.503750
v 0.476250 0.576250 0.518750
v 0.523750 0.566250 0.503750
v 0.523750 0.566250 0.518750
v 0.523750 0.576250 0.518750
v 0.523750 0.576250 0.503750
v 0.528750 0.566250 0.518750
v 0.528750 0.566250 0.503750
v 0.528750 0.576250 0.503750
v 0.528750 0.576250 0.518750
v 0.473750 0.561250 0.480625
v 0.473750 0.561250 0.703125
v 0.473750 0.571250 0.703125
v 0.473750 0.571250 0.480625
v 0.526250 0.561250 0.703125
v 0.526250 0.561250 0.480625
v 0.526250 0.571250 0.480625
v 0.526250 0.571250 0.703125
v 0.477500 0.571250 0.685625
v 0.477500 0.571250 0.698125
v 0.477500 0.577500 0.698125
v 0.477500 0.577500 0.685625
v 0.522500 0.571250 0.698125
v 0.522500 0.571250 0.685625
v 0.522500 0.577500 0.685625
v 0.522500 0.577500 0.698125
v 0.477500 0.571250 0.654375
v 0.477500 0.571250 0.666875
v 0.477500 0.577500 0.666875
v 0.477500 0.577500 0.654375
v 0.522500 0.571250 0.666875
v 0.522500 0.571250 0.654375
v 0.522500 0.577500 0.654375
v 0.522500 0.577500 0.666875
v 0.477500 0.571250 0.623125
v 0.477500 0.571250 0.635625
v 0.477500 0.577500 0.635625
v 0.477500 0.577500 0.623125
v 0.522500 0.571250 0.635625
v 0.522500 0.571250 0.623125
v 0.522500 0.577500 0.623125
v 0.522500 0.577500 0.635625
v 0.477500 0.571250 0.591875
v 0.477500 0.571250 0.604375
v 0.477500 0.577500 0.604375
v 0.477500 0.577500 0.591875
v 0.522500 0.571250 0.604375
v 0.522500 0.571250 0.591875
v 0.522500 0.577500 0.591875
v 0.522500 0.577500 0.604375
v 0.477500 0.571250 0.560625
v 0.477500 0.571250 0.573125
v 0.477500 0.577500 0.573125
v 0.477500 0.577500 0.560625
v 0.522500 0.571250 0.573125
v 0.522500 0.571250 0.560625
v 0.522500 0.577500 0.560625
v 0.522500 0.577500 0.573125
v 0.477500 0.571250 0.529375
v 0.477500 0.571250 0.541875
v 0.477500 0.577500 0.541875
v 0.477500 0.577500 0.529375
v 0.522500 0.571250 0.541875
v 0.522500 0.571250 0.529375
v 0.522500 0.577500 0.529375
v 0.522500 0.577500 0.541875
v 0.477500 0.571250 0.498125
v 0.477500 0.571250 0.510625
v 0.477500 0.577500 0.510625
v 0.477500 0.577500 0.498125
v 0.522500 0.571250 0.510625
v 0.522500 0.571250 0.498125
v 0.522500 0.577500 0.498125
v 0.522500 0.577500 0.510625
v 0.481250 0.576250 0.469375
v 0.481250 0.576250 0.495625
v 0.481250 0.583750 0.495625
v 0.481250 0.583750 0.469375
v 0.518750 0.576250 0.495625
v 0.518750 0.576250 0.469375
v 0.518750 0.583750 0.469375
v 0.518750 0.583750 0.495625
v 0.481250 0.566875 0.159375
v 0.481250 0.566875 0.176875
v 0.481250 0.576250 0.176875
v 0.481250 0.576250 0.159375
v 0.518750 0.566875 0.176875
v 0.518750 0.566875 0.159375
v 0.518750 0.576250 0.159375
v 0.518750 0.576250 0.176875
v 0.467500 0.553750 0.135625
v 0.467500 0.553750 0.155625
v 0.467500 0.572500 0.155625
v 0.467500 0.572500 0.135625
v 0.475000 0.553750 0.155625
v 0.475000 0.553750 0.135625
v 0.475000 0.572500 0.135625
v 0.475000 0.572500 0.155625
v 0.525000 0.553750 0.135625
v 0.525000 0.553750 0.155625
v 0.525000 0.572500 0.155625
v 0.525000 0.572500 0.135625
v 0.532500 0.553750 0.155625
v 0.532500 0.553750 0.135625
v 0.532500 0.572500 0.135625
v 0.532500 0.572500 0.155625
vt 0.000977 0.061523
vt 0.061523 0.061523
vt 0.061523 0.000977
vt 0.000977 0.000977
vt 0.063477 0.061523
vt 0.124023 0.061523
vt 0.124023 0.000977
vt 0.063477 0.000977
vt 0.186523 0.000977
vt 0.125977 0.000977
vt 0.125977 0.061523
vt 0.186523 0.061523
vt 0.375977 0.061523
vt 0.436523 0.061523
vt 0.436523 0.000977
vt 0.375977 0.000977
vt 0.813477 0.186523
vt 0.874023 0.186523
vt 0.874023 0.125977
vt 0.813477 0.125977
vt 0.561523 0.000977
vt 0.500977 0.000977
vt 0.500977 0.061523
vt 0.561523 0.061523
vt 0.250977 0.186523
vt 0.311523 0.186523
vt 0.311523 0.125977
vt 0.250977 0.125977
vt 0.438477 0.061523
vt 0.499023 0.061523
vt 0.499023 0.000977
vt 0.438477 0.000977
vt 0.243137 0.000977
vt 0.194363 0.000977
vt 0.188477 0.061523
vt 0.249023 0.061523
vt 0.249023 0.000977
vt 0.196045 0.000977
vt 0.241455 0.000977
vt 0.188477 0.000977
vt 0.374023 0.000977
vt 0.313477 0.000977
vt 0.313477 0.061523
vt 0.374023 0.061523
vt 0.311523 0.000977
vt 0.250977 0.000977
vt 0.250977 0.061523
vt 0.311523 0.061523
vt 0.242857 0.000977
vt 0.194643 0.000977
vt 0.234296 0.000977
vt 0.201568 0.000977
vt 0.235932 0.000977
vt 0.203204 0.000977
vt 0.244895 0.000977
vt 0.192605 0.000977
vt 0.241057 0.000977
vt 0.196443 0.000977
vt 0.192109 0.061523
vt 0.245391 0.061523
vt 0.619366 0.000977
vt 0.568134 0.000977
vt 0.563477 0.061523
vt 0.624023 0.061523
vt 0.611049 0.000977
vt 0.576451 0.000977
vt 0.749023 0.000977
vt 0.688477 0.000977
vt 0.688477 0.061523
vt 0.749023 0.061523
vt 0.374023 0.125977
vt 0.313477 0.125977
vt 0.313477 0.186523
vt 0.374023 0.186523
vt 0.000977 0.108720
vt 0.037876 0.124023
vt 0.061523 0.076932
vt 0.027396 0.063477
vt 0.938477 0.004644
vt 0.938921 0.061523
vt 0.999023 0.053811
vt 0.998911 0.000977
vt 0.087054 0.124023
vt 0.124023 0.108656
vt 0.097668 0.063477
vt 0.063477 0.076990
vt 0.998573 0.061523
vt 0.999023 0.004644
vt 0.938590 0.000977
vt 0.938477 0.053811
vt 0.000977 0.111173
vt 0.036107 0.124023
vt 0.061523 0.072244
vt 0.028199 0.063477
vt 0.938477 0.000977
vt 0.938576 0.061110
vt 0.998284 0.061523
vt 0.999023 0.006114
vt 0.088709 0.124023
vt 0.124023 0.111015
vt 0.096975 0.063477
vt 0.063477 0.072350
vt 0.998918 0.061109
vt 0.999023 0.000977
vt 0.938477 0.006113
vt 0.939257 0.061523
vt 0.000977 0.113312
vt 0.047550 0.124023
vt 0.061523 0.063477
vt 0.017528 0.065125
vt 0.939286 0.000977
vt 0.938477 0.043574
vt 0.997116 0.061523
vt 0.999023 0.022867
vt 0.077802 0.124023
vt 0.124023 0.113069
vt 0.107140 0.065188
vt 0.063477 0.063477
vt 0.999023 0.043564
vt 0.998013 0.000977
vt 0.938477 0.022856
vt 0.940788 0.061523
vt 0.021296 0.124023
vt 0.061523 0.122374
vt 0.035523 0.063477
vt 0.000977 0.069891
vt 0.940129 0.000977
vt 0.938477 0.033457
vt 0.997428 0.061523
vt 0.999023 0.035074
vt 0.063477 0.122412
vt 0.104151 0.124023
vt 0.124023 0.069907
vt 0.089093 0.063477
vt 0.999023 0.033454
vt 0.997188 0.000977
vt 0.938477 0.035071
vt 0.940233 0.061523
vt 0.063477 0.124023
vt 0.124023 0.124023
vt 0.124023 0.063477
vt 0.124023 0.124023
vt 0.453613 0.005032
vt 0.442532 0.016113
vt 0.438477 0.031250
vt 0.442532 0.046387
vt 0.453613 0.057468
vt 0.468750 0.061523
vt 0.483887 0.057468
vt 0.494968 0.046387
vt 0.499023 0.031250
vt 0.494968 0.016113
vt 0.483887 0.005032
vt 0.468750 0.000977
vt 0.500977 0.125977
vt 0.500977 0.186523
vt 0.561523 0.186523
vt 0.561523 0.125977
vt 0.582165 0.128281
vt 0.572343 0.134843
vt 0.565781 0.144665
vt 0.563477 0.156250
vt 0.565781 0.167835
vt 0.572343 0.177657
vt 0.582165 0.184219
vt 0.593750 0.186523
vt 0.605335 0.184219
vt 0.615157 0.177657
vt 0.621719 0.167835
vt 0.624023 0.156250
vt 0.621719 0.144665
vt 0.615157 0.134843
vt 0.605335 0.128281
vt 0.593750 0.125977
vt 0.578613 0.130032
vt 0.567532 0.141113
vt 0.567532 0.171387
vt 0.578613 0.182468
vt 0.608887 0.182468
vt 0.619968 0.171387
vt 0.619968 0.141113
vt 0.608887 0.130032
vt 0.024624 0.124023
vt 0.061523 0.108720
vt 0.035104 0.063477
vt 0.000977 0.076932
vt 0.938927 0.061523
vt 0.998910 0.000977
vt 0.063477 0.108656
vt 0.100446 0.124023
vt 0.124023 0.076990
vt 0.089832 0.063477
vt 0.998579 0.061523
vt 0.938589 0.000977
vt 0.026393 0.124023
vt 0.061523 0.111173
vt 0.034301 0.063477
vt 0.000977 0.072244
vt 0.938582 0.061109
vt 0.998243 0.061523
vt 0.999023 0.006113
vt 0.063477 0.111015
vt 0.098791 0.124023
vt 0.124023 0.072350
vt 0.090525 0.063477
vt 0.998924 0.061110
vt 0.938477 0.006114
vt 0.939216 0.061523
vt 0.014950 0.124023
vt 0.061523 0.113312
vt 0.044972 0.065125
vt 0.000977 0.063477
vt 0.939487 0.000977
vt 0.938477 0.043564
vt 0.996712 0.061523
vt 0.999023 0.022856
vt 0.063477 0.113069
vt 0.109698 0.124023
vt 0.080360 0.065188
vt 0.999023 0.043574
vt 0.998214 0.000977
vt 0.938477 0.022867
vt 0.940384 0.061523
vt 0.000977 0.122374
vt 0.041204 0.124023
vt 0.061523 0.069891
vt 0.026977 0.063477
vt 0.940312 0.000977
vt 0.938477 0.033454
vt 0.997267 0.061523
vt 0.999023 0.035071
vt 0.083349 0.124023
vt 0.124023 0.122412
vt 0.098407 0.063477
vt 0.063477 0.069907
vt 0.999023 0.033457
vt 0.997371 0.000977
vt 0.938477 0.035074
vt 0.940072 0.061523
vt 0.063477 0.124023
vt 0.622417 0.124023
vt 0.624023 0.119022
vt 0.565083 0.063477
vt 0.563477 0.068478
vt 0.501027 0.063477
vt 0.500977 0.108659
vt 0.561473 0.124023
vt 0.561523 0.078841
vt 0.625977 0.119022
vt 0.627583 0.124023
vt 0.686523 0.068478
vt 0.684917 0.063477
vt 0.561523 0.108659
vt 0.561473 0.063477
vt 0.500977 0.078841
vt 0.501027 0.124023
vt 0.625977 0.124023
vt 0.686523 0.124023
vt 0.686523 0.063477
vt 0.625977 0.063477
vt 0.686523 0.063477
vt 0.686523 0.124023
vt 0.563477 0.119022
vt 0.565083 0.124023
vt 0.624023 0.068478
vt 0.622417 0.063477
vt 0.684917 0.124023
vt 0.686523 0.119022
vt 0.627583 0.063477
vt 0.625977 0.068478
vt 0.811523 0.064897
vt 0.808094 0.063477
vt 0.750977 0.122603
vt 0.754406 0.124023
vt 0.688477 0.106407
vt 0.688689 0.124023
vt 0.749023 0.081093
vt 0.748811 0.063477
vt 0.816906 0.063477
vt 0.813477 0.064897
vt 0.870594 0.124023
vt 0.874023 0.122603
vt 0.748811 0.124023
vt 0.749023 0.106407
vt 0.688689 0.063477
vt 0.688477 0.081093
vt 0.813477 0.124023
vt 0.874023 0.124023
vt 0.874023 0.063477
vt 0.813477 0.063477
vt 0.874023 0.063477
vt 0.754406 0.063477
vt 0.750977 0.064897
vt 0.808094 0.124023
vt 0.811523 0.122603
vt 0.874023 0.064897
vt 0.870594 0.063477
vt 0.813477 0.122603
vt 0.816906 0.124023
vt 0.874023 0.124023
vt 0.813477 0.063477
vt 0.874023 0.063477
vt 0.874023 0.124023
vt 0.245239 0.000977
vt 0.192261 0.000977
vt 0.244987 0.000977
vt 0.193522 0.000977
vt 0.243978 0.000977
vt 0.192513 0.000977
vt 0.060480 0.000977
vt 0.002020 0.000977
vt 0.058771 0.000977
vt 0.003729 0.000977
vt 0.063477 0.186523
vt 0.124023 0.186523
vt 0.124023 0.125977
vt 0.063477 0.125977
vt 0.403921 0.061523
vt 0.408579 0.000977
vt 0.408579 0.061523
vt 0.403921 0.000977
vt 0.875977 0.063477
vt 0.875977 0.124023
vt 0.936523 0.124023
vt 0.936523 0.063477
vt 0.947343 0.072343
vt 0.938477 0.093750
vt 0.947343 0.115157
vt 0.968750 0.124023
vt 0.990157 0.115157
vt 0.999023 0.093750
vt 0.990157 0.072343
vt 0.968750 0.063477
vt 0.567513 0.061523
vt 0.619987 0.061523
vt 0.624023 0.000977
vt 0.563477 0.000977
vt 0.587263 0.061523
vt 0.607806 0.000977
vt 0.600237 0.061523
vt 0.579694 0.000977
vt 0.936523 0.000977
vt 0.875977 0.000977
vt 0.875977 0.061523
vt 0.936523 0.061523
vt 0.625977 0.061523
vt 0.686523 0.061523
vt 0.686523 0.000977
vt 0.625977 0.000977
vt 0.375977 0.186523
vt 0.436523 0.186523
vt 0.436523 0.125977
vt 0.375977 0.125977
vt 0.000977 0.061411
vt 0.060837 0.000977
vt 0.000977 0.001089
vt 0.058392 0.000977
vt 0.004108 0.000977
vt 0.061523 0.061411
vt 0.061523 0.001089
vt 0.001663 0.000977
vt 0.120892 0.000977
vt 0.066608 0.000977
vt 0.616211 0.000977
vt 0.571289 0.000977
vt 0.620269 0.000977
vt 0.567701 0.000977
vt 0.619799 0.000977
vt 0.567231 0.000977
vt 0.750977 0.061523
vt 0.811523 0.061523
vt 0.808064 0.000977
vt 0.754436 0.000977
vt 0.780039 0.061523
vt 0.811523 0.000977
vt 0.777617 0.000977
vt 0.782461 0.061523
vt 0.784883 0.000977
vt 0.750977 0.000977
vt 0.874023 0.000977
vt 0.813477 0.000977
vt 0.813477 0.061523
vt 0.874023 0.061523
vt 0.625977 0.125977
vt 0.625977 0.186523
vt 0.686523 0.186523
vt 0.686523 0.125977
vt 0.374023 0.124023
vt 0.374023 0.063477
vt 0.313477 0.063477
vt 0.313477 0.124023
vt 0.373574 0.124023
vt 0.374023 0.075009
vt 0.314032 0.063477
vt 0.372542 0.124023
vt 0.374023 0.084002
vt 0.315306 0.063477
vt 0.313477 0.112915
vt 0.370815 0.124023
vt 0.374023 0.093793
vt 0.317440 0.063477
vt 0.313477 0.100821
vt 0.368257 0.063477
vt 0.319243 0.063477
vt 0.313477 0.093793
vt 0.316685 0.124023
vt 0.374023 0.100821
vt 0.370060 0.063477
vt 0.313477 0.084002
vt 0.314958 0.124023
vt 0.374023 0.112915
vt 0.372194 0.063477
vt 0.313477 0.075009
vt 0.313926 0.124023
vt 0.373468 0.063477
vt 0.313926 0.063477
vt 0.313477 0.112491
vt 0.373468 0.124023
vt 0.374023 0.063477
vt 0.314958 0.063477
vt 0.313477 0.103498
vt 0.372194 0.124023
vt 0.374023 0.074585
vt 0.316685 0.063477
vt 0.313477 0.093707
vt 0.370060 0.124023
vt 0.374023 0.086679
vt 0.368257 0.063477
vt 0.374023 0.093707
vt 0.370815 0.063477
vt 0.313477 0.086679
vt 0.317440 0.124023
vt 0.374023 0.103498
vt 0.372542 0.063477
vt 0.313477 0.074585
vt 0.315306 0.124023
vt 0.374023 0.112491
vt 0.373574 0.063477
vt 0.314032 0.124023
vt 0.367472 0.063477
vt 0.313477 0.066360
vt 0.319716 0.124023
vt 0.374023 0.120803
vt 0.356405 0.063477
vt 0.313477 0.069426
vt 0.330256 0.124023
vt 0.374023 0.115883
vt 0.344840 0.063477
vt 0.313477 0.074113
vt 0.341270 0.124023
vt 0.314918 0.124023
vt 0.372582 0.124023
vt 0.372582 0.124023
vt 0.342660 0.063477
vt 0.313477 0.115883
vt 0.346230 0.124023
vt 0.374023 0.074113
vt 0.331095 0.063477
vt 0.313477 0.120803
vt 0.357244 0.124023
vt 0.374023 0.069426
vt 0.320028 0.063477
vt 0.367784 0.124023
vt 0.374023 0.066360
vt 0.320028 0.124023
vt 0.374023 0.121140
vt 0.367784 0.063477
vt 0.313477 0.066697
vt 0.331095 0.124023
vt 0.374023 0.118074
vt 0.357244 0.063477
vt 0.313477 0.071617
vt 0.342660 0.124023
vt 0.374023 0.113387
vt 0.346230 0.063477
vt 0.344840 0.124023
vt 0.374023 0.071617
vt 0.341270 0.063477
vt 0.313477 0.113387
vt 0.356405 0.124023
vt 0.374023 0.066697
vt 0.330256 0.063477
vt 0.313477 0.118074
vt 0.367472 0.124023
vt 0.319716 0.063477
vt 0.313477 0.121140
vt 0.749023 0.156250
vt 0.746719 0.144665
vt 0.740157 0.134843
vt 0.730335 0.128281
vt 0.718750 0.125977
vt 0.707165 0.128281
vt 0.697343 0.134843
vt 0.690781 0.144665
vt 0.688477 0.156250
vt 0.690781 0.167835
vt 0.697343 0.177657
vt 0.707165 0.184219
vt 0.718750 0.186523
vt 0.730335 0.184219
vt 0.740157 0.177657
vt 0.746719 0.167835
vt 0.374023 0.124023
vt 0.373966 0.063477
vt 0.313477 0.065257
vt 0.313533 0.124023
vt 0.374023 0.121993
vt 0.373829 0.063477
vt 0.313477 0.067228
vt 0.313665 0.124023
vt 0.374023 0.118723
vt 0.373591 0.063477
vt 0.313477 0.070402
vt 0.313897 0.124023
vt 0.314367 0.124023
vt 0.373133 0.124023
vt 0.313909 0.063477
vt 0.313477 0.118723
vt 0.373603 0.124023
vt 0.374023 0.070402
vt 0.313671 0.063477
vt 0.313477 0.121993
vt 0.373835 0.124023
vt 0.374023 0.067228
vt 0.313534 0.063477
vt 0.313477 0.124023
vt 0.373967 0.124023
vt 0.374023 0.065257
vt 0.313534 0.124023
vt 0.374023 0.122243
vt 0.373967 0.063477
vt 0.313477 0.065507
vt 0.313671 0.124023
vt 0.374023 0.120272
vt 0.373835 0.063477
vt 0.313477 0.068777
vt 0.313909 0.124023
vt 0.374023 0.117098
vt 0.373603 0.063477
vt 0.373591 0.124023
vt 0.374023 0.068777
vt 0.313897 0.063477
vt 0.313477 0.117098
vt 0.373829 0.124023
vt 0.374023 0.065507
vt 0.313665 0.063477
vt 0.313477 0.120272
vt 0.373966 0.124023
vt 0.313533 0.063477
vt 0.313477 0.122243
vt 0.753281 0.167835
vt 0.759843 0.177657
vt 0.769665 0.184219
vt 0.781250 0.186523
vt 0.792835 0.184219
vt 0.802657 0.177657
vt 0.809219 0.167835
vt 0.811523 0.156250
vt 0.809219 0.144665
vt 0.802657 0.134843
vt 0.792835 0.128281
vt 0.781250 0.125977
vt 0.769665 0.128281
vt 0.759843 0.134843
vt 0.753281 0.144665
vt 0.750977 0.156250
vt 0.809220 0.000977
vt 0.750977 0.006481
vt 0.753070 0.061523
vt 0.811523 0.055660
vt 0.804397 0.000977
vt 0.750977 0.011812
vt 0.757455 0.061523
vt 0.811523 0.047675
vt 0.797513 0.000977
vt 0.750977 0.019070
vt 0.763713 0.061523
vt 0.753729 0.061523
vt 0.808771 0.061523
vt 0.764987 0.000977
vt 0.750977 0.047675
vt 0.798787 0.061523
vt 0.811523 0.019070
vt 0.758103 0.000977
vt 0.750977 0.055660
vt 0.805045 0.061523
vt 0.811523 0.011812
vt 0.753280 0.000977
vt 0.809430 0.061523
vt 0.811523 0.006481
vt 0.753280 0.061523
vt 0.811523 0.056019
vt 0.809430 0.000977
vt 0.750977 0.006840
vt 0.758103 0.061523
vt 0.811523 0.050688
vt 0.805045 0.000977
vt 0.750977 0.014825
vt 0.764987 0.061523
vt 0.811523 0.043430
vt 0.798787 0.000977
vt 0.797513 0.061523
vt 0.811523 0.014825
vt 0.763713 0.000977
vt 0.750977 0.043430
vt 0.804397 0.061523
vt 0.811523 0.006840
vt 0.757455 0.000977
vt 0.750977 0.050688
vt 0.809220 0.061523
vt 0.753070 0.000977
vt 0.750977 0.056019
vt 0.878281 0.042835
vt 0.884843 0.052657
vt 0.894665 0.059219
vt 0.906250 0.061523
vt 0.917835 0.059219
vt 0.927657 0.052657
vt 0.934219 0.042835
vt 0.936523 0.031250
vt 0.934219 0.019665
vt 0.927657 0.009843
vt 0.917835 0.003281
vt 0.906250 0.000977
vt 0.894665 0.003281
vt 0.884843 0.009843
vt 0.878281 0.019665
vt 0.875977 0.031250
vt 0.499023 0.186523
vt 0.499023 0.125977
vt 0.438477 0.125977
vt 0.438477 0.186523
vt 0.253281 0.042835
vt 0.259843 0.052657
vt 0.269665 0.059219
vt 0.281250 0.061523
vt 0.292835 0.059219
vt 0.302657 0.052657
vt 0.309219 0.042835
vt 0.311523 0.031250
vt 0.309219 0.019665
vt 0.302657 0.009843
vt 0.292835 0.003281
vt 0.281250 0.000977
vt 0.269665 0.003281
vt 0.259843 0.009843
vt 0.253281 0.019665
vt 0.250977 0.031250
vt 0.438477 0.156250
vt 0.442532 0.171387
vt 0.453613 0.182468
vt 0.468750 0.186523
vt 0.483887 0.182468
vt 0.494968 0.171387
vt 0.499023 0.156250
vt 0.494968 0.141113
vt 0.483887 0.130032
vt 0.468750 0.125977
vt 0.453613 0.130032
vt 0.442532 0.141113
vt 0.938477 0.124023
vt 0.999023 0.124023
vt 0.999023 0.063477
vt 0.938477 0.063477
vt 0.061523 0.125977
vt 0.000977 0.125977
vt 0.000977 0.186523
vt 0.061523 0.186523
usemtl mat
f 1/1 2/2 3/3
f 1/1 3/3 4/4
f 5/1 6/2 7/3
f 5/1 7/3 8/4
f 6/1 1/2 4/3
f 6/1 4/3 7/4
f 2/1 5/2 8/3
f 2/1 8/3 3/4
f 7/5 4/6 3/7
f 7/5 3/7 8/8
f 5/9 2/10 1/11
f 5/9 1/11 6/12
f 4/1 3/2 9/3
f 4/1 9/3 10/4
f 11/1 12/2 13/3
f 11/1 13/3 14/4
f 12/1 4/2 10/3
f 12/1 10/3 13/4
f 3/1 11/2 14/3
f 3/1 14/3 9/4
f 13/5 10/6 9/7
f 13/5 9/7 14/8
f 11/9 3/10 4/11
f 11/9 4/11 12/12
f 15/1 16/2 17/3
f 15/1 17/3 18/4
f 8/1 7/2 19/3
f 8/1 19/3 20/4
f 7/1 15/2 18/3
f 7/1 18/3 19/4
f 16/1 8/2 20/3
f 16/1 20/3 17/4
f 19/5 18/6 17/7
f 19/5 17/7 20/8
f 8/9 16/10 15/11
f 8/9 15/11 7/12
f 12/13 11/14 21/15
f 12/13 21/15 22/16
f 16/13 15/14 23/15
f 16/13 23/15 24/16
f 15/13 12/14 22/15
f 15/13 22/15 23/16
f 11/13 16/14 24/15
f 11/13 24/15 21/16
f 23/17 22/18 21/19
f 23/17 21/19 24/20
f 16/21 11/22 12/23
f 16/21 12/23 15/24
f 25/25 26/26 27/27
f 25/25 27/27 28/28
f 29/1 30/2 31/3
f 29/1 31/3 32/4
f 30/1 25/2 28/3
f 30/1 28/3 31/4
f 26/1 29/2 32/3
f 26/1 32/3 27/4
f 31/5 28/6 27/7
f 31/5 27/7 32/8
f 29/9 26/10 25/11
f 29/9 25/11 30/12
f 33/25 34/26 35/27
f 33/25 35/27 36/28
f 37/1 38/2 39/3
f 37/1 39/3 40/4
f 38/1 33/2 36/3
f 38/1 36/3 39/4
f 34/1 37/2 40/3
f 34/1 40/3 35/4
f 39/5 36/6 35/7
f 39/5 35/7 40/8
f 37/9 34/10 33/11
f 37/9 33/11 38/12
f 41/1 42/2 43/3
f 41/1 43/3 44/4
f 45/25 46/26 47/27
f 45/25 47/27 48/28
f 46/1 41/2 44/3
f 46/1 44/3 47/4
f 42/1 45/2 48/3
f 42/1 48/3 43/4
f 47/5 44/6 43/7
f 47/5 43/7 48/8
f 45/9 42/10 41/11
f 45/9 41/11 46/12
f 49/1 50/2 51/3
f 49/1 51/3 52/4
f 53/25 54/26 55/27
f 53/25 55/27 56/28
f 54/1 49/2 52/3
f 54/1 52/3 55/4
f 50/1 53/2 56/3
f 50/1 56/3 51/4
f 55/5 52/6 51/7
f 55/5 51/7 56/8
f 53/9 50/10 49/11
f 53/9 49/11 54/12
f 57/13 58/14 59/15
f 57/13 59/15 60/16
f 61/13 62/14 63/15
f 61/13 63/15 64/16
f 62/13 57/14 60/15
f 62/13 60/15 63/16
f 58/13 61/14 64/15
f 58/13 64/15 59/16
f 63/29 60/30 59/31
f 63/29 59/31 64/32
f 61/21 58/22 57/23
f 61/21 57/23 62/24
f 65/13 66/14 67/15
f 65/13 67/15 68/16
f 69/13 70/14 71/15
f 69/13 71/15 72/16
f 70/13 65/14 68/15
f 70/13 68/15 71/16
f 66/13 69/14 72/15
f 66/13 72/15 67/16
f 71/29 68/30 67/31
f 71/29 67/31 72/32
f 69/21 66/22 65/23
f 69/21 65/23 70/24
f 73/13 74/14 75/15
f 73/13 75/15 76/16
f 77/13 78/14 79/15
f 77/13 79/15 80/16
f 78/13 73/14 76/15
f 78/13 76/15 79/16
f 74/13 77/14 80/15
f 74/13 80/15 75/16
f 79/29 76/30 75/31
f 79/29 75/31 80/32
f 77/21 74/22 73/23
f 77/21 73/23 78/24
f 81/13 82/14 83/15
f 81/13 83/15 84/16
f 85/13 86/14 87/15
f 85/13 87/15 88/16
f 86/13 81/14 84/15
f 86/13 84/15 87/16
f 82/13 85/14 88/15
f 82/13 88/15 83/16
f 87/29 84/30 83/31
f 87/29 83/31 88/32
f 85/21 82/22 81/23
f 85/21 81/23 86/24
f 89/13 90/14 91/15
f 89/13 91/15 92/16
f 93/13 94/14 95/15
f 93/13 95/15 96/16
f 94/13 89/14 92/15
f 94/13 92/15 95/16
f 90/13 93/14 96/15
f 90/13 96/15 91/16
f 95/29 92/30 91/31
f 95/29 91/31 96/32
f 93/21 90/22 89/23
f 93/21 89/23 94/24
f 97/13 98/14 99/15
f 97/13 99/15 100/16
f 101/13 102/14 103/15
f 101/13 103/15 104/16
f 102/13 97/14 100/15
f 102/13 100/15 103/16
f 98/13 101/14 104/15
f 98/13 104/15 99/16
f 103/29 100/30 99/31
f 103/29 99/31 104/32
f 101/21 98/22 97/23
f 101/21 97/23 102/24
f 105/13 106/14 107/15
f 105/13 107/15 108/16
f 109/13 110/14 111/15
f 109/13 111/15 112/16
f 110/13 105/14 108/15
f 110/13 108/15 111/16
f 106/13 109/14 112/15
f 106/13 112/15 107/16
f 111/29 108/30 107/31
f 111/29 107/31 112/32
f 109/21 106/22 105/23
f 109/21 105/23 110/24
f 113/33 114/34 115/35
f 113/33 115/35 116/36
f 115/35 117/36 118/37
f 115/35 118/37 114/38
f 117/35 119/36 120/33
f 117/35 120/33 118/34
f 119/35 116/36 113/39
f 119/35 113/39 120/40
f 119/41 117/42 115/43
f 119/41 115/43 116/44
f 120/45 118/46 114/47
f 120/45 114/47 113/48
f 121/35 122/36 123/37
f 121/35 123/37 124/40
f 125/35 126/36 127/37
f 125/35 127/37 128/40
f 126/35 121/36 124/37
f 126/35 124/37 127/40
f 122/35 125/36 128/37
f 122/35 128/37 123/40
f 127/47 124/48 123/45
f 127/47 123/45 128/46
f 125/41 122/42 121/43
f 125/41 121/43 126/44
f 129/49 130/50 131/35
f 129/49 131/35 132/36
f 131/35 133/36 134/51
f 131/35 134/51 130/52
f 133/35 135/36 136/49
f 133/35 136/49 134/50
f 135/35 132/36 129/53
f 135/35 129/53 136/54
f 135/41 133/42 131/43
f 135/41 131/43 132/44
f 136/45 134/46 130/47
f 136/45 130/47 129/48
f 137/55 138/56 139/35
f 137/55 139/35 140/36
f 138/57 141/58 142/35
f 138/57 142/35 139/36
f 142/35 143/36 144/55
f 142/35 144/55 141/56
f 143/35 140/36 137/57
f 143/35 137/57 144/58
f 143/41 142/42 139/43
f 143/41 139/43 140/44
f 144/45 141/46 138/47
f 144/45 138/47 137/48
f 145/37 146/40 147/59
f 145/37 147/59 148/60
f 147/35 149/36 150/57
f 147/35 150/57 146/58
f 149/59 151/60 152/37
f 149/59 152/37 150/40
f 152/57 145/58 148/35
f 152/57 148/35 151/36
f 151/41 149/42 147/43
f 151/41 147/43 148/44
f 152/45 150/46 146/47
f 152/45 146/47 145/48
f 153/1 154/2 155/3
f 153/1 155/3 156/4
f 157/1 158/2 159/3
f 157/1 159/3 160/4
f 158/1 153/2 156/3
f 158/1 156/3 159/4
f 154/1 157/2 160/3
f 154/1 160/3 155/4
f 159/5 156/6 155/7
f 159/5 155/7 160/8
f 157/9 154/10 153/11
f 157/9 153/11 158/12
f 161/35 162/36 163/37
f 161/35 163/37 164/40
f 165/35 166/36 167/37
f 165/35 167/37 168/40
f 166/35 161/36 164/37
f 166/35 164/37 167/40
f 162/35 165/36 168/37
f 162/35 168/37 163/40
f 167/47 164/48 163/45
f 167/47 163/45 168/46
f 165/41 162/42 161/43
f 165/41 161/43 166/44
f 169/35 170/36 171/37
f 169/35 171/37 172/40
f 173/35 174/36 175/37
f 173/35 175/37 176/40
f 174/35 169/36 172/37
f 174/35 172/37 175/40
f 170/35 173/36 176/37
f 170/35 176/37 171/40
f 175/47 172/48 171/45
f 175/47 171/45 176/46
f 173/41 170/42 169/43
f 173/41 169/43 174/44
f 177/35 162/36 178/37
f 177/35 178/37 179/40
f 173/35 180/36 181/37
f 173/35 181/37 182/40
f 180/35 177/36 179/37
f 180/35 179/37 181/40
f 162/35 173/36 182/37
f 162/35 182/37 178/40
f 181/47 179/48 178/45
f 181/47 178/45 182/46
f 173/41 162/42 177/43
f 173/41 177/43 180/44
f 183/61 184/62 185/63
f 183/61 185/63 186/64
f 184/65 187/66 188/63
f 184/65 188/63 185/64
f 188/63 189/64 190/61
f 188/63 190/61 187/62
f 190/65 183/66 186/63
f 190/65 186/63 189/64
f 189/67 188/68 185/69
f 189/67 185/69 186/70
f 190/71 187/72 184/73
f 190/71 184/73 183/74
f 191/75 192/76 193/77
f 191/75 193/77 194/78
f 192/79 195/80 196/81
f 192/79 196/81 193/82
f 195/83 197/84 198/85
f 195/83 198/85 196/86
f 197/87 191/88 194/89
f 197/87 194/89 198/90
f 194/91 193/92 199/93
f 194/91 199/93 200/94
f 193/95 196/96 201/97
f 193/95 201/97 199/98
f 196/99 198/100 202/101
f 196/99 202/101 201/102
f 198/103 194/104 200/105
f 198/103 200/105 202/106
f 200/107 199/108 203/109
f 200/107 203/109 204/110
f 199/111 201/112 205/113
f 199/111 205/113 203/114
f 201/115 202/116 206/117
f 201/115 206/117 205/118
f 202/119 200/120 204/121
f 202/119 204/121 206/122
f 204/123 203/124 207/125
f 204/123 207/125 208/126
f 203/127 205/128 209/129
f 203/127 209/129 207/130
f 205/131 206/132 210/133
f 205/131 210/133 209/134
f 206/135 204/136 208/137
f 206/135 208/137 210/138
f 197/139 195/140 192/141
f 197/139 192/141 191/118
f 208/141 207/118 209/139
f 208/141 209/139 210/142
f 211/16 212/13 213/14
f 211/16 213/14 214/15
f 212/16 215/13 216/14
f 212/16 216/14 213/15
f 215/16 217/13 218/14
f 215/16 218/14 216/15
f 217/16 219/13 220/14
f 217/16 220/14 218/15
f 219/16 221/13 222/14
f 219/16 222/14 220/15
f 221/14 223/15 224/16
f 221/14 224/16 222/13
f 223/14 225/15 226/16
f 223/14 226/16 224/13
f 225/14 227/15 228/16
f 225/14 228/16 226/13
f 227/14 229/15 230/16
f 227/14 230/16 228/13
f 229/14 231/15 232/16
f 229/14 232/16 230/13
f 231/14 233/15 234/16
f 231/14 234/16 232/13
f 233/16 211/13 214/14
f 233/16 214/14 234/15
f 233/143 231/144 229/145
f 233/143 229/145 227/146
f 233/143 227/146 225/147
f 233/143 225/147 223/148
f 233/143 223/148 221/149
f 233/143 221/149 219/150
f 233/143 219/150 217/151
f 233/143 217/151 215/152
f 233/143 215/152 212/153
f 233/143 212/153 211/154
f 214/154 213/143 216/144
f 214/154 216/144 218/145
f 214/154 218/145 220/146
f 214/154 220/146 222/147
f 214/154 222/147 224/148
f 214/154 224/148 226/149
f 214/154 226/149 228/150
f 214/154 228/150 230/151
f 214/154 230/151 232/152
f 214/154 232/152 234/153
f 235/155 236/156 237/157
f 235/155 237/157 238/158
f 236/155 239/156 240/157
f 236/155 240/157 237/158
f 239/155 241/156 242/157
f 239/155 242/157 240/158
f 241/155 243/156 244/157
f 241/155 244/157 242/158
f 243/155 245/156 246/157
f 243/155 246/157 244/158
f 245/155 247/156 248/157
f 245/155 248/157 246/158
f 247/155 249/156 250/157
f 247/155 250/157 248/158
f 249/157 251/158 252/155
f 249/157 252/155 250/156
f 251/157 253/158 254/155
f 251/157 254/155 252/156
f 253/157 255/158 256/155
f 253/157 256/155 254/156
f 255/157 257/158 258/155
f 255/157 258/155 256/156
f 257/157 259/158 260/155
f 257/157 260/155 258/156
f 259/157 261/158 262/155
f 259/157 262/155 260/156
f 261/157 263/158 264/155
f 261/157 264/155 262/156
f 263/157 265/158 266/155
f 263/157 266/155 264/156
f 265/155 235/156 238/157
f 265/155 238/157 266/158
f 265/159 263/160 261/161
f 265/159 261/161 259/162
f 265/159 259/162 257/163
f 265/159 257/163 255/164
f 265/159 255/164 253/165
f 265/159 253/165 251/166
f 265/159 251/166 249/167
f 265/159 249/167 247/168
f 265/159 247/168 245/169
f 265/159 245/169 243/170
f 265/159 243/170 241/171
f 265/159 241/171 239/172
f 265/159 239/172 236/173
f 265/159 236/173 235/174
f 238/174 237/159 240/160
f 238/174 240/160 242/161
f 238/174 242/161 244/162
f 238/174 244/162 246/163
f 238/174 246/163 248/164
f 238/174 248/164 250/165
f 238/174 250/165 252/166
f 238/174 252/166 254/167
f 238/174 254/167 256/168
f 238/174 256/168 258/169
f 238/174 258/169 260/170
f 238/174 260/170 262/171
f 238/174 262/171 264/172
f 238/174 264/172 266/173
f 267/16 268/13 269/14
f 267/16 269/14 270/15
f 268/16 271/13 272/14
f 268/16 272/14 269/15
f 271/16 273/13 274/14
f 271/16 274/14 272/15
f 273/16 275/13 276/14
f 273/16 276/14 274/15
f 275/16 277/13 278/14
f 275/16 278/14 276/15
f 277/14 279/15 280/16
f 277/14 280/16 278/13
f 279/14 281/15 282/16
f 279/14 282/16 280/13
f 281/14 283/15 284/16
f 281/14 284/16 282/13
f 283/14 285/15 286/16
f 283/14 286/16 284/13
f 285/14 287/15 288/16
f 285/14 288/16 286/13
f 287/14 289/15 290/16
f 287/14 290/16 288/13
f 289/16 267/13 270/14
f 289/16 270/14 290/15
f 289/175 287/176 285/162
f 289/175 285/162 283/177
f 289/175 283/177 281/178
f 289/175 281/178 279/166
f 289/175 279/166 277/179
f 289/175 277/179 275/180
f 289/175 275/180 273/170
f 289/175 273/170 271/181
f 289/175 271/181 268/182
f 289/175 268/182 267/174
f 270/174 269/175 272/176
f 270/174 272/176 274/162
f 270/174 274/162 276/177
f 270/174 276/177 278/178
f 270/174 278/178 280/166
f 270/174 280/166 282/179
f 270/174 282/179 284/180
f 270/174 284/180 286/170
f 270/174 286/170 288/181
f 270/174 288/181 290/182
f 291/183 292/184 293/185
f 291/183 293/185 294/186
f 292/79 295/187 296/81
f 292/79 296/81 293/188
f 295/189 297/190 298/191
f 295/189 298/191 296/192
f 297/193 291/88 294/194
f 297/193 294/194 298/90
f 294/195 293/196 299/197
f 294/195 299/197 300/198
f 293/95 296/199 301/200
f 293/95 301/200 299/201
f 296/202 298/203 302/204
f 296/202 302/204 301/205
f 298/206 294/104 300/207
f 298/206 300/207 302/208
f 300/209 299/210 303/211
f 300/209 303/211 304/212
f 299/213 301/214 305/215
f 299/213 305/215 303/216
f 301/217 302/218 306/141
f 301/217 306/141 305/219
f 302/220 300/221 304/222
f 302/220 304/222 306/223
f 304/224 303/225 307/226
f 304/224 307/226 308/227
f 303/228 305/229 309/230
f 303/228 309/230 307/231
f 305/232 306/233 310/234
f 305/232 310/234 309/235
f 306/236 304/237 308/238
f 306/236 308/238 310/239
f 297/139 295/140 292/141
f 297/139 292/141 291/118
f 308/141 307/118 309/240
f 308/141 309/240 310/140
f 311/16 312/13 313/14
f 311/16 313/14 314/15
f 312/16 315/13 316/14
f 312/16 316/14 313/15
f 315/16 317/13 318/14
f 315/16 318/14 316/15
f 317/16 319/13 320/14
f 317/16 320/14 318/15
f 319/16 321/13 322/14
f 319/16 322/14 320/15
f 321/14 323/15 324/16
f 321/14 324/16 322/13
f 323/14 325/15 326/16
f 323/14 326/16 324/13
f 325/14 327/15 328/16
f 325/14 328/16 326/13
f 327/14 329/15 330/16
f 327/14 330/16 328/13
f 329/14 331/15 332/16
f 329/14 332/16 330/13
f 331/14 333/15 334/16
f 331/14 334/16 332/13
f 333/16 311/13 314/14
f 333/16 314/14 334/15
f 333/143 331/144 329/145
f 333/143 329/145 327/146
f 333/143 327/146 325/147
f 333/143 325/147 323/148
f 333/143 323/148 321/149
f 333/143 321/149 319/150
f 333/143 319/150 317/151
f 333/143 317/151 315/152
f 333/143 315/152 312/153
f 333/143 312/153 311/154
f 314/154 313/143 316/144
f 314/154 316/144 318/145
f 314/154 318/145 320/146
f 314/154 320/146 322/147
f 314/154 322/147 324/148
f 314/154 324/148 326/149
f 314/154 326/149 328/150
f 314/154 328/150 330/151
f 314/154 330/151 332/152
f 314/154 332/152 334/153
f 335/155 336/156 337/157
f 335/155 337/157 338/158
f 336/155 339/156 340/157
f 336/155 340/157 337/158
f 339/155 341/156 342/157
f 339/155 342/157 340/158
f 341/155 343/156 344/157
f 341/155 344/157 342/158
f 343/155 345/156 346/157
f 343/155 346/157 344/158
f 345/155 347/156 348/157
f 345/155 348/157 346/158
f 347/155 349/156 350/157
f 347/155 350/157 348/158
f 349/157 351/158 352/155
f 349/157 352/155 350/156
f 351/157 353/158 354/155
f 351/157 354/155 352/156
f 353/157 355/158 356/155
f 353/157 356/155 354/156
f 355/157 357/158 358/155
f 355/157 358/155 356/156
f 357/157 359/158 360/155
f 357/157 360/155 358/156
f 359/157 361/158 362/155
f 359/157 362/155 360/156
f 361/157 363/158 364/155
f 361/157 364/155 362/156
f 363/157 365/158 366/155
f 363/157 366/155 364/156
f 365/155 335/156 338/157
f 365/155 338/157 366/158
f 365/159 363/160 361/161
f 365/159 361/161 359/162
f 365/159 359/162 357/163
f 365/159 357/163 355/164
f 365/159 355/164 353/165
f 365/159 353/165 351/166
f 365/159 351/166 349/167
f 365/159 349/167 347/168
f 365/159 347/168 345/169
f 365/159 345/169 343/170
f 365/159 343/170 341/171
f 365/159 341/171 339/172
f 365/159 339/172 336/173
f 365/159 336/173 335/174
f 338/174 337/159 340/160
f 338/174 340/160 342/161
f 338/174 342/161 344/162
f 338/174 344/162 346/163
f 338/174 346/163 348/164
f 338/174 348/164 350/165
f 338/174 350/165 352/166
f 338/174 352/166 354/167
f 338/174 354/167 356/168
f 338/174 356/168 358/169
f 338/174 358/169 360/170
f 338/174 360/170 362/171
f 338/174 362/171 364/172
f 338/174 364/172 366/173
f 367/16 368/13 369/14
f 367/16 369/14 370/15
f 368/16 371/13 372/14
f 368/16 372/14 369/15
f 371/16 373/13 374/14
f 371/16 374/14 372/15
f 373/16 375/13 376/14
f 373/16 376/14 374/15
f 375/16 377/13 378/14
f 375/16 378/14 376/15
f 377/14 379/15 380/16
f 377/14 380/16 378/13
f 379/14 381/15 382/16
f 379/14 382/16 380/13
f 381/14 383/15 384/16
f 381/14 384/16 382/13
f 383/14 385/15 386/16
f 383/14 386/16 384/13
f 385/14 387/15 388/16
f 385/14 388/16 386/13
f 387/14 389/15 390/16
f 387/14 390/16 388/13
f 389/16 367/13 370/14
f 389/16 370/14 390/15
f 389/175 387/176 385/162
f 389/175 385/162 383/177
f 389/175 383/177 381/178
f 389/175 381/178 379/166
f 389/175 379/166 377/179
f 389/175 377/179 375/180
f 389/175 375/180 373/170
f 389/175 373/170 371/181
f 389/175 371/181 368/182
f 389/175 368/182 367/174
f 370/174 369/175 372/176
f 370/174 372/176 374/162
f 370/174 374/162 376/177
f 370/174 376/177 378/178
f 370/174 378/178 380/166
f 370/174 380/166 382/179
f 370/174 382/179 384/180
f 370/174 384/180 386/170
f 370/174 386/170 388/181
f 370/174 388/181 390/182
f 391/241 392/242 393/243
f 391/241 393/243 394/244
f 392/245 395/246 396/247
f 392/245 396/247 393/248
f 395/249 397/250 398/251
f 395/249 398/251 396/252
f 397/253 391/254 394/255
f 397/253 394/255 398/256
f 397/257 395/258 392/259
f 397/257 392/259 391/260
f 394/261 393/260 396/257
f 394/261 396/257 398/262
f 399/263 400/264 401/265
f 399/263 401/265 402/266
f 400/245 403/246 404/247
f 400/245 404/247 401/248
f 403/267 405/268 406/269
f 403/267 406/269 404/270
f 405/253 399/254 402/255
f 405/253 402/255 406/256
f 405/257 403/262 400/261
f 405/257 400/261 399/260
f 402/261 401/260 404/257
f 402/261 404/257 406/262
f 407/271 408/272 409/273
f 407/271 409/273 410/274
f 408/275 411/276 412/277
f 408/275 412/277 409/278
f 411/279 413/280 414/281
f 411/279 414/281 412/282
f 413/283 407/284 410/285
f 413/283 410/285 414/286
f 413/287 411/288 408/289
f 413/287 408/289 407/290
f 410/291 409/290 412/287
f 410/291 412/287 414/288
f 415/292 416/293 417/294
f 415/292 417/294 418/295
f 416/275 419/276 420/277
f 416/275 420/277 417/278
f 419/296 421/297 422/298
f 419/296 422/298 420/299
f 421/283 415/284 418/285
f 421/283 418/285 422/286
f 421/287 419/300 416/291
f 421/287 416/291 415/301
f 418/302 417/290 420/287
f 418/302 420/287 422/303
f 423/35 424/36 425/304
f 423/35 425/304 426/305
f 424/35 427/36 428/306
f 424/35 428/306 425/307
f 428/304 429/305 430/35
f 428/304 430/35 427/36
f 430/35 423/36 426/308
f 430/35 426/308 429/309
f 430/41 427/42 424/43
f 430/41 424/43 423/44
f 429/45 428/46 425/47
f 429/45 425/47 426/48
f 431/1 432/2 433/310
f 431/1 433/310 434/311
f 432/1 435/2 436/312
f 432/1 436/312 433/313
f 436/310 437/311 438/1
f 436/310 438/1 435/2
f 438/1 431/2 434/312
f 438/1 434/312 437/313
f 438/9 435/10 432/11
f 438/9 432/11 431/12
f 437/7 436/8 433/5
f 437/7 433/5 434/6
f 439/25 440/26 441/27
f 439/25 441/27 442/28
f 443/1 444/2 445/3
f 443/1 445/3 446/4
f 444/1 439/2 442/3
f 444/1 442/3 445/4
f 440/1 443/2 446/3
f 440/1 446/3 441/4
f 445/5 442/6 441/7
f 445/5 441/7 446/8
f 443/9 440/10 439/11
f 443/9 439/11 444/12
f 447/1 448/2 449/3
f 447/1 449/3 450/4
f 451/25 452/26 453/27
f 451/25 453/27 454/28
f 452/1 447/2 450/3
f 452/1 450/3 453/4
f 448/1 451/2 454/3
f 448/1 454/3 449/4
f 453/5 450/6 449/7
f 453/5 449/7 454/8
f 451/9 448/10 447/11
f 451/9 447/11 452/12
f 455/13 456/14 457/15
f 455/13 457/15 458/16
f 459/13 460/14 461/15
f 459/13 461/15 462/16
f 460/13 455/14 458/15
f 460/13 458/15 461/16
f 456/13 459/14 462/15
f 456/13 462/15 457/16
f 461/29 458/30 457/31
f 461/29 457/31 462/32
f 459/21 456/22 455/23
f 459/21 455/23 460/24
f 463/13 464/14 465/15
f 463/13 465/15 466/16
f 467/13 468/14 469/15
f 467/13 469/15 470/16
f 468/13 463/14 466/15
f 468/13 466/15 469/16
f 464/13 467/14 470/15
f 464/13 470/15 465/16
f 469/17 466/18 465/19
f 469/17 465/19 470/20
f 467/21 464/22 463/23
f 467/21 463/23 468/24
f 471/314 472/315 473/316
f 471/314 473/316 474/317
f 475/35 476/36 477/37
f 475/35 477/37 478/40
f 476/35 471/36 474/37
f 476/35 474/37 477/40
f 472/35 475/36 478/37
f 472/35 478/37 473/40
f 477/47 474/48 473/45
f 477/47 473/45 478/46
f 475/41 472/42 471/43
f 475/41 471/43 476/44
f 479/35 480/36 481/37
f 479/35 481/37 482/40
f 483/35 484/36 485/37
f 483/35 485/37 486/40
f 484/35 479/36 482/37
f 484/35 482/37 485/40
f 480/35 483/36 486/37
f 480/35 486/37 481/40
f 485/47 482/48 481/45
f 485/47 481/45 486/46
f 483/41 480/42 479/43
f 483/41 479/43 484/44
f 487/35 488/36 489/37
f 487/35 489/37 490/40
f 491/35 492/36 493/37
f 491/35 493/37 494/40
f 492/35 487/36 490/37
f 492/35 490/37 493/40
f 488/35 491/36 494/37
f 488/35 494/37 489/40
f 493/47 490/48 489/45
f 493/47 489/45 494/46
f 491/41 488/42 487/43
f 491/41 487/43 492/44
f 495/35 496/36 497/37
f 495/35 497/37 498/40
f 499/35 500/36 501/37
f 499/35 501/37 502/40
f 500/35 495/36 498/37
f 500/35 498/37 501/40
f 496/35 499/36 502/37
f 496/35 502/37 497/40
f 501/47 498/48 497/45
f 501/47 497/45 502/46
f 499/41 496/42 495/43
f 499/41 495/43 500/44
f 503/35 504/36 505/37
f 503/35 505/37 506/40
f 507/35 508/36 509/37
f 507/35 509/37 510/40
f 508/35 503/36 506/37
f 508/35 506/37 509/40
f 504/35 507/36 510/37
f 504/35 510/37 505/40
f 509/47 506/48 505/45
f 509/47 505/45 510/46
f 507/41 504/42 503/43
f 507/41 503/43 508/44
f 511/13 512/14 513/15
f 511/13 513/15 514/16
f 512/318 515/14 516/319
f 512/318 516/319 513/16
f 516/15 517/16 518/13
f 516/15 518/13 515/14
f 518/13 511/320 514/15
f 518/13 514/15 517/321
f 518/21 515/22 512/23
f 518/21 512/23 511/24
f 517/31 516/32 513/29
f 517/31 513/29 514/30
f 519/322 520/323 521/324
f 519/322 521/324 522/325
f 520/322 523/323 524/324
f 520/322 524/324 521/325
f 523/322 525/323 526/324
f 523/322 526/324 524/325
f 525/324 527/325 528/322
f 525/324 528/322 526/323
f 527/324 529/325 530/322
f 527/324 530/322 528/323
f 529/324 531/325 532/322
f 529/324 532/322 530/323
f 531/324 533/325 534/322
f 531/324 534/322 532/323
f 533/322 519/323 522/324
f 533/322 522/324 534/325
f 533/326 531/327 529/328
f 533/326 529/328 527/329
f 533/326 527/329 525/330
f 533/326 525/330 523/331
f 533/326 523/331 520/332
f 533/326 520/332 519/333
f 522/333 521/326 524/327
f 522/333 524/327 526/328
f 522/333 526/328 528/329
f 522/333 528/329 530/330
f 522/333 530/330 532/331
f 522/333 532/331 534/332
f 535/322 536/323 537/324
f 535/322 537/324 538/325
f 536/322 539/323 540/324
f 536/322 540/324 537/325
f 539/322 541/323 542/324
f 539/322 542/324 540/325
f 541/324 543/325 544/322
f 541/324 544/322 542/323
f 543/324 545/325 546/322
f 543/324 546/322 544/323
f 545/324 547/325 548/322
f 545/324 548/322 546/323
f 547/324 549/325 550/322
f 547/324 550/322 548/323
f 549/322 535/323 538/324
f 549/322 538/324 550/325
f 549/326 547/327 545/328
f 549/326 545/328 543/329
f 549/326 543/329 541/330
f 549/326 541/330 539/331
f 549/326 539/331 536/332
f 549/326 536/332 535/333
f 538/333 537/326 540/327
f 538/333 540/327 542/328
f 538/333 542/328 544/329
f 538/333 544/329 546/330
f 538/333 546/330 548/331
f 538/333 548/331 550/332
f 551/322 552/323 553/324
f 551/322 553/324 554/325
f 552/322 555/323 556/324
f 552/322 556/324 553/325
f 555/322 557/323 558/324
f 555/322 558/324 556/325
f 557/324 559/325 560/322
f 557/324 560/322 558/323
f 559/324 561/325 562/322
f 559/324 562/322 560/323
f 561/324 563/325 564/322
f 561/324 564/322 562/323
f 563/324 565/325 566/322
f 563/324 566/322 564/323
f 565/322 551/323 554/324
f 565/322 554/324 566/325
f 565/326 563/327 561/328
f 565/326 561/328 559/329
f 565/326 559/329 557/330
f 565/326 557/330 555/331
f 565/326 555/331 552/332
f 565/326 552/332 551/333
f 554/333 553/326 556/327
f 554/333 556/327 558/328
f 554/333 558/328 560/329
f 554/333 560/329 562/330
f 554/333 562/330 564/331
f 554/333 564/331 566/332
f 567/322 568/323 569/324
f 567/322 569/324 570/325
f 568/322 571/323 572/324
f 568/322 572/324 569/325
f 571/322 573/323 574/324
f 571/322 574/324 572/325
f 573/324 575/325 576/322
f 573/324 576/322 574/323
f 575/324 577/325 578/322
f 575/324 578/322 576/323
f 577/324 579/325 580/322
f 577/324 580/322 578/323
f 579/324 581/325 582/322
f 579/324 582/322 580/323
f 581/322 567/323 570/324
f 581/322 570/324 582/325
f 581/326 579/327 577/328
f 581/326 577/328 575/329
f 581/326 575/329 573/330
f 581/326 573/330 571/331
f 581/326 571/331 568/332
f 581/326 568/332 567/333
f 570/333 569/326 572/327
f 570/333 572/327 574/328
f 570/333 574/328 576/329
f 570/333 576/329 578/330
f 570/333 578/330 580/331
f 570/333 580/331 582/332
f 583/334 584/335 585/336
f 583/334 585/336 586/337
f 584/338 587/64 588/339
f 584/338 588/339 585/337
f 588/336 589/337 590/334
f 588/336 590/334 587/335
f 590/63 583/340 586/336
f 590/63 586/336 589/341
f 590/342 587/343 584/344
f 590/342 584/344 583/345
f 586/346 585/347 588/348
f 586/346 588/348 589/349
f 591/350 592/351 593/352
f 591/350 593/352 594/353
f 595/63 596/64 597/336
f 595/63 597/336 598/337
f 596/63 591/64 594/336
f 596/63 594/336 597/337
f 592/63 595/64 598/336
f 592/63 598/336 593/337
f 597/346 594/347 593/348
f 597/346 593/348 598/349
f 595/67 592/68 591/69
f 595/67 591/69 596/70
f 599/63 600/64 601/336
f 599/63 601/336 602/337
f 603/350 604/351 605/352
f 603/350 605/352 606/353
f 604/63 599/64 602/336
f 604/63 602/336 605/337
f 600/63 603/64 606/336
f 600/63 606/336 601/337
f 605/346 602/347 601/348
f 605/346 601/348 606/349
f 603/67 600/68 599/69
f 603/67 599/69 604/70
f 607/1 608/2 609/3
f 607/1 609/3 610/4
f 611/1 612/2 613/3
f 611/1 613/3 614/4
f 612/1 607/2 610/3
f 612/1 610/3 613/4
f 608/1 611/2 614/3
f 608/1 614/3 609/4
f 613/5 610/6 609/7
f 613/5 609/7 614/8
f 611/9 608/10 607/11
f 611/9 607/11 612/12
f 615/1 616/2 617/3
f 615/1 617/3 618/4
f 616/354 619/2 620/355
f 616/354 620/355 617/356
f 620/357 621/358 622/1
f 620/357 622/1 619/2
f 622/1 615/359 618/360
f 622/1 618/360 621/361
f 622/9 619/10 616/11
f 622/9 616/11 615/12
f 621/362 620/363 617/5
f 621/362 617/5 618/6
f 623/63 624/64 625/364
f 623/63 625/364 626/365
f 625/366 627/367 628/63
f 625/366 628/63 624/64
f 627/364 629/365 630/63
f 627/364 630/63 628/64
f 629/368 626/369 623/63
f 629/368 623/63 630/64
f 630/67 628/68 624/69
f 630/67 624/69 623/70
f 629/348 627/349 625/346
f 629/348 625/346 626/347
f 631/370 632/371 633/372
f 631/370 633/372 634/373
f 632/370 635/374 636/375
f 632/370 636/375 633/376
f 636/372 637/373 638/370
f 636/372 638/370 635/371
f 638/377 631/371 634/378
f 638/377 634/378 637/379
f 638/342 635/343 632/344
f 638/342 632/344 631/345
f 637/380 636/381 633/382
f 637/380 633/382 634/383
f 639/73 640/74 641/71
f 639/73 641/71 642/72
f 643/35 644/36 645/37
f 643/35 645/37 646/40
f 644/35 639/36 642/37
f 644/35 642/37 645/40
f 640/35 643/36 646/37
f 640/35 646/37 641/40
f 645/47 642/48 641/45
f 645/47 641/45 646/46
f 643/41 640/42 639/43
f 643/41 639/43 644/44
f 647/35 648/36 649/37
f 647/35 649/37 650/40
f 651/73 652/74 653/71
f 651/73 653/71 654/72
f 652/35 647/36 650/37
f 652/35 650/37 653/40
f 648/35 651/36 654/37
f 648/35 654/37 649/40
f 653/47 650/48 649/45
f 653/47 649/45 654/46
f 651/41 648/42 647/43
f 651/41 647/43 652/44
f 655/384 656/385 657/386
f 655/384 657/386 658/387
f 656/384 659/385 660/386
f 656/384 660/386 657/387
f 659/384 661/385 662/386
f 659/384 662/386 660/387
f 661/384 663/385 664/386
f 661/384 664/386 662/387
f 663/384 665/385 666/386
f 663/384 666/386 664/387
f 665/386 667/387 668/384
f 665/386 668/384 666/385
f 667/386 669/387 670/384
f 667/386 670/384 668/385
f 669/386 671/387 672/384
f 669/386 672/384 670/385
f 671/386 673/387 674/384
f 671/386 674/384 672/385
f 673/386 675/387 676/384
f 673/386 676/384 674/385
f 675/386 677/387 678/384
f 675/386 678/384 676/385
f 677/384 655/385 658/386
f 677/384 658/386 678/387
f 677/175 675/176 673/162
f 677/175 673/162 671/177
f 677/175 671/177 669/178
f 677/175 669/178 667/166
f 677/175 667/166 665/179
f 677/175 665/179 663/180
f 677/175 663/180 661/170
f 677/175 661/170 659/181
f 677/175 659/181 656/182
f 677/175 656/182 655/174
f 658/174 657/175 660/176
f 658/174 660/176 662/162
f 658/174 662/162 664/177
f 658/174 664/177 666/178
f 658/174 666/178 668/166
f 658/174 668/166 670/179
f 658/174 670/179 672/180
f 658/174 672/180 674/170
f 658/174 674/170 676/181
f 658/174 676/181 678/182
f 679/35 680/36 681/37
f 679/35 681/37 682/40
f 683/35 684/36 685/37
f 683/35 685/37 686/40
f 684/35 679/36 682/37
f 684/35 682/37 685/40
f 680/35 683/36 686/37
f 680/35 686/37 681/40
f 685/47 682/48 681/45
f 685/47 681/45 686/46
f 683/41 680/42 679/43
f 683/41 679/43 684/44
f 687/388 688/389 689/390
f 687/388 689/390 690/391
f 688/388 691/389 692/390
f 688/388 692/390 689/391
f 691/388 693/389 694/390
f 691/388 694/390 692/391
f 693/389 695/390 696/391
f 693/389 696/391 694/388
f 695/389 697/390 698/391
f 695/389 698/391 696/388
f 697/390 699/391 700/388
f 697/390 700/388 698/389
f 699/390 701/391 702/388
f 699/390 702/388 700/389
f 701/390 703/391 704/388
f 701/390 704/388 702/389
f 703/390 705/391 706/388
f 703/390 706/388 704/389
f 705/390 707/391 708/388
f 705/390 708/388 706/389
f 707/390 709/391 710/388
f 707/390 710/388 708/389
f 709/389 711/390 712/391
f 709/389 712/391 710/388
f 711/389 713/390 714/391
f 711/389 714/391 712/388
f 713/388 715/389 716/390
f 713/388 716/390 714/391
f 715/388 717/389 718/390
f 715/388 718/390 716/391
f 717/388 687/389 690/390
f 717/388 690/390 718/391
f 719/392 720/393 721/394
f 719/392 721/394 722/391
f 720/395 723/396 724/397
f 720/395 724/397 721/398
f 723/399 725/400 726/401
f 723/399 726/401 724/402
f 725/403 727/404 728/391
f 725/403 728/391 726/388
f 727/403 729/404 730/391
f 727/403 730/391 728/388
f 729/405 731/406 732/407
f 729/405 732/407 730/408
f 731/409 733/410 734/411
f 731/409 734/411 732/412
f 733/413 735/414 736/388
f 733/413 736/388 734/415
f 735/416 737/417 738/418
f 735/416 738/418 736/419
f 737/420 739/421 740/422
f 737/420 740/422 738/423
f 739/424 741/425 742/426
f 739/424 742/426 740/427
f 741/428 743/404 744/391
f 741/428 744/391 742/388
f 743/403 745/404 746/391
f 743/403 746/391 744/388
f 745/429 747/430 748/431
f 745/429 748/431 746/432
f 747/433 749/434 750/435
f 747/433 750/435 748/436
f 749/437 719/438 722/390
f 749/437 722/390 750/439
f 722/388 721/440 751/441
f 722/388 751/441 752/442
f 721/443 724/444 753/445
f 721/443 753/445 751/446
f 724/447 726/448 754/449
f 724/447 754/449 753/450
f 726/389 728/390 755/451
f 726/389 755/451 754/452
f 728/419 730/390 756/451
f 728/419 756/451 755/453
f 730/454 732/455 757/456
f 730/454 757/456 756/457
f 732/458 734/459 758/460
f 732/458 758/460 757/461
f 734/462 736/391 759/463
f 734/462 759/463 758/464
f 736/390 738/465 760/466
f 736/390 760/466 759/467
f 738/468 740/469 761/470
f 738/468 761/470 760/471
f 740/472 742/473 762/474
f 740/472 762/474 761/475
f 742/389 744/390 763/451
f 742/389 763/451 762/453
f 744/389 746/390 764/451
f 744/389 764/451 763/453
f 746/476 748/477 765/478
f 746/476 765/478 764/479
f 748/480 750/481 766/482
f 748/480 766/482 765/483
f 750/484 722/389 752/485
f 750/484 752/485 766/486
f 767/388 768/389 769/390
f 767/388 769/390 770/391
f 768/388 771/389 772/390
f 768/388 772/390 769/391
f 771/388 773/389 774/390
f 771/388 774/390 772/391
f 773/389 775/390 776/391
f 773/389 776/391 774/388
f 775/389 777/390 778/391
f 775/389 778/391 776/388
f 777/390 779/391 780/388
f 777/390 780/388 778/389
f 779/390 781/391 782/388
f 779/390 782/388 780/389
f 781/390 783/391 784/388
f 781/390 784/388 782/389
f 783/390 785/391 786/388
f 783/390 786/388 784/389
f 785/390 787/391 788/388
f 785/390 788/388 786/389
f 787/390 789/391 790/388
f 787/390 790/388 788/389
f 789/389 791/390 792/391
f 789/389 792/391 790/388
f 791/389 793/390 794/391
f 791/389 794/391 792/388
f 793/388 795/389 796/390
f 793/388 796/390 794/391
f 795/388 797/389 798/390
f 795/388 798/390 796/391
f 797/388 767/389 770/390
f 797/388 770/390 798/391
f 770/487 769/488 772/489
f 770/487 772/489 774/490
f 770/487 774/490 776/491
f 770/487 776/491 778/492
f 770/487 778/492 780/493
f 770/487 780/493 782/494
f 770/487 782/494 784/495
f 770/487 784/495 786/496
f 770/487 786/496 788/497
f 770/487 788/497 790/498
f 770/487 790/498 792/499
f 770/487 792/499 794/500
f 770/487 794/500 796/501
f 770/487 796/501 798/502
f 799/503 800/504 801/505
f 799/503 801/505 802/506
f 800/507 803/508 804/509
f 800/507 804/509 801/510
f 803/511 805/512 806/513
f 803/511 806/513 804/514
f 805/389 807/390 808/515
f 805/389 808/515 806/516
f 807/389 809/390 810/515
f 807/389 810/515 808/516
f 809/517 811/518 812/519
f 809/517 812/519 810/520
f 811/521 813/522 814/523
f 811/521 814/523 812/524
f 813/525 815/526 816/527
f 813/525 816/527 814/528
f 815/390 817/529 818/530
f 815/390 818/530 816/531
f 817/532 819/533 820/534
f 817/532 820/534 818/535
f 819/536 821/537 822/538
f 819/536 822/538 820/539
f 821/389 823/390 824/515
f 821/389 824/515 822/516
f 823/389 825/390 826/515
f 823/389 826/515 824/516
f 825/540 827/541 828/542
f 825/540 828/542 826/543
f 827/544 829/545 830/546
f 827/544 830/546 828/547
f 829/548 799/419 802/549
f 829/548 802/549 830/550
f 829/551 827/552 825/553
f 829/551 825/553 823/554
f 829/551 823/554 821/555
f 829/551 821/555 819/556
f 829/551 819/556 817/557
f 829/551 817/557 815/558
f 829/551 815/558 813/559
f 829/551 813/559 811/560
f 829/551 811/560 809/561
f 829/551 809/561 807/562
f 829/551 807/562 805/563
f 829/551 805/563 803/564
f 829/551 803/564 800/565
f 829/551 800/565 799/566
f 831/371 832/567 833/568
f 831/371 833/568 834/569
f 832/570 835/571 836/572
f 832/570 836/572 833/573
f 835/574 837/575 838/576
f 835/574 838/576 836/577
f 837/375 839/379 840/578
f 837/375 840/578 838/579
f 839/375 841/379 842/578
f 839/375 842/578 840/579
f 841/580 843/581 844/582
f 841/580 844/582 842/583
f 843/584 845/585 846/586
f 843/584 846/586 844/587
f 845/588 847/370 848/589
f 845/588 848/589 846/590
f 847/379 849/591 850/592
f 847/379 850/592 848/593
f 849/594 851/595 852/596
f 849/594 852/596 850/597
f 851/598 853/599 854/600
f 851/598 854/600 852/601
f 853/375 855/379 856/578
f 853/375 856/578 854/579
f 855/375 857/379 858/578
f 855/375 858/578 856/579
f 857/602 859/603 860/604
f 857/602 860/604 858/605
f 859/606 861/607 862/608
f 859/606 862/608 860/609
f 861/610 831/375 834/611
f 861/610 834/611 862/612
f 861/613 859/614 857/615
f 861/613 857/615 855/616
f 861/613 855/616 853/617
f 861/613 853/617 851/618
f 861/613 851/618 849/619
f 861/613 849/619 847/620
f 861/613 847/620 845/621
f 861/613 845/621 843/622
f 861/613 843/622 841/623
f 861/613 841/623 839/624
f 861/613 839/624 837/625
f 861/613 837/625 835/626
f 861/613 835/626 832/627
f 861/613 832/627 831/628
f 863/629 864/630 865/631
f 863/629 865/631 866/632
f 864/629 867/630 868/631
f 864/629 868/631 865/632
f 867/629 869/630 870/631
f 867/629 870/631 868/632
f 869/630 871/631 872/632
f 869/630 872/632 870/629
f 871/630 873/631 874/632
f 871/630 874/632 872/629
f 873/631 875/632 876/629
f 873/631 876/629 874/630
f 875/631 877/632 878/629
f 875/631 878/629 876/630
f 877/631 879/632 880/629
f 877/631 880/629 878/630
f 879/631 881/632 882/629
f 879/631 882/629 880/630
f 881/631 883/632 884/629
f 881/631 884/629 882/630
f 883/631 885/632 886/629
f 883/631 886/629 884/630
f 885/630 887/631 888/632
f 885/630 888/632 886/629
f 887/630 889/631 890/632
f 887/630 890/632 888/629
f 889/629 891/630 892/631
f 889/629 892/631 890/632
f 891/629 893/630 894/631
f 891/629 894/631 892/632
f 893/629 863/630 866/631
f 893/629 866/631 894/632
f 893/633 891/634 889/635
f 893/633 889/635 887/636
f 893/633 887/636 885/637
f 893/633 885/637 883/638
f 893/633 883/638 881/639
f 893/633 881/639 879/640
f 893/633 879/640 877/641
f 893/633 877/641 875/642
f 893/633 875/642 873/643
f 893/633 873/643 871/644
f 893/633 871/644 869/645
f 893/633 869/645 867/646
f 893/633 867/646 864/647
f 893/633 864/647 863/648
f 866/640 865/641 868/642
f 866/640 868/642 870/643
f 866/640 870/643 872/644
f 866/640 872/644 874/645
f 866/640 874/645 876/646
f 866/640 876/646 878/647
f 866/640 878/647 880/648
f 866/640 880/648 882/633
f 866/640 882/633 884/634
f 866/640 884/634 886/635
f 866/640 886/635 888/636
f 866/640 888/636 890/637
f 866/640 890/637 892/638
f 866/640 892/638 894/639
f 895/630 896/631 897/632
f 895/630 897/632 898/629
f 896/630 899/631 900/632
f 896/630 900/632 897/629
f 899/630 901/631 902/632
f 899/630 902/632 900/629
f 901/630 903/631 904/632
f 901/630 904/632 902/629
f 903/630 905/631 906/632
f 903/630 906/632 904/629
f 905/630 907/631 908/632
f 905/630 908/632 906/629
f 907/630 909/631 910/632
f 907/630 910/632 908/629
f 909/630 911/631 912/632
f 909/630 912/632 910/629
f 911/630 913/631 914/632
f 911/630 914/632 912/629
f 913/630 915/631 916/632
f 913/630 916/632 914/629
f 915/630 917/631 918/632
f 915/630 918/632 916/629
f 917/630 895/631 898/632
f 917/630 898/632 918/629
f 898/649 897/650 900/651
f 898/649 900/651 902/652
f 898/649 902/652 904/653
f 898/649 904/653 906/654
f 898/649 906/654 908/655
f 898/649 908/655 910/656
f 898/649 910/656 912/657
f 898/649 912/657 914/658
f 898/649 914/658 916/659
f 898/649 916/659 918/660
f 917/656 915/657 913/658
f 917/656 913/658 911/659
f 917/656 911/659 909/660
f 917/656 909/660 907/649
f 917/656 907/649 905/650
f 917/656 905/650 903/651
f 917/656 903/651 901/652
f 917/656 901/652 899/653
f 917/656 899/653 896/654
f 917/656 896/654 895/655
f 919/631 920/632 921/629
f 919/631 921/629 922/630
f 920/631 923/632 924/629
f 920/631 924/629 921/630
f 923/631 925/632 926/629
f 923/631 926/629 924/630
f 925/631 927/632 928/629
f 925/631 928/629 926/630
f 927/631 929/632 930/629
f 927/631 930/629 928/630
f 929/629 931/630 932/631
f 929/629 932/631 930/632
f 931/629 933/630 934/631
f 931/629 934/631 932/632
f 933/629 935/630 936/631
f 933/629 936/631 934/632
f 935/629 937/630 938/631
f 935/629 938/631 936/632
f 937/629 939/630 940/631
f 937/629 940/631 938/632
f 939/629 941/630 942/631
f 939/629 942/631 940/632
f 941/631 919/632 922/629
f 941/631 922/629 942/630
f 941/659 939/660 937/649
f 941/659 937/649 935/650
f 941/659 935/650 933/651
f 941/659 933/651 931/652
f 941/659 931/652 929/653
f 941/659 929/653 927/654
f 941/659 927/654 925/655
f 941/659 925/655 923/656
f 941/659 923/656 920/657
f 941/659 920/657 919/658
f 922/658 921/659 924/660
f 922/658 924/660 926/649
f 922/658 926/649 928/650
f 922/658 928/650 930/651
f 922/658 930/651 932/652
f 922/658 932/652 934/653
f 922/658 934/653 936/654
f 922/658 936/654 938/655
f 922/658 938/655 940/656
f 922/658 940/656 942/657
f 943/631 944/632 945/629
f 943/631 945/629 946/630
f 944/631 947/632 948/629
f 944/631 948/629 945/630
f 947/631 949/632 950/629
f 947/631 950/629 948/630
f 949/631 951/632 952/629
f 949/631 952/629 950/630
f 951/631 953/632 954/629
f 951/631 954/629 952/630
f 953/629 955/630 956/631
f 953/629 956/631 954/632
f 955/629 957/630 958/631
f 955/629 958/631 956/632
f 957/629 959/630 960/631
f 957/629 960/631 958/632
f 959/629 961/630 962/631
f 959/629 962/631 960/632
f 961/629 963/630 964/631
f 961/629 964/631 962/632
f 963/629 965/630 966/631
f 963/629 966/631 964/632
f 965/631 943/632 946/629
f 965/631 946/629 966/630
f 965/659 963/660 961/649
f 965/659 961/649 959/650
f 965/659 959/650 957/651
f 965/659 957/651 955/652
f 965/659 955/652 953/653
f 965/659 953/653 951/654
f 965/659 951/654 949/655
f 965/659 949/655 947/656
f 965/659 947/656 944/657
f 965/659 944/657 943/658
f 946/658 945/659 948/660
f 946/658 948/660 950/649
f 946/658 950/649 952/650
f 946/658 952/650 954/651
f 946/658 954/651 956/652
f 946/658 956/652 958/653
f 946/658 958/653 960/654
f 946/658 960/654 962/655
f 946/658 962/655 964/656
f 946/658 964/656 966/657
f 967/35 968/36 969/37
f 967/35 969/37 970/40
f 971/35 972/36 973/37
f 971/35 973/37 974/40
f 972/35 967/36 970/37
f 972/35 970/37 973/40
f 968/35 971/36 974/37
f 968/35 974/37 969/40
f 973/47 970/48 969/45
f 973/47 969/45 974/46
f 971/41 968/42 967/43
f 971/41 967/43 972/44
f 975/323 976/324 977/325
f 975/323 977/325 978/322
f 979/323 980/324 981/325
f 979/323 981/325 982/322
f 980/323 975/324 978/325
f 980/323 978/325 981/322
f 976/323 979/324 982/325
f 976/323 982/325 977/322
f 981/661 978/662 977/663
f 981/661 977/663 982/664
f 979/665 976/666 975/667
f 979/665 975/667 980/668
f 983/323 984/324 985/325
f 983/323 985/325 986/322
f 987/323 988/324 989/325
f 987/323 989/325 990/322
f 988/323 983/324 986/325
f 988/323 986/325 989/322
f 984/323 987/324 990/325
f 984/323 990/325 985/322
f 989/661 986/662 985/663
f 989/661 985/663 990/664
f 987/665 984/666 983/667
f 987/665 983/667 988/668
f 991/35 992/36 993/37
f 991/35 993/37 994/40
f 995/35 996/36 997/37
f 995/35 997/37 998/40
f 996/35 991/36 994/37
f 996/35 994/37 997/40
f 992/35 995/36 998/37
f 992/35 998/37 993/40
f 997/47 994/48 993/45
f 997/47 993/45 998/46
f 995/41 992/42 991/43
f 995/41 991/43 996/44
f 999/323 1000/324 1001/325
f 999/323 1001/325 1002/322
f 1003/323 1004/324 1005/325
f 1003/323 1005/325 1006/322
f 1004/323 999/324 1002/325
f 1004/323 1002/325 1005/322
f 1000/323 1003/324 1006/325
f 1000/323 1006/325 1001/322
f 1005/661 1002/662 1001/663
f 1005/661 1001/663 1006/664
f 1003/665 1000/666 999/667
f 1003/665 999/667 1004/668
f 1007/323 1008/324 1009/325
f 1007/323 1009/325 1010/322
f 1011/323 1012/324 1013/325
f 1011/323 1013/325 1014/322
f 1012/323 1007/324 1010/325
f 1012/323 1010/325 1013/322
f 1008/323 1011/324 1014/325
f 1008/323 1014/325 1009/322
f 1013/661 1010/662 1009/663
f 1013/661 1009/663 1014/664
f 1011/665 1008/666 1007/667
f 1011/665 1007/667 1012/668
f 1015/13 1016/14 1017/15
f 1015/13 1017/15 1018/16
f 1019/13 1020/14 1021/15
f 1019/13 1021/15 1022/16
f 1020/13 1015/14 1018/15
f 1020/13 1018/15 1021/16
f 1016/13 1019/14 1022/15
f 1016/13 1022/15 1017/16
f 1021/29 1018/30 1017/31
f 1021/29 1017/31 1022/32
f 1019/21 1016/22 1015/23
f 1019/21 1015/23 1020/24
f 1023/13 1024/14 1025/15
f 1023/13 1025/15 1026/16
f 1027/13 1028/14 1029/15
f 1027/13 1029/15 1030/16
f 1028/13 1023/14 1026/15
f 1028/13 1026/15 1029/16
f 1024/13 1027/14 1030/15
f 1024/13 1030/15 1025/16
f 1029/29 1026/30 1025/31
f 1029/29 1025/31 1030/32
f 1027/21 1024/22 1023/23
f 1027/21 1023/23 1028/24
f 1031/13 1032/14 1033/15
f 1031/13 1033/15 1034/16
f 1035/13 1036/14 1037/15
f 1035/13 1037/15 1038/16
f 1036/13 1031/14 1034/15
f 1036/13 1034/15 1037/16
f 1032/13 1035/14 1038/15
f 1032/13 1038/15 1033/16
f 1037/29 1034/30 1033/31
f 1037/29 1033/31 1038/32
f 1035/21 1032/22 1031/23
f 1035/21 1031/23 1036/24
f 1039/13 1040/14 1041/15
f 1039/13 1041/15 1042/16
f 1043/13 1044/14 1045/15
f 1043/13 1045/15 1046/16
f 1044/13 1039/14 1042/15
f 1044/13 1042/15 1045/16
f 1040/13 1043/14 1046/15
f 1040/13 1046/15 1041/16
f 1045/29 1042/30 1041/31
f 1045/29 1041/31 1046/32
f 1043/21 1040/22 1039/23
f 1043/21 1039/23 1044/24
f 1047/13 1048/14 1049/15
f 1047/13 1049/15 1050/16
f 1051/13 1052/14 1053/15
f 1051/13 1053/15 1054/16
f 1052/13 1047/14 1050/15
f 1052/13 1050/15 1053/16
f 1048/13 1051/14 1054/15
f 1048/13 1054/15 1049/16
f 1053/29 1050/30 1049/31
f 1053/29 1049/31 1054/32
f 1051/21 1048/22 1047/23
f 1051/21 1047/23 1052/24
f 1055/13 1056/14 1057/15
f 1055/13 1057/15 1058/16
f 1059/13 1060/14 1061/15
f 1059/13 1061/15 1062/16
f 1060/13 1055/14 1058/15
f 1060/13 1058/15 1061/16
f 1056/13 1059/14 1062/15
f 1056/13 1062/15 1057/16
f 1061/29 1058/30 1057/31
f 1061/29 1057/31 1062/32
f 1059/21 1056/22 1055/23
f 1059/21 1055/23 1060/24
f 1063/13 1064/14 1065/15
f 1063/13 1065/15 1066/16
f 1067/13 1068/14 1069/15
f 1067/13 1069/15 1070/16
f 1068/13 1063/14 1066/15
f 1068/13 1066/15 1069/16
f 1064/13 1067/14 1070/15
f 1064/13 1070/15 1065/16
f 1069/29 1066/30 1065/31
f 1069/29 1065/31 1070/32
f 1067/21 1064/22 1063/23
f 1067/21 1063/23 1068/24
f 1071/13 1072/14 1073/15
f 1071/13 1073/15 1074/16
f 1075/13 1076/14 1077/15
f 1075/13 1077/15 1078/16
f 1076/13 1071/14 1074/15
f 1076/13 1074/15 1077/16
f 1072/13 1075/14 1078/15
f 1072/13 1078/15 1073/16
f 1077/29 1074/30 1073/31
f 1077/29 1073/31 1078/32
f 1075/21 1072/22 1071/23
f 1075/21 1071/23 1076/24
f 1079/13 1080/14 1081/15
f 1079/13 1081/15 1082/16
f 1083/13 1084/14 1085/15
f 1083/13 1085/15 1086/16
f 1084/13 1079/14 1082/15
f 1084/13 1082/15 1085/16
f 1080/13 1083/14 1086/15
f 1080/13 1086/15 1081/16
f 1085/29 1082/30 1081/31
f 1085/29 1081/31 1086/32
f 1083/21 1080/22 1079/23
f 1083/21 1079/23 1084/24
f 1087/13 1088/14 1089/15
f 1087/13 1089/15 1090/16
f 1091/13 1092/14 1093/15
f 1091/13 1093/15 1094/16
f 1092/13 1087/14 1090/15
f 1092/13 1090/15 1093/16
f 1088/13 1091/14 1094/15
f 1088/13 1094/15 1089/16
f 1093/29 1090/30 1089/31
f 1093/29 1089/31 1094/32
f 1091/21 1088/22 1087/23
f 1091/21 1087/23 1092/24
f 1095/35 1096/36 1097/37
f 1095/35 1097/37 1098/40
f 1099/35 1100/36 1101/37
f 1099/35 1101/37 1102/40
f 1100/35 1095/36 1098/37
f 1100/35 1098/37 1101/40
f 1096/35 1099/36 1102/37
f 1096/35 1102/37 1097/40
f 1101/47 1098/48 1097/45
f 1101/47 1097/45 1102/46
f 1099/41 1096/42 1095/43
f 1099/41 1095/43 1100/44
f 1103/35 1104/36 1105/37
f 1103/35 1105/37 1106/40
f 1107/35 1108/36 1109/37
f 1107/35 1109/37 1110/40
f 1108/35 1103/36 1106/37
f 1108/35 1106/37 1109/40
f 1104/35 1107/36 1110/37
f 1104/35 1110/37 1105/40
f 1109/47 1106/48 1105/45
f 1109/47 1105/45 1110/46
f 1107/41 1104/42 1103/43
f 1107/41 1103/43 1108/44
