# crossbow.obj exported from Blockbench free model
mtllib crossbow.mtl
o crossbow
v 0.465625 0.515625 0.136875
v 0.465625 0.515625 0.568125
v 0.465625 0.562500 0.568125
v 0.465625 0.562500 0.136875
v 0.534375 0.515625 0.568125
v 0.534375 0.515625 0.136875
v 0.534375 0.562500 0.136875
v 0.534375 0.562500 0.568125
v 0.465625 0.577500 0.568125
v 0.465625 0.577500 0.136875
v 0.483125 0.562500 0.568125
v 0.483125 0.562500 0.136875
v 0.483125 0.577500 0.136875
v 0.483125 0.577500 0.568125
v 0.516875 0.562500 0.136875
v 0.516875 0.562500 0.568125
v 0.516875 0.577500 0.568125
v 0.516875 0.577500 0.136875
v 0.534375 0.577500 0.136875
v 0.534375 0.577500 0.568125
v 0.483125 0.566875 0.568125
v 0.483125 0.566875 0.136875
v 0.516875 0.566875 0.136875
v 0.516875 0.566875 0.568125
v 0.460625 0.525000 0.327500
v 0.460625 0.525000 0.411875
v 0.460625 0.551250 0.411875
v 0.460625 0.551250 0.327500
v 0.465625 0.525000 0.411875
v 0.465625 0.525000 0.327500
v 0.465625 0.551250 0.327500
v 0.465625 0.551250 0.411875
v 0.460625 0.525000 0.202500
v 0.460625 0.525000 0.286875
v 0.460625 0.551250 0.286875
v 0.460625 0.551250 0.202500
v 0.465625 0.525000 0.286875
v 0.465625 0.525000 0.202500
v 0.465625 0.551250 0.202500
v 0.465625 0.551250 0.286875
v 0.534375 0.525000 0.327500
v 0.534375 0.525000 0.411875
v 0.534375 0.551250 0.411875
v 0.534375 0.551250 0.327500
v 0.539375 0.525000 0.411875
v 0.539375 0.525000 0.327500
v 0.539375 0.551250 0.327500
v 0.539375 0.551250 0.411875
v 0.534375 0.525000 0.202500
v 0.534375 0.525000 0.286875
v 0.534375 0.551250 0.286875
v 0.534375 0.551250 0.202500
v 0.539375 0.525000 0.286875
v 0.539375 0.525000 0.202500
v 0.539375 0.551250 0.202500
v 0.539375 0.551250 0.286875
v 0.475000 0.503750 0.177500
v 0.475000 0.503750 0.308750
v 0.475000 0.515625 0.308750
v 0.475000 0.515625 0.177500
v 0.525000 0.503750 0.308750
v 0.525000 0.503750 0.177500
v 0.525000 0.515625 0.177500
v 0.525000 0.515625 0.308750
v 0.477500 0.498125 0.286875
v 0.477500 0.498125 0.300625
v 0.477500 0.503750 0.300625
v 0.477500 0.503750 0.286875
v 0.522500 0.498125 0.300625
v 0.522500 0.498125 0.286875
v 0.522500 0.503750 0.286875
v 0.522500 0.503750 0.300625
v 0.477500 0.498125 0.264375
v 0.477500 0.498125 0.278125
v 0.477500 0.503750 0.278125
v 0.477500 0.503750 0.264375
v 0.522500 0.498125 0.278125
v 0.522500 0.498125 0.264375
v 0.522500 0.503750 0.264375
v 0.522500 0.503750 0.278125
v 0.477500 0.498125 0.241875
v 0.477500 0.498125 0.255625
v 0.477500 0.503750 0.255625
v 0.477500 0.503750 0.241875
v 0.522500 0.498125 0.255625
v 0.522500 0.498125 0.241875
v 0.522500 0.503750 0.241875
v 0.522500 0.503750 0.255625
v 0.477500 0.498125 0.219375
v 0.477500 0.498125 0.233125
v 0.477500 0.503750 0.233125
v 0.477500 0.503750 0.219375
v 0.522500 0.498125 0.233125
v 0.522500 0.498125 0.219375
v 0.522500 0.503750 0.219375
v 0.522500 0.503750 0.233125
v 0.477500 0.498125 0.196875
v 0.477500 0.498125 0.210625
v 0.477500 0.503750 0.210625
v 0.477500 0.503750 0.196875
v 0.522500 0.498125 0.210625
v 0.522500 0.498125 0.196875
v 0.522500 0.503750 0.196875
v 0.522500 0.503750 0.210625
v 0.477500 0.498125 0.174375
v 0.477500 0.498125 0.188125
v 0.477500 0.503750 0.188125
v 0.477500 0.503750 0.174375
v 0.522500 0.498125 0.188125
v 0.522500 0.498125 0.174375
v 0.522500 0.503750 0.174375
v 0.522500 0.503750 0.188125
v 0.536250 0.571250 0.101875
v 0.463750 0.571250 0.101875
v 0.455000 0.506250 0.096875
v 0.545000 0.506250 0.096875
v 0.455000 0.506250 0.136875
v 0.463750 0.571250 0.136875
v 0.545000 0.506250 0.136875
v 0.536250 0.571250 0.136875
v 0.458750 0.511250 0.566875
v 0.458750 0.511250 0.590625
v 0.458750 0.567500 0.590625
v 0.458750 0.567500 0.566875
v 0.541250 0.511250 0.590625
v 0.541250 0.511250 0.566875
v 0.541250 0.567500 0.566875
v 0.541250 0.567500 0.590625
v 0.553750 0.572500 0.105625
v 0.446250 0.572500 0.105625
v 0.432500 0.498750 0.095625
v 0.567500 0.498750 0.095625
v 0.432500 0.498750 0.141875
v 0.446250 0.572500 0.130625
v 0.567500 0.498750 0.141875
v 0.553750 0.572500 0.130625
v 0.433750 0.566250 0.081875
v 0.386250 0.566250 0.081875
v 0.382500 0.496250 0.075625
v 0.437500 0.496250 0.075625
v 0.386250 0.566250 0.116875
v 0.382500 0.496250 0.123125
v 0.437500 0.496250 0.123125
v 0.433750 0.566250 0.116875
v 0.621250 0.566250 0.081875
v 0.558750 0.566250 0.081875
v 0.562500 0.496250 0.075625
v 0.617500 0.496250 0.075625
v 0.562500 0.496250 0.123125
v 0.558750 0.566250 0.116875
v 0.617500 0.496250 0.123125
v 0.621250 0.566250 0.116875
v 0.446250 0.516250 0.084375
v 0.446250 0.516250 0.099375
v 0.446250 0.557500 0.099375
v 0.446250 0.557500 0.084375
v 0.553750 0.516250 0.099375
v 0.553750 0.516250 0.084375
v 0.553750 0.557500 0.084375
v 0.553750 0.557500 0.099375
v 0.446250 0.470000 0.075625
v 0.446250 0.470000 0.093125
v 0.446250 0.520000 0.093125
v 0.446250 0.520000 0.075625
v 0.455000 0.470000 0.093125
v 0.455000 0.470000 0.075625
v 0.455000 0.520000 0.075625
v 0.455000 0.520000 0.093125
v 0.545000 0.470000 0.075625
v 0.545000 0.470000 0.093125
v 0.545000 0.520000 0.093125
v 0.545000 0.520000 0.075625
v 0.553750 0.470000 0.093125
v 0.553750 0.470000 0.075625
v 0.553750 0.520000 0.075625
v 0.553750 0.520000 0.093125
v 0.446250 0.470000 0.056875
v 0.446250 0.485000 0.093125
v 0.446250 0.485000 0.056875
v 0.553750 0.470000 0.056875
v 0.553750 0.485000 0.056875
v 0.553750 0.485000 0.093125
v 0.527500 0.560000 0.108125
v 0.472500 0.560000 0.108125
v 0.467500 0.540000 0.104375
v 0.532500 0.540000 0.104375
v 0.472500 0.560000 0.118125
v 0.467500 0.540000 0.121875
v 0.532500 0.540000 0.121875
v 0.527500 0.560000 0.118125
v 0.414145 0.552498 0.112629
v 0.373516 0.552498 0.093282
v 0.350241 0.553125 0.146526
v 0.387259 0.553125 0.164724
v 0.373355 0.535002 0.093621
v 0.350241 0.536875 0.146526
v 0.413984 0.535002 0.112968
v 0.387259 0.536875 0.164724
v 0.321135 0.551229 0.208552
v 0.355953 0.551229 0.222479
v 0.321547 0.536271 0.207521
v 0.356365 0.536271 0.221448
v 0.308096 0.542960 0.266122
v 0.341837 0.542960 0.266876
v 0.308163 0.529540 0.263124
v 0.341904 0.529540 0.263878
v 0.321762 0.524169 0.331042
v 0.351278 0.524169 0.325675
v 0.321222 0.513331 0.328075
v 0.350738 0.513331 0.322708
v 0.347500 0.533750 0.311875
v 0.347500 0.532745 0.308125
v 0.298750 0.532745 0.308125
v 0.298750 0.533750 0.311875
v 0.347500 0.530000 0.305380
v 0.298750 0.530000 0.305380
v 0.347500 0.526250 0.304375
v 0.298750 0.526250 0.304375
v 0.347500 0.522500 0.305380
v 0.298750 0.522500 0.305380
v 0.347500 0.519755 0.308125
v 0.298750 0.519755 0.308125
v 0.347500 0.518750 0.311875
v 0.298750 0.518750 0.311875
v 0.347500 0.519755 0.315625
v 0.298750 0.519755 0.315625
v 0.347500 0.522500 0.318370
v 0.298750 0.522500 0.318370
v 0.347500 0.526250 0.319375
v 0.298750 0.526250 0.319375
v 0.347500 0.530000 0.318370
v 0.298750 0.530000 0.318370
v 0.347500 0.532745 0.315625
v 0.298750 0.532745 0.315625
v 0.338750 0.576250 0.311875
v 0.338750 0.572444 0.292741
v 0.306250 0.572444 0.292741
v 0.306250 0.576250 0.311875
v 0.338750 0.561605 0.276520
v 0.306250 0.561605 0.276520
v 0.338750 0.545384 0.265681
v 0.306250 0.545384 0.265681
v 0.338750 0.526250 0.261875
v 0.306250 0.526250 0.261875
v 0.338750 0.507116 0.265681
v 0.306250 0.507116 0.265681
v 0.338750 0.490895 0.276520
v 0.306250 0.490895 0.276520
v 0.338750 0.480056 0.292741
v 0.306250 0.480056 0.292741
v 0.338750 0.476250 0.311875
v 0.306250 0.476250 0.311875
v 0.338750 0.480056 0.331009
v 0.306250 0.480056 0.331009
v 0.338750 0.490895 0.347230
v 0.306250 0.490895 0.347230
v 0.338750 0.507116 0.358069
v 0.306250 0.507116 0.358069
v 0.338750 0.526250 0.361875
v 0.306250 0.526250 0.361875
v 0.338750 0.545384 0.358069
v 0.306250 0.545384 0.358069
v 0.338750 0.561605 0.347230
v 0.306250 0.561605 0.347230
v 0.338750 0.572444 0.331009
v 0.306250 0.572444 0.331009
v 0.332500 0.561250 0.311875
v 0.332500 0.556561 0.294375
v 0.312500 0.556561 0.294375
v 0.312500 0.561250 0.311875
v 0.332500 0.543750 0.281564
v 0.312500 0.543750 0.281564
v 0.332500 0.526250 0.276875
v 0.312500 0.526250 0.276875
v 0.332500 0.508750 0.281564
v 0.312500 0.508750 0.281564
v 0.332500 0.495939 0.294375
v 0.312500 0.495939 0.294375
v 0.332500 0.491250 0.311875
v 0.312500 0.491250 0.311875
v 0.332500 0.495939 0.329375
v 0.312500 0.495939 0.329375
v 0.332500 0.508750 0.342186
v 0.312500 0.508750 0.342186
v 0.332500 0.526250 0.346875
v 0.312500 0.526250 0.346875
v 0.332500 0.543750 0.342186
v 0.312500 0.543750 0.342186
v 0.332500 0.556561 0.329375
v 0.312500 0.556561 0.329375
v 0.626484 0.552498 0.093282
v 0.585855 0.552498 0.112629
v 0.612741 0.553125 0.164724
v 0.649759 0.553125 0.146526
v 0.586016 0.535002 0.112968
v 0.612741 0.536875 0.164724
v 0.626645 0.535002 0.093621
v 0.649759 0.536875 0.146526
v 0.644047 0.551229 0.222479
v 0.678865 0.551229 0.208552
v 0.643635 0.536271 0.221448
v 0.678453 0.536271 0.207521
v 0.658163 0.542960 0.266876
v 0.691904 0.542960 0.266122
v 0.658096 0.529540 0.263878
v 0.691837 0.529540 0.263124
v 0.648722 0.524169 0.325675
v 0.678238 0.524169 0.331042
v 0.649262 0.513331 0.322708
v 0.678778 0.513331 0.328075
v 0.701250 0.533750 0.311875
v 0.701250 0.532745 0.308125
v 0.652500 0.532745 0.308125
v 0.652500 0.533750 0.311875
v 0.701250 0.530000 0.305380
v 0.652500 0.530000 0.305380
v 0.701250 0.526250 0.304375
v 0.652500 0.526250 0.304375
v 0.701250 0.522500 0.305380
v 0.652500 0.522500 0.305380
v 0.701250 0.519755 0.308125
v 0.652500 0.519755 0.308125
v 0.701250 0.518750 0.311875
v 0.652500 0.518750 0.311875
v 0.701250 0.519755 0.315625
v 0.652500 0.519755 0.315625
v 0.701250 0.522500 0.318370
v 0.652500 0.522500 0.318370
v 0.701250 0.526250 0.319375
v 0.652500 0.526250 0.319375
v 0.701250 0.530000 0.318370
v 0.652500 0.530000 0.318370
v 0.701250 0.532745 0.315625
v 0.652500 0.532745 0.315625
v 0.693750 0.576250 0.311875
v 0.693750 0.572444 0.292741
v 0.661250 0.572444 0.292741
v 0.661250 0.576250 0.311875
v 0.693750 0.561605 0.276520
v 0.661250 0.561605 0.276520
v 0.693750 0.545384 0.265681
v 0.661250 0.545384 0.265681
v 0.693750 0.526250 0.261875
v 0.661250 0.526250 0.261875
v 0.693750 0.507116 0.265681
v 0.661250 0.507116 0.265681
v 0.693750 0.490895 0.276520
v 0.661250 0.490895 0.276520
v 0.693750 0.480056 0.292741
v 0.661250 0.480056 0.292741
v 0.693750 0.476250 0.311875
v 0.661250 0.476250 0.311875
v 0.693750 0.480056 0.331009
v 0.661250 0.480056 0.331009
v 0.693750 0.490895 0.347230
v 0.661250 0.490895 0.347230
v 0.693750 0.507116 0.358069
v 0.661250 0.507116 0.358069
v 0.693750 0.526250 0.361875
v 0.661250 0.526250 0.361875
v 0.693750 0.545384 0.358069
v 0.661250 0.545384 0.358069
v 0.693750 0.561605 0.347230
v 0.661250 0.561605 0.347230
v 0.693750 0.572444 0.331009
v 0.661250 0.572444 0.331009
v 0.687500 0.561250 0.311875
v 0.687500 0.556561 0.294375
v 0.667500 0.556561 0.294375
v 0.667500 0.561250 0.311875
v 0.687500 0.543750 0.281564
v 0.667500 0.543750 0.281564
v 0.687500 0.526250 0.276875
v 0.667500 0.526250 0.276875
v 0.687500 0.508750 0.281564
v 0.667500 0.508750 0.281564
v 0.687500 0.495939 0.294375
v 0.667500 0.495939 0.294375
v 0.687500 0.491250 0.311875
v 0.667500 0.491250 0.311875
v 0.687500 0.495939 0.329375
v 0.667500 0.495939 0.329375
v 0.687500 0.508750 0.342186
v 0.667500 0.508750 0.342186
v 0.687500 0.526250 0.346875
v 0.667500 0.526250 0.346875
v 0.687500 0.543750 0.342186
v 0.667500 0.543750 0.342186
v 0.687500 0.556561 0.329375
v 0.667500 0.556561 0.329375
v 0.336250 0.588125 0.307500
v 0.336250 0.588125 0.316250
v 0.500000 0.588125 0.316250
v 0.500000 0.588125 0.307500
v 0.336250 0.579375 0.316250
v 0.500000 0.579375 0.316250
v 0.336250 0.579375 0.307500
v 0.500000 0.579375 0.307500
v 0.663750 0.588125 0.316250
v 0.663750 0.588125 0.307500
v 0.663750 0.579375 0.307500
v 0.663750 0.579375 0.316250
v 0.323427 0.524651 0.290733
v 0.330865 0.524651 0.296439
v 0.470865 0.553401 0.113939
v 0.463427 0.553401 0.108233
v 0.331573 0.515349 0.295517
v 0.471573 0.544099 0.113017
v 0.324135 0.515349 0.289811
v 0.464135 0.544099 0.107311
v 0.669135 0.524651 0.296439
v 0.676573 0.524651 0.290733
v 0.536573 0.553401 0.108233
v 0.529135 0.553401 0.113939
v 0.675865 0.515349 0.289811
v 0.535865 0.544099 0.107311
v 0.668427 0.515349 0.295517
v 0.528427 0.544099 0.113017
v 0.550000 0.476250 0.560625
v 0.450000 0.476250 0.560625
v 0.456250 0.567500 0.566875
v 0.543750 0.567500 0.566875
v 0.450000 0.476250 0.635625
v 0.456250 0.567500 0.630625
v 0.543750 0.567500 0.630625
v 0.550000 0.476250 0.635625
v 0.536250 0.480000 0.630625
v 0.463750 0.480000 0.630625
v 0.465000 0.562500 0.634375
v 0.535000 0.562500 0.634375
v 0.463750 0.480000 0.713125
v 0.465000 0.562500 0.709375
v 0.535000 0.562500 0.709375
v 0.536250 0.480000 0.713125
v 0.445625 0.500000 0.576875
v 0.445625 0.500000 0.621875
v 0.445625 0.542500 0.621875
v 0.445625 0.542500 0.576875
v 0.450000 0.500000 0.621875
v 0.450000 0.500000 0.576875
v 0.450000 0.542500 0.576875
v 0.450000 0.542500 0.621875
v 0.550000 0.500000 0.576875
v 0.550000 0.500000 0.621875
v 0.550000 0.542500 0.621875
v 0.550000 0.542500 0.576875
v 0.554375 0.500000 0.621875
v 0.554375 0.500000 0.576875
v 0.554375 0.542500 0.576875
v 0.554375 0.542500 0.621875
v 0.481250 0.565000 0.565625
v 0.481250 0.565000 0.594375
v 0.481250 0.581250 0.594375
v 0.481250 0.581250 0.565625
v 0.518750 0.565000 0.594375
v 0.518750 0.565000 0.565625
v 0.518750 0.581250 0.565625
v 0.518750 0.581250 0.594375
v 0.486250 0.581250 0.571875
v 0.486250 0.581250 0.585625
v 0.486250 0.586250 0.585625
v 0.486250 0.586250 0.571875
v 0.513750 0.581250 0.585625
v 0.513750 0.581250 0.571875
v 0.513750 0.586250 0.571875
v 0.513750 0.586250 0.585625
v 0.437500 0.507500 0.598125
v 0.437500 0.507500 0.615625
v 0.437500 0.522500 0.615625
v 0.437500 0.522500 0.598125
v 0.446250 0.507500 0.615625
v 0.446250 0.507500 0.598125
v 0.446250 0.522500 0.598125
v 0.446250 0.522500 0.615625
v 0.553750 0.507500 0.598125
v 0.553750 0.507500 0.615625
v 0.553750 0.522500 0.615625
v 0.553750 0.522500 0.598125
v 0.562500 0.507500 0.615625
v 0.562500 0.507500 0.598125
v 0.562500 0.522500 0.598125
v 0.562500 0.522500 0.615625
v 0.473750 0.457500 0.565625
v 0.473750 0.457500 0.578125
v 0.473750 0.482500 0.578125
v 0.473750 0.482500 0.565625
v 0.526250 0.457500 0.578125
v 0.526250 0.457500 0.565625
v 0.526250 0.482500 0.565625
v 0.526250 0.482500 0.578125
v 0.473750 0.442500 0.568125
v 0.473750 0.442500 0.644375
v 0.473750 0.457500 0.644375
v 0.473750 0.457500 0.568125
v 0.526250 0.442500 0.644375
v 0.526250 0.442500 0.568125
v 0.526250 0.457500 0.568125
v 0.526250 0.457500 0.644375
v 0.473750 0.442500 0.641875
v 0.473750 0.442500 0.651875
v 0.473750 0.487500 0.651875
v 0.473750 0.487500 0.641875
v 0.526250 0.442500 0.651875
v 0.526250 0.442500 0.641875
v 0.526250 0.487500 0.641875
v 0.526250 0.487500 0.651875
v 0.511875 0.457500 0.605625
v 0.488125 0.457500 0.605625
v 0.488125 0.492500 0.598125
v 0.511875 0.492500 0.598125
v 0.488125 0.457500 0.614375
v 0.488125 0.492500 0.606875
v 0.511875 0.492500 0.606875
v 0.511875 0.457500 0.614375
v 0.451250 0.496250 0.623125
v 0.451250 0.494419 0.618706
v 0.446250 0.494419 0.618706
v 0.446250 0.496250 0.623125
v 0.451250 0.490000 0.616875
v 0.446250 0.490000 0.616875
v 0.451250 0.485581 0.618706
v 0.446250 0.485581 0.618706
v 0.451250 0.483750 0.623125
v 0.446250 0.483750 0.623125
v 0.451250 0.485581 0.627544
v 0.446250 0.485581 0.627544
v 0.451250 0.490000 0.629375
v 0.446250 0.490000 0.629375
v 0.451250 0.494419 0.627544
v 0.446250 0.494419 0.627544
v 0.451250 0.497500 0.580625
v 0.451250 0.495669 0.576206
v 0.446250 0.495669 0.576206
v 0.446250 0.497500 0.580625
v 0.451250 0.491250 0.574375
v 0.446250 0.491250 0.574375
v 0.451250 0.486831 0.576206
v 0.446250 0.486831 0.576206
v 0.451250 0.485000 0.580625
v 0.446250 0.485000 0.580625
v 0.451250 0.486831 0.585044
v 0.446250 0.486831 0.585044
v 0.451250 0.491250 0.586875
v 0.446250 0.491250 0.586875
v 0.451250 0.495669 0.585044
v 0.446250 0.495669 0.585044
v 0.553750 0.496250 0.623125
v 0.553750 0.494419 0.618706
v 0.548750 0.494419 0.618706
v 0.548750 0.496250 0.623125
v 0.553750 0.490000 0.616875
v 0.548750 0.490000 0.616875
v 0.553750 0.485581 0.618706
v 0.548750 0.485581 0.618706
v 0.553750 0.483750 0.623125
v 0.548750 0.483750 0.623125
v 0.553750 0.485581 0.627544
v 0.548750 0.485581 0.627544
v 0.553750 0.490000 0.629375
v 0.548750 0.490000 0.629375
v 0.553750 0.494419 0.627544
v 0.548750 0.494419 0.627544
v 0.553750 0.497500 0.580625
v 0.553750 0.495669 0.576206
v 0.548750 0.495669 0.576206
v 0.548750 0.497500 0.580625
v 0.553750 0.491250 0.574375
v 0.548750 0.491250 0.574375
v 0.553750 0.486831 0.576206
v 0.548750 0.486831 0.576206
v 0.553750 0.485000 0.580625
v 0.548750 0.485000 0.580625
v 0.553750 0.486831 0.585044
v 0.548750 0.486831 0.585044
v 0.553750 0.491250 0.586875
v 0.548750 0.491250 0.586875
v 0.553750 0.495669 0.585044
v 0.548750 0.495669 0.585044
v 0.532500 0.356250 0.670625
v 0.467500 0.356250 0.670625
v 0.462500 0.480000 0.643125
v 0.537500 0.480000 0.643125
v 0.467500 0.356250 0.713125
v 0.462500 0.480000 0.694375
v 0.537500 0.480000 0.694375
v 0.532500 0.356250 0.713125
v 0.458125 0.373750 0.663125
v 0.458125 0.373750 0.700625
v 0.458125 0.468750 0.700625
v 0.458125 0.468750 0.663125
v 0.463750 0.373750 0.700625
v 0.463750 0.373750 0.663125
v 0.463750 0.468750 0.663125
v 0.463750 0.468750 0.700625
v 0.536250 0.373750 0.663125
v 0.536250 0.373750 0.700625
v 0.536250 0.468750 0.700625
v 0.536250 0.468750 0.663125
v 0.541875 0.373750 0.700625
v 0.541875 0.373750 0.663125
v 0.541875 0.468750 0.663125
v 0.541875 0.468750 0.700625
v 0.472500 0.440968 0.709052
v 0.472500 0.414309 0.926171
v 0.472500 0.440363 0.929370
v 0.472500 0.467022 0.712251
v 0.527500 0.414309 0.926171
v 0.527500 0.440968 0.709052
v 0.527500 0.467022 0.712251
v 0.527500 0.440363 0.929370
v 0.536250 0.520000 0.709375
v 0.463750 0.520000 0.709375
v 0.463750 0.563750 0.709375
v 0.536250 0.563750 0.709375
v 0.463750 0.520000 0.926875
v 0.467500 0.563750 0.924375
v 0.532500 0.563750 0.924375
v 0.536250 0.520000 0.926875
v 0.538750 0.563750 0.748125
v 0.461250 0.563750 0.748125
v 0.471250 0.582500 0.758125
v 0.528750 0.582500 0.758125
v 0.471250 0.582500 0.898125
v 0.461250 0.563750 0.909375
v 0.528750 0.582500 0.898125
v 0.538750 0.563750 0.909375
v 0.543750 0.416250 0.911875
v 0.456250 0.416250 0.911875
v 0.461250 0.578750 0.925625
v 0.538750 0.578750 0.925625
v 0.456250 0.416250 0.926875
v 0.461250 0.578750 0.943125
v 0.538750 0.578750 0.943125
v 0.543750 0.416250 0.926875
v 0.459375 0.523750 0.740625
v 0.459375 0.523750 0.900625
v 0.459375 0.558750 0.900625
v 0.459375 0.558750 0.740625
v 0.463750 0.523750 0.900625
v 0.463750 0.523750 0.740625
v 0.463750 0.558750 0.740625
v 0.463750 0.558750 0.900625
v 0.536250 0.523750 0.740625
v 0.536250 0.523750 0.900625
v 0.536250 0.558750 0.900625
v 0.536250 0.558750 0.740625
v 0.540625 0.523750 0.900625
v 0.540625 0.523750 0.740625
v 0.540625 0.558750 0.740625
v 0.540625 0.558750 0.900625
v 0.552500 0.470000 0.879375
v 0.552500 0.467990 0.871875
v 0.538750 0.467990 0.871875
v 0.538750 0.470000 0.879375
v 0.552500 0.462500 0.866385
v 0.538750 0.462500 0.866385
v 0.552500 0.455000 0.864375
v 0.538750 0.455000 0.864375
v 0.552500 0.447500 0.866385
v 0.538750 0.447500 0.866385
v 0.552500 0.442010 0.871875
v 0.538750 0.442010 0.871875
v 0.552500 0.440000 0.879375
v 0.538750 0.440000 0.879375
v 0.552500 0.442010 0.886875
v 0.538750 0.442010 0.886875
v 0.552500 0.447500 0.892365
v 0.538750 0.447500 0.892365
v 0.552500 0.455000 0.894375
v 0.538750 0.455000 0.894375
v 0.552500 0.462500 0.892365
v 0.538750 0.462500 0.892365
v 0.552500 0.467990 0.886875
v 0.538750 0.467990 0.886875
v 0.535000 0.440000 0.873125
v 0.535000 0.440000 0.885625
v 0.535000 0.470000 0.885625
v 0.535000 0.470000 0.873125
v 0.538750 0.440000 0.885625
v 0.538750 0.440000 0.873125
v 0.538750 0.470000 0.873125
v 0.538750 0.470000 0.885625
v 0.481250 0.609375 0.711875
v 0.482677 0.616550 0.711875
v 0.482677 0.616550 0.399375
v 0.481250 0.609375 0.399375
v 0.486742 0.622633 0.711875
v 0.486742 0.622633 0.399375
v 0.492825 0.626698 0.711875
v 0.492825 0.626698 0.399375
v 0.500000 0.628125 0.711875
v 0.500000 0.628125 0.399375
v 0.507175 0.626698 0.711875
v 0.507175 0.626698 0.399375
v 0.513258 0.622633 0.711875
v 0.513258 0.622633 0.399375
v 0.517323 0.616550 0.711875
v 0.517323 0.616550 0.399375
v 0.518750 0.609375 0.711875
v 0.518750 0.609375 0.399375
v 0.517323 0.602200 0.711875
v 0.517323 0.602200 0.399375
v 0.513258 0.596117 0.711875
v 0.513258 0.596117 0.399375
v 0.507175 0.592052 0.711875
v 0.507175 0.592052 0.399375
v 0.500000 0.590625 0.711875
v 0.500000 0.590625 0.399375
v 0.492825 0.592052 0.711875
v 0.492825 0.592052 0.399375
v 0.486742 0.596117 0.711875
v 0.486742 0.596117 0.399375
v 0.482677 0.602200 0.711875
v 0.482677 0.602200 0.399375
v 0.478750 0.609375 0.399375
v 0.480368 0.617507 0.399375
v 0.475748 0.619420 0.366875
v 0.473750 0.609375 0.366875
v 0.484974 0.624401 0.399375
v 0.481438 0.627937 0.366875
v 0.491868 0.629007 0.399375
v 0.489955 0.633627 0.366875
v 0.500000 0.630625 0.399375
v 0.500000 0.635625 0.366875
v 0.508132 0.629007 0.399375
v 0.510045 0.633627 0.366875
v 0.515026 0.624401 0.399375
v 0.518562 0.627937 0.366875
v 0.519632 0.617507 0.399375
v 0.524252 0.619420 0.366875
v 0.521250 0.609375 0.399375
v 0.526250 0.609375 0.366875
v 0.519632 0.601243 0.399375
v 0.524252 0.599330 0.366875
v 0.515026 0.594349 0.399375
v 0.518562 0.590813 0.366875
v 0.508132 0.589743 0.399375
v 0.510045 0.585123 0.366875
v 0.500000 0.588125 0.399375
v 0.500000 0.583125 0.366875
v 0.491868 0.589743 0.399375
v 0.489955 0.585123 0.366875
v 0.484974 0.594349 0.399375
v 0.481438 0.590813 0.366875
v 0.480368 0.601243 0.399375
v 0.475748 0.599330 0.366875
v 0.476903 0.618942 0.362500
v 0.475000 0.609375 0.362500
v 0.482322 0.627053 0.362500
v 0.490433 0.632472 0.362500
v 0.500000 0.634375 0.362500
v 0.509567 0.632472 0.362500
v 0.517678 0.627053 0.362500
v 0.523097 0.618942 0.362500
v 0.525000 0.609375 0.362500
v 0.523097 0.599808 0.362500
v 0.517678 0.591697 0.362500
v 0.509567 0.586278 0.362500
v 0.500000 0.584375 0.362500
v 0.490433 0.586278 0.362500
v 0.482322 0.591697 0.362500
v 0.476903 0.599808 0.362500
v 0.478750 0.609375 0.362500
v 0.480368 0.617507 0.362500
v 0.480368 0.617507 0.360000
v 0.478750 0.609375 0.360000
v 0.484974 0.624401 0.362500
v 0.484974 0.624401 0.360000
v 0.491868 0.629007 0.362500
v 0.491868 0.629007 0.360000
v 0.500000 0.630625 0.362500
v 0.500000 0.630625 0.360000
v 0.508132 0.629007 0.362500
v 0.508132 0.629007 0.360000
v 0.515026 0.624401 0.362500
v 0.515026 0.624401 0.360000
v 0.519632 0.617507 0.362500
v 0.519632 0.617507 0.360000
v 0.521250 0.609375 0.362500
v 0.521250 0.609375 0.360000
v 0.519632 0.601243 0.362500
v 0.519632 0.601243 0.360000
v 0.515026 0.594349 0.362500
v 0.515026 0.594349 0.360000
v 0.508132 0.589743 0.362500
v 0.508132 0.589743 0.360000
v 0.500000 0.588125 0.362500
v 0.500000 0.588125 0.360000
v 0.491868 0.589743 0.362500
v 0.491868 0.589743 0.360000
v 0.484974 0.594349 0.362500
v 0.484974 0.594349 0.360000
v 0.480368 0.601243 0.362500
v 0.480368 0.601243 0.360000
v 0.478750 0.609375 0.744375
v 0.480368 0.617507 0.744375
v 0.480945 0.617268 0.711875
v 0.479375 0.609375 0.711875
v 0.484974 0.624401 0.744375
v 0.485416 0.623959 0.711875
v 0.491868 0.629007 0.744375
v 0.492107 0.628430 0.711875
v 0.500000 0.630625 0.744375
v 0.500000 0.630000 0.711875
v 0.508132 0.629007 0.744375
v 0.507893 0.628430 0.711875
v 0.515026 0.624401 0.744375
v 0.514584 0.623959 0.711875
v 0.519632 0.617507 0.744375
v 0.519055 0.617268 0.711875
v 0.521250 0.609375 0.744375
v 0.520625 0.609375 0.711875
v 0.519632 0.601243 0.744375
v 0.519055 0.601482 0.711875
v 0.515026 0.594349 0.744375
v 0.514584 0.594791 0.711875
v 0.508132 0.589743 0.744375
v 0.507893 0.590320 0.711875
v 0.500000 0.588125 0.744375
v 0.500000 0.588750 0.711875
v 0.491868 0.589743 0.744375
v 0.492107 0.590320 0.711875
v 0.484974 0.594349 0.744375
v 0.485416 0.594791 0.711875
v 0.480368 0.601243 0.744375
v 0.480945 0.601482 0.711875
v 0.472500 0.609375 0.755625
v 0.474593 0.619899 0.755625
v 0.476903 0.618942 0.744375
v 0.475000 0.609375 0.744375
v 0.480555 0.628820 0.755625
v 0.482322 0.627053 0.744375
v 0.489476 0.634782 0.755625
v 0.490433 0.632472 0.744375
v 0.500000 0.636875 0.755625
v 0.500000 0.634375 0.744375
v 0.510524 0.634782 0.755625
v 0.509567 0.632472 0.744375
v 0.519445 0.628820 0.755625
v 0.517678 0.627053 0.744375
v 0.525407 0.619899 0.755625
v 0.523097 0.618942 0.744375
v 0.527500 0.609375 0.755625
v 0.525000 0.609375 0.744375
v 0.525407 0.598851 0.755625
v 0.523097 0.599808 0.744375
v 0.519445 0.589930 0.755625
v 0.517678 0.591697 0.744375
v 0.510524 0.583968 0.755625
v 0.509567 0.586278 0.744375
v 0.500000 0.581875 0.755625
v 0.500000 0.584375 0.744375
v 0.489476 0.583968 0.755625
v 0.490433 0.586278 0.744375
v 0.480555 0.589930 0.755625
v 0.482322 0.591697 0.744375
v 0.474593 0.598851 0.755625
v 0.476903 0.599808 0.744375
v 0.478125 0.609375 0.514375
v 0.479790 0.617746 0.514375
v 0.479790 0.617746 0.496875
v 0.478125 0.609375 0.496875
v 0.484532 0.624843 0.514375
v 0.484532 0.624843 0.496875
v 0.491629 0.629585 0.514375
v 0.491629 0.629585 0.496875
v 0.500000 0.631250 0.514375
v 0.500000 0.631250 0.496875
v 0.508371 0.629585 0.514375
v 0.508371 0.629585 0.496875
v 0.515468 0.624843 0.514375
v 0.515468 0.624843 0.496875
v 0.520210 0.617746 0.514375
v 0.520210 0.617746 0.496875
v 0.521875 0.609375 0.514375
v 0.521875 0.609375 0.496875
v 0.520210 0.601004 0.514375
v 0.520210 0.601004 0.496875
v 0.515468 0.593907 0.514375
v 0.515468 0.593907 0.496875
v 0.508371 0.589165 0.514375
v 0.508371 0.589165 0.496875
v 0.500000 0.587500 0.514375
v 0.500000 0.587500 0.496875
v 0.491629 0.589165 0.514375
v 0.491629 0.589165 0.496875
v 0.484532 0.593907 0.514375
v 0.484532 0.593907 0.496875
v 0.479790 0.601004 0.514375
v 0.479790 0.601004 0.496875
v 0.487500 0.643750 0.536875
v 0.489175 0.643750 0.530625
v 0.489175 0.626250 0.530625
v 0.487500 0.626250 0.536875
v 0.493750 0.643750 0.526050
v 0.493750 0.626250 0.526050
v 0.500000 0.643750 0.524375
v 0.500000 0.626250 0.524375
v 0.506250 0.643750 0.526050
v 0.506250 0.626250 0.526050
v 0.510825 0.643750 0.530625
v 0.510825 0.626250 0.530625
v 0.512500 0.643750 0.536875
v 0.512500 0.626250 0.536875
v 0.510825 0.643750 0.543125
v 0.510825 0.626250 0.543125
v 0.506250 0.643750 0.547700
v 0.506250 0.626250 0.547700
v 0.500000 0.643750 0.549375
v 0.500000 0.626250 0.549375
v 0.493750 0.643750 0.547700
v 0.493750 0.626250 0.547700
v 0.489175 0.643750 0.543125
v 0.489175 0.626250 0.543125
v 0.481250 0.621250 0.536875
v 0.481250 0.619659 0.530937
v 0.467500 0.619659 0.530937
v 0.467500 0.621250 0.536875
v 0.481250 0.615313 0.526591
v 0.467500 0.615313 0.526591
v 0.481250 0.609375 0.525000
v 0.467500 0.609375 0.525000
v 0.481250 0.603438 0.526591
v 0.467500 0.603438 0.526591
v 0.481250 0.599091 0.530937
v 0.467500 0.599091 0.530937
v 0.481250 0.597500 0.536875
v 0.467500 0.597500 0.536875
v 0.481250 0.599091 0.542812
v 0.467500 0.599091 0.542812
v 0.481250 0.603437 0.547159
v 0.467500 0.603437 0.547159
v 0.481250 0.609375 0.548750
v 0.467500 0.609375 0.548750
v 0.481250 0.615313 0.547159
v 0.467500 0.615313 0.547159
v 0.481250 0.619659 0.542812
v 0.467500 0.619659 0.542812
v 0.532500 0.606250 0.536875
v 0.532500 0.604827 0.531562
v 0.518750 0.604827 0.531562
v 0.518750 0.606250 0.536875
v 0.532500 0.600938 0.527673
v 0.518750 0.600938 0.527673
v 0.532500 0.595625 0.526250
v 0.518750 0.595625 0.526250
v 0.532500 0.590313 0.527673
v 0.518750 0.590313 0.527673
v 0.532500 0.586423 0.531562
v 0.518750 0.586423 0.531562
v 0.532500 0.585000 0.536875
v 0.518750 0.585000 0.536875
v 0.532500 0.586423 0.542187
v 0.518750 0.586423 0.542187
v 0.532500 0.590313 0.546077
v 0.518750 0.590313 0.546077
v 0.532500 0.595625 0.547500
v 0.518750 0.595625 0.547500
v 0.532500 0.600938 0.546077
v 0.518750 0.600938 0.546077
v 0.532500 0.604827 0.542188
v 0.518750 0.604827 0.542188
v 0.476250 0.561250 0.653125
v 0.476250 0.561250 0.686875
v 0.476250 0.600000 0.686875
v 0.476250 0.600000 0.653125
v 0.523750 0.561250 0.686875
v 0.523750 0.561250 0.653125
v 0.523750 0.600000 0.653125
v 0.523750 0.600000 0.686875
v 0.471250 0.566250 0.662500
v 0.471250 0.566250 0.677500
v 0.471250 0.576250 0.677500
v 0.471250 0.576250 0.662500
v 0.476250 0.566250 0.677500
v 0.476250 0.566250 0.662500
v 0.476250 0.576250 0.662500
v 0.476250 0.576250 0.677500
v 0.523750 0.566250 0.662500
v 0.523750 0.566250 0.677500
v 0.523750 0.576250 0.677500
v 0.523750 0.576250 0.662500
v 0.528750 0.566250 0.677500
v 0.528750 0.566250 0.662500
v 0.528750 0.576250 0.662500
v 0.528750 0.576250 0.677500
v 0.476250 0.561250 0.494375
v 0.476250 0.561250 0.528125
v 0.476250 0.600000 0.528125
v 0.476250 0.600000 0.494375
v 0.523750 0.561250 0.528125
v 0.523750 0.561250 0.494375
v 0.523750 0.600000 0.494375
v 0.523750 0.600000 0.528125
v 0.471250 0.566250 0.503750
v 0.471250 0.566250 0.518750
v 0.471250 0.576250 0.518750
v 0.471250 0.576250 0.503750
v 0.476250 0.566250 0.518750
v 0.476250 0.566250 0.503750
v 0.476250 0.576250 0.503750
v 0.476250 0.576250 0.518750
v 0.523750 0.566250 0.503750
v 0.523750 0.566250 0.518750
v 0.523750 0.576250 0.518750
v 0.523750 0.576250 0.503750
v 0.528750 0.566250 0.518750
v 0.528750 0.566250 0.503750
v 0.528750 0.576250 0.503750
v 0.528750 0.576250 0.518750
v 0.473750 0.561250 0.480625
v 0.473750 0.561250 0.703125
v 0.473750 0.571250 0.703125
v 0.473750 0.571250 0.480625
v 0.526250 0.561250 0.703125
v 0.526250 0.561250 0.480625
v 0.526250 0.571250 0.480625
v 0.526250 0.571250 0.703125
v 0.477500 0.571250 0.685625
v 0.477500 0.571250 0.698125
v 0.477500 0.577500 0.698125
v 0.477500 0.577500 0.685625
v 0.522500 0.571250 0.698125
v 0.522500 0.571250 0.685625
v 0.522500 0.577500 0.685625
v 0.522500 0.577500 0.698125
v 0.477500 0.571250 0.654375
v 0.477500 0.571250 0.666875
v 0.477500 0.577500 0.666875
v 0.477500 0.577500 0.654375
v 0.522500 0.571250 0.666875
v 0.522500 0.571250 0.654375
v 0.522500 0.577500 0.654375
v 0.522500 0.577500 0.666875
v 0.477500 0.571250 0.623125
v 0.477500 0.571250 0.635625
v 0.477500 0.577500 0.635625
v 0.477500 0.577500 0.623125
v 0.522500 0.571250 0.635625
v 0.522500 0.571250 0.623125
v 0.522500 0.577500 0.623125
v 0.522500 0.577500 0.635625
v 0.477500 0.571250 0.591875
v 0.477500 0.571250 0.604375
v 0.477500 0.577500 0.604375
v 0.477500 0.577500 0.591875
v 0.522500 0.571250 0.604375
v 0.522500 0.571250 0.591875
v 0.522500 0.577500 0.591875
v 0.522500 0.577500 0.604375
v 0.477500 0.571250 0.560625
v 0.477500 0.571250 0.573125
v 0.477500 0.577500 0.573125
v 0.477500 0.577500 0.560625
v 0.522500 0.571250 0.573125
v 0.522500 0.571250 0.560625
v 0.522500 0.577500 0.560625
v 0.522500 0.577500 0.573125
v 0.477500 0.571250 0.529375
v 0.477500 0.571250 0.541875
v 0.477500 0.577500 0.541875
v 0.477500 0.577500 0.529375
v 0.522500 0.571250 0.541875
v 0.522500 0.571250 0.529375
v 0.522500 0.577500 0.529375
v 0.522500 0.577500 0.541875
v 0.477500 0.571250 0.498125
v 0.477500 0.571250 0.510625
v 0.477500 0.577500 0.510625
v 0.477500 0.577500 0.498125
v 0.522500 0.571250 0.510625
v 0.522500 0.571250 0.498125
v 0.522500 0.577500 0.498125
v 0.522500 0.577500 0.510625
v 0.481250 0.576250 0.469375
v 0.481250 0.576250 0.495625
v 0.481250 0.583750 0.495625
v 0.481250 0.583750 0.469375
v 0.518750 0.576250 0.495625
v 0.518750 0.576250 0.469375
v 0.518750 0.583750 0.469375
v 0.518750 0.583750 0.495625
v 0.481250 0.566875 0.159375
v 0.481250 0.566875 0.176875
v 0.481250 0.576250 0.176875
v 0.481250 0.576250 0.159375
v 0.518750 0.566875 0.176875
v 0.518750 0.566875 0.159375
v 0.518750 0.576250 0.159375
v 0.518750 0.576250 0.176875
v 0.467500 0.553750 0.135625
v 0.467500 0.553750 0.155625
v 0.467500 0.572500 0.155625
v 0.467500 0.572500 0.135625
v 0.475000 0.553750 0.155625
v 0.475000 0.553750 0.135625
v 0.475000 0.572500 0.135625
v 0.475000 0.572500 0.155625
v 0.525000 0.553750 0.135625
v 0.525000 0.553750 0.155625
v 0.525000 0.572500 0.155625
v 0.525000 0.572500 0.135625
v 0.532500 0.553750 0.155625
v 0.532500 0.553750 0.135625
v 0.532500 0.572500 0.135625
v 0.532500 0.572500 0.155625
vt 0.000977 0.061523
vt 0.061523 0.061523
vt 0.061523 0.000977
vt 0.000977 0.000977
vt 0.063477 0.061523
vt 0.124023 0.061523
vt 0.124023 0.000977
vt 0.063477 0.000977
vt 0.186523 0.000977
vt 0.125977 0.000977
vt 0.125977 0.061523
vt 0.186523 0.061523
vt 0.375977 0.061523
vt 0.436523 0.061523
vt 0.436523 0.000977
vt 0.375977 0.000977
vt 0.813477 0.186523
vt 0.874023 0.186523
vt 0.874023 0.125977
vt 0.813477 0.125977
vt 0.561523 0.000977
vt 0.500977 0.000977
vt 0.500977 0.061523
vt 0.561523 0.061523
vt 0.250977 0.186523
vt 0.311523 0.186523
vt 0.311523 0.125977
vt 0.250977 0.125977
vt 0.438477 0.061523
vt 0.499023 0.061523
vt 0.499023 0.000977
vt 0.438477 0.000977
vt 0.243137 0.000977
vt 0.194363 0.000977
vt 0.188477 0.061523
vt 0.249023 0.061523
vt 0.249023 0.000977
vt 0.196045 0.000977
vt 0.241455 0.000977
vt 0.188477 0.000977
vt 0.374023 0.000977
vt 0.313477 0.000977
vt 0.313477 0.061523
vt 0.374023 0.061523
vt 0.311523 0.000977
vt 0.250977 0.000977
vt 0.250977 0.061523
vt 0.311523 0.061523
vt 0.242857 0.000977
vt 0.194643 0.000977
vt 0.234296 0.000977
vt 0.201568 0.000977
vt 0.235932 0.000977
vt 0.203204 0.000977
vt 0.244895 0.000977
vt 0.192605 0.000977
vt 0.241057 0.000977
vt 0.196443 0.000977
vt 0.192109 0.061523
vt 0.245391 0.061523
vt 0.619366 0.000977
vt 0.568134 0.000977
vt 0.563477 0.061523
vt 0.624023 0.061523
vt 0.611049 0.000977
vt 0.576451 0.000977
vt 0.749023 0.000977
vt 0.688477 0.000977
vt 0.688477 0.061523
vt 0.749023 0.061523
vt 0.374023 0.125977
vt 0.313477 0.125977
vt 0.313477 0.186523
vt 0.374023 0.186523
vt 0.000977 0.107627
vt 0.039469 0.124023
vt 0.061523 0.078900
vt 0.026452 0.063477
vt 0.938477 0.003071
vt 0.938868 0.061523
vt 0.999023 0.055266
vt 0.999023 0.000977
vt 0.085448 0.124023
vt 0.124023 0.107549
vt 0.098624 0.063477
vt 0.063477 0.078973
vt 0.998635 0.061523
vt 0.999023 0.003071
vt 0.938477 0.000977
vt 0.938477 0.055266
vt 0.000977 0.109517
vt 0.034861 0.124023
vt 0.061523 0.074580
vt 0.029653 0.063477
vt 0.938477 0.059352
vt 0.998043 0.061523
vt 0.999023 0.007786
vt 0.089916 0.124023
vt 0.124023 0.109316
vt 0.095557 0.063477
vt 0.063477 0.074732
vt 0.999023 0.059351
vt 0.938477 0.007785
vt 0.939494 0.061523
vt 0.000977 0.109720
vt 0.044778 0.124023
vt 0.061523 0.064414
vt 0.019076 0.063477
vt 0.939582 0.000977
vt 0.938477 0.042718
vt 0.996068 0.061523
vt 0.999023 0.024045
vt 0.080458 0.124023
vt 0.124023 0.109176
vt 0.105696 0.063477
vt 0.063477 0.064401
vt 0.999023 0.042698
vt 0.997616 0.000977
vt 0.938477 0.024025
vt 0.942122 0.061523
vt 0.014659 0.123565
vt 0.061523 0.124023
vt 0.041972 0.063477
vt 0.000977 0.068254
vt 0.941035 0.000977
vt 0.938477 0.028414
vt 0.996387 0.061523
vt 0.999023 0.039391
vt 0.063477 0.124023
vt 0.111119 0.123507
vt 0.124023 0.068307
vt 0.082348 0.063477
vt 0.999023 0.028409
vt 0.996162 0.000977
vt 0.938477 0.039385
vt 0.941397 0.061523
vt 0.063477 0.124023
vt 0.124023 0.124023
vt 0.124023 0.063477
vt 0.063477 0.063477
vt 0.124023 0.063477
vt 0.063477 0.063477
vt 0.453613 0.005032
vt 0.442532 0.016113
vt 0.438477 0.031250
vt 0.442532 0.046387
vt 0.453613 0.057468
vt 0.468750 0.061523
vt 0.483887 0.057468
vt 0.494968 0.046387
vt 0.499023 0.031250
vt 0.494968 0.016113
vt 0.483887 0.005032
vt 0.468750 0.000977
vt 0.500977 0.125977
vt 0.500977 0.186523
vt 0.561523 0.186523
vt 0.561523 0.125977
vt 0.582165 0.128281
vt 0.572343 0.134843
vt 0.565781 0.144665
vt 0.563477 0.156250
vt 0.565781 0.167835
vt 0.572343 0.177657
vt 0.582165 0.184219
vt 0.593750 0.186523
vt 0.605335 0.184219
vt 0.615157 0.177657
vt 0.621719 0.167835
vt 0.624023 0.156250
vt 0.621719 0.144665
vt 0.615157 0.134843
vt 0.605335 0.128281
vt 0.593750 0.125977
vt 0.578613 0.130032
vt 0.567532 0.141113
vt 0.567532 0.171387
vt 0.578613 0.182468
vt 0.608887 0.182468
vt 0.619968 0.171387
vt 0.619968 0.141113
vt 0.608887 0.130032
vt 0.023031 0.124023
vt 0.061523 0.107627
vt 0.036048 0.063477
vt 0.000977 0.078900
vt 0.938865 0.061523
vt 0.063477 0.107549
vt 0.102052 0.124023
vt 0.124023 0.078973
vt 0.088876 0.063477
vt 0.998632 0.061523
vt 0.027639 0.124023
vt 0.061523 0.109517
vt 0.032847 0.063477
vt 0.000977 0.074580
vt 0.938477 0.059351
vt 0.998006 0.061523
vt 0.999023 0.007785
vt 0.063477 0.109316
vt 0.097584 0.124023
vt 0.124023 0.074732
vt 0.091943 0.063477
vt 0.999023 0.059352
vt 0.938477 0.007786
vt 0.939457 0.061523
vt 0.017722 0.124023
vt 0.061523 0.109720
vt 0.043424 0.063477
vt 0.000977 0.064414
vt 0.939884 0.000977
vt 0.938477 0.042698
vt 0.995378 0.061523
vt 0.999023 0.024025
vt 0.063477 0.109176
vt 0.107042 0.124023
vt 0.124023 0.064401
vt 0.081804 0.063477
vt 0.999023 0.042718
vt 0.997918 0.000977
vt 0.938477 0.024045
vt 0.941432 0.061523
vt 0.000977 0.124023
vt 0.047841 0.123565
vt 0.061523 0.068254
vt 0.020528 0.063477
vt 0.941338 0.000977
vt 0.938477 0.028409
vt 0.996103 0.061523
vt 0.999023 0.039385
vt 0.076381 0.123507
vt 0.105152 0.063477
vt 0.063477 0.068307
vt 0.999023 0.028414
vt 0.996465 0.000977
vt 0.938477 0.039391
vt 0.941113 0.061523
vt 0.063477 0.124023
vt 0.124023 0.124023
vt 0.124023 0.063477
vt 0.063477 0.063477
vt 0.624023 0.124023
vt 0.624023 0.063477
vt 0.563477 0.063477
vt 0.563477 0.124023
vt 0.500977 0.063477
vt 0.500977 0.124023
vt 0.561523 0.124023
vt 0.561523 0.063477
vt 0.625977 0.063477
vt 0.625977 0.124023
vt 0.686523 0.124023
vt 0.686523 0.063477
vt 0.811523 0.065312
vt 0.808513 0.063477
vt 0.750977 0.122188
vt 0.753987 0.124023
vt 0.688477 0.109222
vt 0.688781 0.124023
vt 0.749023 0.078278
vt 0.748719 0.063477
vt 0.816487 0.063477
vt 0.813477 0.065312
vt 0.871013 0.124023
vt 0.874023 0.122188
vt 0.748719 0.124023
vt 0.749023 0.109222
vt 0.688781 0.063477
vt 0.688477 0.078278
vt 0.813477 0.124023
vt 0.874023 0.124023
vt 0.874023 0.063477
vt 0.813477 0.063477
vt 0.813477 0.124023
vt 0.753987 0.063477
vt 0.750977 0.065312
vt 0.808513 0.124023
vt 0.811523 0.122188
vt 0.874023 0.065312
vt 0.871013 0.063477
vt 0.813477 0.122188
vt 0.816487 0.124023
vt 0.874023 0.124023
vt 0.874023 0.063477
vt 0.245239 0.000977
vt 0.192261 0.000977
vt 0.244987 0.000977
vt 0.193522 0.000977
vt 0.243978 0.000977
vt 0.192513 0.000977
vt 0.060480 0.000977
vt 0.002020 0.000977
vt 0.058771 0.000977
vt 0.003729 0.000977
vt 0.063477 0.186523
vt 0.124023 0.186523
vt 0.124023 0.125977
vt 0.063477 0.125977
vt 0.403921 0.061523
vt 0.408579 0.000977
vt 0.408579 0.061523
vt 0.403921 0.000977
vt 0.875977 0.063477
vt 0.875977 0.124023
vt 0.936523 0.124023
vt 0.936523 0.063477
vt 0.947343 0.072343
vt 0.938477 0.093750
vt 0.947343 0.115157
vt 0.968750 0.124023
vt 0.990157 0.115157
vt 0.999023 0.093750
vt 0.990157 0.072343
vt 0.968750 0.063477
vt 0.567513 0.061523
vt 0.619987 0.061523
vt 0.624023 0.000977
vt 0.563477 0.000977
vt 0.587263 0.061523
vt 0.607806 0.000977
vt 0.600237 0.061523
vt 0.579694 0.000977
vt 0.936523 0.000977
vt 0.875977 0.000977
vt 0.875977 0.061523
vt 0.936523 0.061523
vt 0.625977 0.061523
vt 0.686523 0.061523
vt 0.686523 0.000977
vt 0.625977 0.000977
vt 0.375977 0.186523
vt 0.436523 0.186523
vt 0.436523 0.125977
vt 0.375977 0.125977
vt 0.000977 0.061411
vt 0.060837 0.000977
vt 0.000977 0.001089
vt 0.058392 0.000977
vt 0.004108 0.000977
vt 0.061523 0.061411
vt 0.061523 0.001089
vt 0.001663 0.000977
vt 0.120892 0.000977
vt 0.066608 0.000977
vt 0.616211 0.000977
vt 0.571289 0.000977
vt 0.620269 0.000977
vt 0.567701 0.000977
vt 0.619799 0.000977
vt 0.567231 0.000977
vt 0.750977 0.061523
vt 0.811523 0.061523
vt 0.808064 0.000977
vt 0.754436 0.000977
vt 0.780039 0.061523
vt 0.811523 0.000977
vt 0.777617 0.000977
vt 0.782461 0.061523
vt 0.784883 0.000977
vt 0.750977 0.000977
vt 0.874023 0.000977
vt 0.813477 0.000977
vt 0.813477 0.061523
vt 0.874023 0.061523
vt 0.625977 0.125977
vt 0.625977 0.186523
vt 0.686523 0.186523
vt 0.686523 0.125977
vt 0.374023 0.124023
vt 0.374023 0.063477
vt 0.313477 0.063477
vt 0.313477 0.124023
vt 0.373574 0.124023
vt 0.374023 0.075009
vt 0.314032 0.063477
vt 0.372542 0.124023
vt 0.374023 0.084002
vt 0.315306 0.063477
vt 0.313477 0.112915
vt 0.370815 0.124023
vt 0.374023 0.093793
vt 0.317440 0.063477
vt 0.313477 0.100821
vt 0.368257 0.063477
vt 0.319243 0.063477
vt 0.313477 0.093793
vt 0.316685 0.124023
vt 0.374023 0.100821
vt 0.370060 0.063477
vt 0.313477 0.084002
vt 0.314958 0.124023
vt 0.374023 0.112915
vt 0.372194 0.063477
vt 0.313477 0.075009
vt 0.313926 0.124023
vt 0.373468 0.063477
vt 0.313926 0.063477
vt 0.313477 0.112491
vt 0.373468 0.124023
vt 0.374023 0.063477
vt 0.314958 0.063477
vt 0.313477 0.103498
vt 0.372194 0.124023
vt 0.374023 0.074585
vt 0.316685 0.063477
vt 0.313477 0.093707
vt 0.370060 0.124023
vt 0.374023 0.086679
vt 0.368257 0.063477
vt 0.374023 0.093707
vt 0.370815 0.063477
vt 0.313477 0.086679
vt 0.317440 0.124023
vt 0.374023 0.103498
vt 0.372542 0.063477
vt 0.313477 0.074585
vt 0.315306 0.124023
vt 0.374023 0.112491
vt 0.373574 0.063477
vt 0.314032 0.124023
vt 0.367472 0.063477
vt 0.313477 0.066360
vt 0.319716 0.124023
vt 0.374023 0.120803
vt 0.356405 0.063477
vt 0.313477 0.069426
vt 0.330256 0.124023
vt 0.374023 0.115883
vt 0.344840 0.063477
vt 0.313477 0.074113
vt 0.341270 0.124023
vt 0.314918 0.124023
vt 0.372582 0.124023
vt 0.372582 0.124023
vt 0.342660 0.063477
vt 0.313477 0.115883
vt 0.346230 0.124023
vt 0.374023 0.074113
vt 0.331095 0.063477
vt 0.313477 0.120803
vt 0.357244 0.124023
vt 0.374023 0.069426
vt 0.320028 0.063477
vt 0.367784 0.124023
vt 0.374023 0.066360
vt 0.320028 0.124023
vt 0.374023 0.121140
vt 0.367784 0.063477
vt 0.313477 0.066697
vt 0.331095 0.124023
vt 0.374023 0.118074
vt 0.357244 0.063477
vt 0.313477 0.071617
vt 0.342660 0.124023
vt 0.374023 0.113387
vt 0.346230 0.063477
vt 0.344840 0.124023
vt 0.374023 0.071617
vt 0.341270 0.063477
vt 0.313477 0.113387
vt 0.356405 0.124023
vt 0.374023 0.066697
vt 0.330256 0.063477
vt 0.313477 0.118074
vt 0.367472 0.124023
vt 0.319716 0.063477
vt 0.313477 0.121140
vt 0.749023 0.156250
vt 0.746719 0.144665
vt 0.740157 0.134843
vt 0.730335 0.128281
vt 0.718750 0.125977
vt 0.707165 0.128281
vt 0.697343 0.134843
vt 0.690781 0.144665
vt 0.688477 0.156250
vt 0.690781 0.167835
vt 0.697343 0.177657
vt 0.707165 0.184219
vt 0.718750 0.186523
vt 0.730335 0.184219
vt 0.740157 0.177657
vt 0.746719 0.167835
vt 0.374023 0.124023
vt 0.373966 0.063477
vt 0.313477 0.065257
vt 0.313533 0.124023
vt 0.374023 0.121993
vt 0.373829 0.063477
vt 0.313477 0.067228
vt 0.313665 0.124023
vt 0.374023 0.118723
vt 0.373591 0.063477
vt 0.313477 0.070402
vt 0.313897 0.124023
vt 0.314367 0.124023
vt 0.373133 0.124023
vt 0.313909 0.063477
vt 0.313477 0.118723
vt 0.373603 0.124023
vt 0.374023 0.070402
vt 0.313671 0.063477
vt 0.313477 0.121993
vt 0.373835 0.124023
vt 0.374023 0.067228
vt 0.313534 0.063477
vt 0.313477 0.124023
vt 0.373967 0.124023
vt 0.374023 0.065257
vt 0.313534 0.124023
vt 0.374023 0.122243
vt 0.373967 0.063477
vt 0.313477 0.065507
vt 0.313671 0.124023
vt 0.374023 0.120272
vt 0.373835 0.063477
vt 0.313477 0.068777
vt 0.313909 0.124023
vt 0.374023 0.117098
vt 0.373603 0.063477
vt 0.373591 0.124023
vt 0.374023 0.068777
vt 0.313897 0.063477
vt 0.313477 0.117098
vt 0.373829 0.124023
vt 0.374023 0.065507
vt 0.313665 0.063477
vt 0.313477 0.120272
vt 0.373966 0.124023
vt 0.313533 0.063477
vt 0.313477 0.122243
vt 0.753281 0.167835
vt 0.759843 0.177657
vt 0.769665 0.184219
vt 0.781250 0.186523
vt 0.792835 0.184219
vt 0.802657 0.177657
vt 0.809219 0.167835
vt 0.811523 0.156250
vt 0.809219 0.144665
vt 0.802657 0.134843
vt 0.792835 0.128281
vt 0.781250 0.125977
vt 0.769665 0.128281
vt 0.759843 0.134843
vt 0.753281 0.144665
vt 0.750977 0.156250
vt 0.809220 0.000977
vt 0.750977 0.006481
vt 0.753070 0.061523
vt 0.811523 0.055660
vt 0.804397 0.000977
vt 0.750977 0.011812
vt 0.757455 0.061523
vt 0.811523 0.047675
vt 0.797513 0.000977
vt 0.750977 0.019070
vt 0.763713 0.061523
vt 0.753729 0.061523
vt 0.808771 0.061523
vt 0.764987 0.000977
vt 0.750977 0.047675
vt 0.798787 0.061523
vt 0.811523 0.019070
vt 0.758103 0.000977
vt 0.750977 0.055660
vt 0.805045 0.061523
vt 0.811523 0.011812
vt 0.753280 0.000977
vt 0.809430 0.061523
vt 0.811523 0.006481
vt 0.753280 0.061523
vt 0.811523 0.056019
vt 0.809430 0.000977
vt 0.750977 0.006840
vt 0.758103 0.061523
vt 0.811523 0.050688
vt 0.805045 0.000977
vt 0.750977 0.014825
vt 0.764987 0.061523
vt 0.811523 0.043430
vt 0.798787 0.000977
vt 0.797513 0.061523
vt 0.811523 0.014825
vt 0.763713 0.000977
vt 0.750977 0.043430
vt 0.804397 0.061523
vt 0.811523 0.006840
vt 0.757455 0.000977
vt 0.750977 0.050688
vt 0.809220 0.061523
vt 0.753070 0.000977
vt 0.750977 0.056019
vt 0.878281 0.042835
vt 0.884843 0.052657
vt 0.894665 0.059219
vt 0.906250 0.061523
vt 0.917835 0.059219
vt 0.927657 0.052657
vt 0.934219 0.042835
vt 0.936523 0.031250
vt 0.934219 0.019665
vt 0.927657 0.009843
vt 0.917835 0.003281
vt 0.906250 0.000977
vt 0.894665 0.003281
vt 0.884843 0.009843
vt 0.878281 0.019665
vt 0.875977 0.031250
vt 0.499023 0.186523
vt 0.499023 0.125977
vt 0.438477 0.125977
vt 0.438477 0.186523
vt 0.253281 0.042835
vt 0.259843 0.052657
vt 0.269665 0.059219
vt 0.281250 0.061523
vt 0.292835 0.059219
vt 0.302657 0.052657
vt 0.309219 0.042835
vt 0.311523 0.031250
vt 0.309219 0.019665
vt 0.302657 0.009843
vt 0.292835 0.003281
vt 0.281250 0.000977
vt 0.269665 0.003281
vt 0.259843 0.009843
vt 0.253281 0.019665
vt 0.250977 0.031250
vt 0.438477 0.156250
vt 0.442532 0.171387
vt 0.453613 0.182468
vt 0.468750 0.186523
vt 0.483887 0.182468
vt 0.494968 0.171387
vt 0.499023 0.156250
vt 0.494968 0.141113
vt 0.483887 0.130032
vt 0.468750 0.125977
vt 0.453613 0.130032
vt 0.442532 0.141113
vt 0.938477 0.124023
vt 0.999023 0.124023
vt 0.999023 0.063477
vt 0.938477 0.063477
vt 0.061523 0.125977
vt 0.000977 0.125977
vt 0.000977 0.186523
vt 0.061523 0.186523
usemtl mat
f 1/1 2/2 3/3
f 1/1 3/3 4/4
f 5/1 6/2 7/3
f 5/1 7/3 8/4
f 6/1 1/2 4/3
f 6/1 4/3 7/4
f 2/1 5/2 8/3
f 2/1 8/3 3/4
f 7/5 4/6 3/7
f 7/5 3/7 8/8
f 5/9 2/10 1/11
f 5/9 1/11 6/12
f 4/1 3/2 9/3
f 4/1 9/3 10/4
f 11/1 12/2 13/3
f 11/1 13/3 14/4
f 12/1 4/2 10/3
f 12/1 10/3 13/4
f 3/1 11/2 14/3
f 3/1 14/3 9/4
f 13/5 10/6 9/7
f 13/5 9/7 14/8
f 11/9 3/10 4/11
f 11/9 4/11 12/12
f 15/1 16/2 17/3
f 15/1 17/3 18/4
f 8/1 7/2 19/3
f 8/1 19/3 20/4
f 7/1 15/2 18/3
f 7/1 18/3 19/4
f 16/1 8/2 20/3
f 16/1 20/3 17/4
f 19/5 18/6 17/7
f 19/5 17/7 20/8
f 8/9 16/10 15/11
f 8/9 15/11 7/12
f 12/13 11/14 21/15
f 12/13 21/15 22/16
f 16/13 15/14 23/15
f 16/13 23/15 24/16
f 15/13 12/14 22/15
f 15/13 22/15 23/16
f 11/13 16/14 24/15
f 11/13 24/15 21/16
f 23/17 22/18 21/19
f 23/17 21/19 24/20
f 16/21 11/22 12/23
f 16/21 12/23 15/24
f 25/25 26/26 27/27
f 25/25 27/27 28/28
f 29/1 30/2 31/3
f 29/1 31/3 32/4
f 30/1 25/2 28/3
f 30/1 28/3 31/4
f 26/1 29/2 32/3
f 26/1 32/3 27/4
f 31/5 28/6 27/7
f 31/5 27/7 32/8
f 29/9 26/10 25/11
f 29/9 25/11 30/12
f 33/25 34/26 35/27
f 33/25 35/27 36/28
f 37/1 38/2 39/3
f 37/1 39/3 40/4
f 38/1 33/2 36/3
f 38/1 36/3 39/4
f 34/1 37/2 40/3
f 34/1 40/3 35/4
f 39/5 36/6 35/7
f 39/5 35/7 40/8
f 37/9 34/10 33/11
f 37/9 33/11 38/12
f 41/1 42/2 43/3
f 41/1 43/3 44/4
f 45/25 46/26 47/27
f 45/25 47/27 48/28
f 46/1 41/2 44/3
f 46/1 44/3 47/4
f 42/1 45/2 48/3
f 42/1 48/3 43/4
f 47/5 44/6 43/7
f 47/5 43/7 48/8
f 45/9 42/10 41/11
f 45/9 41/11 46/12
f 49/1 50/2 51/3
f 49/1 51/3 52/4
f 53/25 54/26 55/27
f 53/25 55/27 56/28
f 54/1 49/2 52/3
f 54/1 52/3 55/4
f 50/1 53/2 56/3
f 50/1 56/3 51/4
f 55/5 52/6 51/7
f 55/5 51/7 56/8
f 53/9 50/10 49/11
f 53/9 49/11 54/12
f 57/13 58/14 59/15
f 57/13 59/15 60/16
f 61/13 62/14 63/15
f 61/13 63/15 64/16
f 62/13 57/14 60/15
f 62/13 60/15 63/16
f 58/13 61/14 64/15
f 58/13 64/15 59/16
f 63/29 60/30 59/31
f 63/29 59/31 64/32
f 61/21 58/22 57/23
f 61/21 57/23 62/24
f 65/13 66/14 67/15
f 65/13 67/15 68/16
f 69/13 70/14 71/15
f 69/13 71/15 72/16
f 70/13 65/14 68/15
f 70/13 68/15 71/16
f 66/13 69/14 72/15
f 66/13 72/15 67/16
f 71/29 68/30 67/31
f 71/29 67/31 72/32
f 69/21 66/22 65/23
f 69/21 65/23 70/24
f 73/13 74/14 75/15
f 73/13 75/15 76/16
f 77/13 78/14 79/15
f 77/13 79/15 80/16
f 78/13 73/14 76/15
f 78/13 76/15 79/16
f 74/13 77/14 80/15
f 74/13 80/15 75/16
f 79/29 76/30 75/31
f 79/29 75/31 80/32
f 77/21 74/22 73/23
f 77/21 73/23 78/24
f 81/13 82/14 83/15
f 81/13 83/15 84/16
f 85/13 86/14 87/15
f 85/13 87/15 88/16
f 86/13 81/14 84/15
f 86/13 84/15 87/16
f 82/13 85/14 88/15
f 82/13 88/15 83/16
f 87/29 84/30 83/31
f 87/29 83/31 88/32
f 85/21 82/22 81/23
f 85/21 81/23 86/24
f 89/13 90/14 91/15
f 89/13 91/15 92/16
f 93/13 94/14 95/15
f 93/13 95/15 96/16
f 94/13 89/14 92/15
f 94/13 92/15 95/16
f 90/13 93/14 96/15
f 90/13 96/15 91/16
f 95/29 92/30 91/31
f 95/29 91/31 96/32
f 93/21 90/22 89/23
f 93/21 89/23 94/24
f 97/13 98/14 99/15
f 97/13 99/15 100/16
f 101/13 102/14 103/15
f 101/13 103/15 104/16
f 102/13 97/14 100/15
f 102/13 100/15 103/16
f 98/13 101/14 104/15
f 98/13 104/15 99/16
f 103/29 100/30 99/31
f 103/29 99/31 104/32
f 101/21 98/22 97/23
f 101/21 97/23 102/24
f 105/13 106/14 107/15
f 105/13 107/15 108/16
f 109/13 110/14 111/15
f 109/13 111/15 112/16
f 110/13 105/14 108/15
f 110/13 108/15 111/16
f 106/13 109/14 112/15
f 106/13 112/15 107/16
f 111/29 108/30 107/31
f 111/29 107/31 112/32
f 109/21 106/22 105/23
f 109/21 105/23 110/24
f 113/33 114/34 115/35
f 113/33 115/35 116/36
f 115/35 117/36 118/37
f 115/35 118/37 114/38
f 117/35 119/36 120/33
f 117/35 120/33 118/34
f 119/35 116/36 113/39
f 119/35 113/39 120/40
f 119/41 117/42 115/43
f 119/41 115/43 116/44
f 120/45 118/46 114/47
f 120/45 114/47 113/48
f 121/35 122/36 123/37
f 121/35 123/37 124/40
f 125/35 126/36 127/37
f 125/35 127/37 128/40
f 126/35 121/36 124/37
f 126/35 124/37 127/40
f 122/35 125/36 128/37
f 122/35 128/37 123/40
f 127/47 124/48 123/45
f 127/47 123/45 128/46
f 125/41 122/42 121/43
f 125/41 121/43 126/44
f 129/49 130/50 131/35
f 129/49 131/35 132/36
f 131/35 133/36 134/51
f 131/35 134/51 130/52
f 133/35 135/36 136/49
f 133/35 136/49 134/50
f 135/35 132/36 129/53
f 135/35 129/53 136/54
f 135/41 133/42 131/43
f 135/41 131/43 132/44
f 136/45 134/46 130/47
f 136/45 130/47 129/48
f 137/55 138/56 139/35
f 137/55 139/35 140/36
f 138/57 141/58 142/35
f 138/57 142/35 139/36
f 142/35 143/36 144/55
f 142/35 144/55 141/56
f 143/35 140/36 137/57
f 143/35 137/57 144/58
f 143/41 142/42 139/43
f 143/41 139/43 140/44
f 144/45 141/46 138/47
f 144/45 138/47 137/48
f 145/37 146/40 147/59
f 145/37 147/59 148/60
f 147/35 149/36 150/57
f 147/35 150/57 146/58
f 149/59 151/60 152/37
f 149/59 152/37 150/40
f 152/57 145/58 148/35
f 152/57 148/35 151/36
f 151/41 149/42 147/43
f 151/41 147/43 148/44
f 152/45 150/46 146/47
f 152/45 146/47 145/48
f 153/1 154/2 155/3
f 153/1 155/3 156/4
f 157/1 158/2 159/3
f 157/1 159/3 160/4
f 158/1 153/2 156/3
f 158/1 156/3 159/4
f 154/1 157/2 160/3
f 154/1 160/3 155/4
f 159/5 156/6 155/7
f 159/5 155/7 160/8
f 157/9 154/10 153/11
f 157/9 153/11 158/12
f 161/35 162/36 163/37
f 161/35 163/37 164/40
f 165/35 166/36 167/37
f 165/35 167/37 168/40
f 166/35 161/36 164/37
f 166/35 164/37 167/40
f 162/35 165/36 168/37
f 162/35 168/37 163/40
f 167/47 164/48 163/45
f 167/47 163/45 168/46
f 165/41 162/42 161/43
f 165/41 161/43 166/44
f 169/35 170/36 171/37
f 169/35 171/37 172/40
f 173/35 174/36 175/37
f 173/35 175/37 176/40
f 174/35 169/36 172/37
f 174/35 172/37 175/40
f 170/35 173/36 176/37
f 170/35 176/37 171/40
f 175/47 172/48 171/45
f 175/47 171/45 176/46
f 173/41 170/42 169/43
f 173/41 169/43 174/44
f 177/35 162/36 178/37
f 177/35 178/37 179/40
f 173/35 180/36 181/37
f 173/35 181/37 182/40
f 180/35 177/36 179/37
f 180/35 179/37 181/40
f 162/35 173/36 182/37
f 162/35 182/37 178/40
f 181/47 179/48 178/45
f 181/47 178/45 182/46
f 173/41 162/42 177/43
f 173/41 177/43 180/44
f 183/61 184/62 185/63
f 183/61 185/63 186/64
f 184/65 187/66 188/63
f 184/65 188/63 185/64
f 188/63 189/64 190/61
f 188/63 190/61 187/62
f 190/65 183/66 186/63
f 190/65 186/63 189/64
f 189/67 188/68 185/69
f 189/67 185/69 186/70
f 190/71 187/72 184/73
f 190/71 184/73 183/74
f 191/75 192/76 193/77
f 191/75 193/77 194/78
f 192/79 195/80 196/81
f 192/79 196/81 193/82
f 195/83 197/84 198/85
f 195/83 198/85 196/86
f 197/87 191/88 194/89
f 197/87 194/89 198/90
f 194/91 193/92 199/93
f 194/91 199/93 200/94
f 193/89 196/95 201/96
f 193/89 201/96 199/97
f 196/98 198/99 202/100
f 196/98 202/100 201/101
f 198/102 194/82 200/103
f 198/102 200/103 202/104
f 200/105 199/106 203/107
f 200/105 203/107 204/108
f 199/109 201/110 205/111
f 199/109 205/111 203/112
f 201/113 202/114 206/115
f 201/113 206/115 205/116
f 202/117 200/118 204/119
f 202/117 204/119 206/120
f 204/121 203/122 207/123
f 204/121 207/123 208/124
f 203/125 205/126 209/127
f 203/125 209/127 207/128
f 205/129 206/130 210/131
f 205/129 210/131 209/132
f 206/133 204/134 208/135
f 206/133 208/135 210/136
f 197/137 195/138 192/139
f 197/137 192/139 191/140
f 208/141 207/142 209/137
f 208/141 209/137 210/138
f 211/16 212/13 213/14
f 211/16 213/14 214/15
f 212/16 215/13 216/14
f 212/16 216/14 213/15
f 215/16 217/13 218/14
f 215/16 218/14 216/15
f 217/16 219/13 220/14
f 217/16 220/14 218/15
f 219/16 221/13 222/14
f 219/16 222/14 220/15
f 221/14 223/15 224/16
f 221/14 224/16 222/13
f 223/14 225/15 226/16
f 223/14 226/16 224/13
f 225/14 227/15 228/16
f 225/14 228/16 226/13
f 227/14 229/15 230/16
f 227/14 230/16 228/13
f 229/14 231/15 232/16
f 229/14 232/16 230/13
f 231/14 233/15 234/16
f 231/14 234/16 232/13
f 233/16 211/13 214/14
f 233/16 214/14 234/15
f 233/143 231/144 229/145
f 233/143 229/145 227/146
f 233/143 227/146 225/147
f 233/143 225/147 223/148
f 233/143 223/148 221/149
f 233/143 221/149 219/150
f 233/143 219/150 217/151
f 233/143 217/151 215/152
f 233/143 215/152 212/153
f 233/143 212/153 211/154
f 214/154 213/143 216/144
f 214/154 216/144 218/145
f 214/154 218/145 220/146
f 214/154 220/146 222/147
f 214/154 222/147 224/148
f 214/154 224/148 226/149
f 214/154 226/149 228/150
f 214/154 228/150 230/151
f 214/154 230/151 232/152
f 214/154 232/152 234/153
f 235/155 236/156 237/157
f 235/155 237/157 238/158
f 236/155 239/156 240/157
f 236/155 240/157 237/158
f 239/155 241/156 242/157
f 239/155 242/157 240/158
f 241/155 243/156 244/157
f 241/155 244/157 242/158
f 243/155 245/156 246/157
f 243/155 246/157 244/158
f 245/155 247/156 248/157
f 245/155 248/157 246/158
f 247/155 249/156 250/157
f 247/155 250/157 248/158
f 249/157 251/158 252/155
f 249/157 252/155 250/156
f 251/157 253/158 254/155
f 251/157 254/155 252/156
f 253/157 255/158 256/155
f 253/157 256/155 254/156
f 255/157 257/158 258/155
f 255/157 258/155 256/156
f 257/157 259/158 260/155
f 257/157 260/155 258/156
f 259/157 261/158 262/155
f 259/157 262/155 260/156
f 261/157 263/158 264/155
f 261/157 264/155 262/156
f 263/157 265/158 266/155
f 263/157 266/155 264/156
f 265/155 235/156 238/157
f 265/155 238/157 266/158
f 265/159 263/160 261/161
f 265/159 261/161 259/162
f 265/159 259/162 257/163
f 265/159 257/163 255/164
f 265/159 255/164 253/165
f 265/159 253/165 251/166
f 265/159 251/166 249/167
f 265/159 249/167 247/168
f 265/159 247/168 245/169
f 265/159 245/169 243/170
f 265/159 243/170 241/171
f 265/159 241/171 239/172
f 265/159 239/172 236/173
f 265/159 236/173 235/174
f 238/174 237/159 240/160
f 238/174 240/160 242/161
f 238/174 242/161 244/162
f 238/174 244/162 246/163
f 238/174 246/163 248/164
f 238/174 248/164 250/165
f 238/174 250/165 252/166
f 238/174 252/166 254/167
f 238/174 254/167 256/168
f 238/174 256/168 258/169
f 238/174 258/169 260/170
f 238/174 260/170 262/171
f 238/174 262/171 264/172
f 238/174 264/172 266/173
f 267/16 268/13 269/14
f 267/16 269/14 270/15
f 268/16 271/13 272/14
f 268/16 272/14 269/15
f 271/16 273/13 274/14
f 271/16 274/14 272/15
f 273/16 275/13 276/14
f 273/16 276/14 274/15
f 275/16 277/13 278/14
f 275/16 278/14 276/15
f 277/14 279/15 280/16
f 277/14 280/16 278/13
f 279/14 281/15 282/16
f 279/14 282/16 280/13
f 281/14 283/15 284/16
f 281/14 284/16 282/13
f 283/14 285/15 286/16
f 283/14 286/16 284/13
f 285/14 287/15 288/16
f 285/14 288/16 286/13
f 287/14 289/15 290/16
f 287/14 290/16 288/13
f 289/16 267/13 270/14
f 289/16 270/14 290/15
f 289/175 287/176 285/162
f 289/175 285/162 283/177
f 289/175 283/177 281/178
f 289/175 281/178 279/166
f 289/175 279/166 277/179
f 289/175 277/179 275/180
f 289/175 275/180 273/170
f 289/175 273/170 271/181
f 289/175 271/181 268/182
f 289/175 268/182 267/174
f 270/174 269/175 272/176
f 270/174 272/176 274/162
f 270/174 274/162 276/177
f 270/174 276/177 278/178
f 270/174 278/178 280/166
f 270/174 280/166 282/179
f 270/174 282/179 284/180
f 270/174 284/180 286/170
f 270/174 286/170 288/181
f 270/174 288/181 290/182
f 291/183 292/184 293/185
f 291/183 293/185 294/186
f 292/79 295/187 296/81
f 292/79 296/81 293/82
f 295/188 297/189 298/190
f 295/188 298/190 296/191
f 297/192 291/88 294/89
f 297/192 294/89 298/90
f 294/193 293/194 299/195
f 294/193 299/195 300/196
f 293/89 296/197 301/198
f 293/89 301/198 299/199
f 296/200 298/201 302/202
f 296/200 302/202 301/203
f 298/204 294/82 300/205
f 298/204 300/205 302/206
f 300/207 299/208 303/209
f 300/207 303/209 304/210
f 299/211 301/212 305/213
f 299/211 305/213 303/214
f 301/215 302/216 306/217
f 301/215 306/217 305/218
f 302/219 300/220 304/221
f 302/219 304/221 306/222
f 304/223 303/224 307/225
f 304/223 307/225 308/226
f 303/227 305/228 309/229
f 303/227 309/229 307/230
f 305/231 306/138 310/232
f 305/231 310/232 309/233
f 306/234 304/235 308/236
f 306/234 308/236 310/237
f 297/238 295/239 292/240
f 297/238 292/240 291/142
f 308/139 307/241 309/129
f 308/139 309/129 310/239
f 311/16 312/13 313/14
f 311/16 313/14 314/15
f 312/16 315/13 316/14
f 312/16 316/14 313/15
f 315/16 317/13 318/14
f 315/16 318/14 316/15
f 317/16 319/13 320/14
f 317/16 320/14 318/15
f 319/16 321/13 322/14
f 319/16 322/14 320/15
f 321/14 323/15 324/16
f 321/14 324/16 322/13
f 323/14 325/15 326/16
f 323/14 326/16 324/13
f 325/14 327/15 328/16
f 325/14 328/16 326/13
f 327/14 329/15 330/16
f 327/14 330/16 328/13
f 329/14 331/15 332/16
f 329/14 332/16 330/13
f 331/14 333/15 334/16
f 331/14 334/16 332/13
f 333/16 311/13 314/14
f 333/16 314/14 334/15
f 333/143 331/144 329/145
f 333/143 329/145 327/146
f 333/143 327/146 325/147
f 333/143 325/147 323/148
f 333/143 323/148 321/149
f 333/143 321/149 319/150
f 333/143 319/150 317/151
f 333/143 317/151 315/152
f 333/143 315/152 312/153
f 333/143 312/153 311/154
f 314/154 313/143 316/144
f 314/154 316/144 318/145
f 314/154 318/145 320/146
f 314/154 320/146 322/147
f 314/154 322/147 324/148
f 314/154 324/148 326/149
f 314/154 326/149 328/150
f 314/154 328/150 330/151
f 314/154 330/151 332/152
f 314/154 332/152 334/153
f 335/155 336/156 337/157
f 335/155 337/157 338/158
f 336/155 339/156 340/157
f 336/155 340/157 337/158
f 339/155 341/156 342/157
f 339/155 342/157 340/158
f 341/155 343/156 344/157
f 341/155 344/157 342/158
f 343/155 345/156 346/157
f 343/155 346/157 344/158
f 345/155 347/156 348/157
f 345/155 348/157 346/158
f 347/155 349/156 350/157
f 347/155 350/157 348/158
f 349/157 351/158 352/155
f 349/157 352/155 350/156
f 351/157 353/158 354/155
f 351/157 354/155 352/156
f 353/157 355/158 356/155
f 353/157 356/155 354/156
f 355/157 357/158 358/155
f 355/157 358/155 356/156
f 357/157 359/158 360/155
f 357/157 360/155 358/156
f 359/157 361/158 362/155
f 359/157 362/155 360/156
f 361/157 363/158 364/155
f 361/157 364/155 362/156
f 363/157 365/158 366/155
f 363/157 366/155 364/156
f 365/155 335/156 338/157
f 365/155 338/157 366/158
f 365/159 363/160 361/161
f 365/159 361/161 359/162
f 365/159 359/162 357/163
f 365/159 357/163 355/164
f 365/159 355/164 353/165
f 365/159 353/165 351/166
f 365/159 351/166 349/167
f 365/159 349/167 347/168
f 365/159 347/168 345/169
f 365/159 345/169 343/170
f 365/159 343/170 341/171
f 365/159 341/171 339/172
f 365/159 339/172 336/173
f 365/159 336/173 335/174
f 338/174 337/159 340/160
f 338/174 340/160 342/161
f 338/174 342/161 344/162
f 338/174 344/162 346/163
f 338/174 346/163 348/164
f 338/174 348/164 350/165
f 338/174 350/165 352/166
f 338/174 352/166 354/167
f 338/174 354/167 356/168
f 338/174 356/168 358/169
f 338/174 358/169 360/170
f 338/174 360/170 362/171
f 338/174 362/171 364/172
f 338/174 364/172 366/173
f 367/16 368/13 369/14
f 367/16 369/14 370/15
f 368/16 371/13 372/14
f 368/16 372/14 369/15
f 371/16 373/13 374/14
f 371/16 374/14 372/15
f 373/16 375/13 376/14
f 373/16 376/14 374/15
f 375/16 377/13 378/14
f 375/16 378/14 376/15
f 377/14 379/15 380/16
f 377/14 380/16 378/13
f 379/14 381/15 382/16
f 379/14 382/16 380/13
f 381/14 383/15 384/16
f 381/14 384/16 382/13
f 383/14 385/15 386/16
f 383/14 386/16 384/13
f 385/14 387/15 388/16
f 385/14 388/16 386/13
f 387/14 389/15 390/16
f 387/14 390/16 388/13
f 389/16 367/13 370/14
f 389/16 370/14 390/15
f 389/175 387/176 385/162
f 389/175 385/162 383/177
f 389/175 383/177 381/178
f 389/175 381/178 379/166
f 389/175 379/166 377/179
f 389/175 377/179 375/180
f 389/175 375/180 373/170
f 389/175 373/170 371/181
f 389/175 371/181 368/182
f 389/175 368/182 367/174
f 370/174 369/175 372/176
f 370/174 372/176 374/162
f 370/174 374/162 376/177
f 370/174 376/177 378/178
f 370/174 378/178 380/166
f 370/174 380/166 382/179
f 370/174 382/179 384/180
f 370/174 384/180 386/170
f 370/174 386/170 388/181
f 370/174 388/181 390/182
f 391/242 392/243 393/244
f 391/242 393/244 394/245
f 392/246 395/247 396/248
f 392/246 396/248 393/249
f 395/250 397/251 398/252
f 395/250 398/252 396/253
f 397/248 391/249 394/246
f 397/248 394/246 398/247
f 397/251 395/252 392/253
f 397/251 392/253 391/250
f 394/253 393/250 396/251
f 394/253 396/251 398/252
f 399/244 400/245 394/242
f 399/244 394/242 393/243
f 400/246 401/247 398/248
f 400/246 398/248 394/249
f 401/252 402/253 396/250
f 401/252 396/250 398/251
f 402/248 399/249 393/246
f 402/248 393/246 396/247
f 402/251 401/252 400/253
f 402/251 400/253 399/250
f 393/253 394/250 398/251
f 393/253 398/251 396/252
f 403/254 404/255 405/256
f 403/254 405/256 406/257
f 404/258 407/259 408/260
f 404/258 408/260 405/261
f 407/262 409/263 410/264
f 407/262 410/264 408/265
f 409/266 403/267 406/268
f 409/266 406/268 410/269
f 409/270 407/271 404/272
f 409/270 404/272 403/273
f 406/272 405/273 408/274
f 406/272 408/274 410/271
f 411/275 412/276 413/277
f 411/275 413/277 414/278
f 412/258 415/259 416/260
f 412/258 416/260 413/261
f 415/279 417/280 418/281
f 415/279 418/281 416/282
f 417/266 411/267 414/268
f 417/266 414/268 418/269
f 417/270 415/283 412/284
f 417/270 412/284 411/273
f 414/272 413/273 416/274
f 414/272 416/274 418/271
f 419/35 420/36 421/285
f 419/35 421/285 422/286
f 420/35 423/36 424/287
f 420/35 424/287 421/288
f 424/285 425/286 426/35
f 424/285 426/35 423/36
f 426/35 419/36 422/289
f 426/35 422/289 425/290
f 426/41 423/42 420/43
f 426/41 420/43 419/44
f 425/45 424/46 421/47
f 425/45 421/47 422/48
f 427/1 428/2 429/291
f 427/1 429/291 430/292
f 428/1 431/2 432/293
f 428/1 432/293 429/294
f 432/291 433/292 434/1
f 432/291 434/1 431/2
f 434/1 427/2 430/293
f 434/1 430/293 433/294
f 434/9 431/10 428/11
f 434/9 428/11 427/12
f 433/7 432/8 429/5
f 433/7 429/5 430/6
f 435/25 436/26 437/27
f 435/25 437/27 438/28
f 439/1 440/2 441/3
f 439/1 441/3 442/4
f 440/1 435/2 438/3
f 440/1 438/3 441/4
f 436/1 439/2 442/3
f 436/1 442/3 437/4
f 441/5 438/6 437/7
f 441/5 437/7 442/8
f 439/9 436/10 435/11
f 439/9 435/11 440/12
f 443/1 444/2 445/3
f 443/1 445/3 446/4
f 447/25 448/26 449/27
f 447/25 449/27 450/28
f 448/1 443/2 446/3
f 448/1 446/3 449/4
f 444/1 447/2 450/3
f 444/1 450/3 445/4
f 449/5 446/6 445/7
f 449/5 445/7 450/8
f 447/9 444/10 443/11
f 447/9 443/11 448/12
f 451/13 452/14 453/15
f 451/13 453/15 454/16
f 455/13 456/14 457/15
f 455/13 457/15 458/16
f 456/13 451/14 454/15
f 456/13 454/15 457/16
f 452/13 455/14 458/15
f 452/13 458/15 453/16
f 457/29 454/30 453/31
f 457/29 453/31 458/32
f 455/21 452/22 451/23
f 455/21 451/23 456/24
f 459/13 460/14 461/15
f 459/13 461/15 462/16
f 463/13 464/14 465/15
f 463/13 465/15 466/16
f 464/13 459/14 462/15
f 464/13 462/15 465/16
f 460/13 463/14 466/15
f 460/13 466/15 461/16
f 465/17 462/18 461/19
f 465/17 461/19 466/20
f 463/21 460/22 459/23
f 463/21 459/23 464/24
f 467/295 468/296 469/297
f 467/295 469/297 470/298
f 471/35 472/36 473/37
f 471/35 473/37 474/40
f 472/35 467/36 470/37
f 472/35 470/37 473/40
f 468/35 471/36 474/37
f 468/35 474/37 469/40
f 473/47 470/48 469/45
f 473/47 469/45 474/46
f 471/41 468/42 467/43
f 471/41 467/43 472/44
f 475/35 476/36 477/37
f 475/35 477/37 478/40
f 479/35 480/36 481/37
f 479/35 481/37 482/40
f 480/35 475/36 478/37
f 480/35 478/37 481/40
f 476/35 479/36 482/37
f 476/35 482/37 477/40
f 481/47 478/48 477/45
f 481/47 477/45 482/46
f 479/41 476/42 475/43
f 479/41 475/43 480/44
f 483/35 484/36 485/37
f 483/35 485/37 486/40
f 487/35 488/36 489/37
f 487/35 489/37 490/40
f 488/35 483/36 486/37
f 488/35 486/37 489/40
f 484/35 487/36 490/37
f 484/35 490/37 485/40
f 489/47 486/48 485/45
f 489/47 485/45 490/46
f 487/41 484/42 483/43
f 487/41 483/43 488/44
f 491/35 492/36 493/37
f 491/35 493/37 494/40
f 495/35 496/36 497/37
f 495/35 497/37 498/40
f 496/35 491/36 494/37
f 496/35 494/37 497/40
f 492/35 495/36 498/37
f 492/35 498/37 493/40
f 497/47 494/48 493/45
f 497/47 493/45 498/46
f 495/41 492/42 491/43
f 495/41 491/43 496/44
f 499/35 500/36 501/37
f 499/35 501/37 502/40
f 503/35 504/36 505/37
f 503/35 505/37 506/40
f 504/35 499/36 502/37
f 504/35 502/37 505/40
f 500/35 503/36 506/37
f 500/35 506/37 501/40
f 505/47 502/48 501/45
f 505/47 501/45 506/46
f 503/41 500/42 499/43
f 503/41 499/43 504/44
f 507/13 508/14 509/15
f 507/13 509/15 510/16
f 508/299 511/14 512/300
f 508/299 512/300 509/16
f 512/15 513/16 514/13
f 512/15 514/13 511/14
f 514/13 507/301 510/15
f 514/13 510/15 513/302
f 514/21 511/22 508/23
f 514/21 508/23 507/24
f 513/31 512/32 509/29
f 513/31 509/29 510/30
f 515/303 516/304 517/305
f 515/303 517/305 518/306
f 516/303 519/304 520/305
f 516/303 520/305 517/306
f 519/303 521/304 522/305
f 519/303 522/305 520/306
f 521/305 523/306 524/303
f 521/305 524/303 522/304
f 523/305 525/306 526/303
f 523/305 526/303 524/304
f 525/305 527/306 528/303
f 525/305 528/303 526/304
f 527/305 529/306 530/303
f 527/305 530/303 528/304
f 529/303 515/304 518/305
f 529/303 518/305 530/306
f 529/307 527/308 525/309
f 529/307 525/309 523/310
f 529/307 523/310 521/311
f 529/307 521/311 519/312
f 529/307 519/312 516/313
f 529/307 516/313 515/314
f 518/314 517/307 520/308
f 518/314 520/308 522/309
f 518/314 522/309 524/310
f 518/314 524/310 526/311
f 518/314 526/311 528/312
f 518/314 528/312 530/313
f 531/303 532/304 533/305
f 531/303 533/305 534/306
f 532/303 535/304 536/305
f 532/303 536/305 533/306
f 535/303 537/304 538/305
f 535/303 538/305 536/306
f 537/305 539/306 540/303
f 537/305 540/303 538/304
f 539/305 541/306 542/303
f 539/305 542/303 540/304
f 541/305 543/306 544/303
f 541/305 544/303 542/304
f 543/305 545/306 546/303
f 543/305 546/303 544/304
f 545/303 531/304 534/305
f 545/303 534/305 546/306
f 545/307 543/308 541/309
f 545/307 541/309 539/310
f 545/307 539/310 537/311
f 545/307 537/311 535/312
f 545/307 535/312 532/313
f 545/307 532/313 531/314
f 534/314 533/307 536/308
f 534/314 536/308 538/309
f 534/314 538/309 540/310
f 534/314 540/310 542/311
f 534/314 542/311 544/312
f 534/314 544/312 546/313
f 547/303 548/304 549/305
f 547/303 549/305 550/306
f 548/303 551/304 552/305
f 548/303 552/305 549/306
f 551/303 553/304 554/305
f 551/303 554/305 552/306
f 553/305 555/306 556/303
f 553/305 556/303 554/304
f 555/305 557/306 558/303
f 555/305 558/303 556/304
f 557/305 559/306 560/303
f 557/305 560/303 558/304
f 559/305 561/306 562/303
f 559/305 562/303 560/304
f 561/303 547/304 550/305
f 561/303 550/305 562/306
f 561/307 559/308 557/309
f 561/307 557/309 555/310
f 561/307 555/310 553/311
f 561/307 553/311 551/312
f 561/307 551/312 548/313
f 561/307 548/313 547/314
f 550/314 549/307 552/308
f 550/314 552/308 554/309
f 550/314 554/309 556/310
f 550/314 556/310 558/311
f 550/314 558/311 560/312
f 550/314 560/312 562/313
f 563/303 564/304 565/305
f 563/303 565/305 566/306
f 564/303 567/304 568/305
f 564/303 568/305 565/306
f 567/303 569/304 570/305
f 567/303 570/305 568/306
f 569/305 571/306 572/303
f 569/305 572/303 570/304
f 571/305 573/306 574/303
f 571/305 574/303 572/304
f 573/305 575/306 576/303
f 573/305 576/303 574/304
f 575/305 577/306 578/303
f 575/305 578/303 576/304
f 577/303 563/304 566/305
f 577/303 566/305 578/306
f 577/307 575/308 573/309
f 577/307 573/309 571/310
f 577/307 571/310 569/311
f 577/307 569/311 567/312
f 577/307 567/312 564/313
f 577/307 564/313 563/314
f 566/314 565/307 568/308
f 566/314 568/308 570/309
f 566/314 570/309 572/310
f 566/314 572/310 574/311
f 566/314 574/311 576/312
f 566/314 576/312 578/313
f 579/315 580/316 581/317
f 579/315 581/317 582/318
f 580/319 583/64 584/320
f 580/319 584/320 581/318
f 584/317 585/318 586/315
f 584/317 586/315 583/316
f 586/63 579/321 582/317
f 586/63 582/317 585/322
f 586/323 583/324 580/325
f 586/323 580/325 579/326
f 582/327 581/328 584/329
f 582/327 584/329 585/330
f 587/331 588/332 589/333
f 587/331 589/333 590/334
f 591/63 592/64 593/317
f 591/63 593/317 594/318
f 592/63 587/64 590/317
f 592/63 590/317 593/318
f 588/63 591/64 594/317
f 588/63 594/317 589/318
f 593/327 590/328 589/329
f 593/327 589/329 594/330
f 591/67 588/68 587/69
f 591/67 587/69 592/70
f 595/63 596/64 597/317
f 595/63 597/317 598/318
f 599/331 600/332 601/333
f 599/331 601/333 602/334
f 600/63 595/64 598/317
f 600/63 598/317 601/318
f 596/63 599/64 602/317
f 596/63 602/317 597/318
f 601/327 598/328 597/329
f 601/327 597/329 602/330
f 599/67 596/68 595/69
f 599/67 595/69 600/70
f 603/1 604/2 605/3
f 603/1 605/3 606/4
f 607/1 608/2 609/3
f 607/1 609/3 610/4
f 608/1 603/2 606/3
f 608/1 606/3 609/4
f 604/1 607/2 610/3
f 604/1 610/3 605/4
f 609/5 606/6 605/7
f 609/5 605/7 610/8
f 607/9 604/10 603/11
f 607/9 603/11 608/12
f 611/1 612/2 613/3
f 611/1 613/3 614/4
f 612/335 615/2 616/336
f 612/335 616/336 613/337
f 616/338 617/339 618/1
f 616/338 618/1 615/2
f 618/1 611/340 614/341
f 618/1 614/341 617/342
f 618/9 615/10 612/11
f 618/9 612/11 611/12
f 617/343 616/344 613/5
f 617/343 613/5 614/6
f 619/63 620/64 621/345
f 619/63 621/345 622/346
f 621/347 623/348 624/63
f 621/347 624/63 620/64
f 623/345 625/346 626/63
f 623/345 626/63 624/64
f 625/349 622/350 619/63
f 625/349 619/63 626/64
f 626/67 624/68 620/69
f 626/67 620/69 619/70
f 625/329 623/330 621/327
f 625/329 621/327 622/328
f 627/351 628/352 629/353
f 627/351 629/353 630/354
f 628/351 631/355 632/356
f 628/351 632/356 629/357
f 632/353 633/354 634/351
f 632/353 634/351 631/352
f 634/358 627/352 630/359
f 634/358 630/359 633/360
f 634/323 631/324 628/325
f 634/323 628/325 627/326
f 633/361 632/362 629/363
f 633/361 629/363 630/364
f 635/73 636/74 637/71
f 635/73 637/71 638/72
f 639/35 640/36 641/37
f 639/35 641/37 642/40
f 640/35 635/36 638/37
f 640/35 638/37 641/40
f 636/35 639/36 642/37
f 636/35 642/37 637/40
f 641/47 638/48 637/45
f 641/47 637/45 642/46
f 639/41 636/42 635/43
f 639/41 635/43 640/44
f 643/35 644/36 645/37
f 643/35 645/37 646/40
f 647/73 648/74 649/71
f 647/73 649/71 650/72
f 648/35 643/36 646/37
f 648/35 646/37 649/40
f 644/35 647/36 650/37
f 644/35 650/37 645/40
f 649/47 646/48 645/45
f 649/47 645/45 650/46
f 647/41 644/42 643/43
f 647/41 643/43 648/44
f 651/365 652/366 653/367
f 651/365 653/367 654/368
f 652/365 655/366 656/367
f 652/365 656/367 653/368
f 655/365 657/366 658/367
f 655/365 658/367 656/368
f 657/365 659/366 660/367
f 657/365 660/367 658/368
f 659/365 661/366 662/367
f 659/365 662/367 660/368
f 661/367 663/368 664/365
f 661/367 664/365 662/366
f 663/367 665/368 666/365
f 663/367 666/365 664/366
f 665/367 667/368 668/365
f 665/367 668/365 666/366
f 667/367 669/368 670/365
f 667/367 670/365 668/366
f 669/367 671/368 672/365
f 669/367 672/365 670/366
f 671/367 673/368 674/365
f 671/367 674/365 672/366
f 673/365 651/366 654/367
f 673/365 654/367 674/368
f 673/175 671/176 669/162
f 673/175 669/162 667/177
f 673/175 667/177 665/178
f 673/175 665/178 663/166
f 673/175 663/166 661/179
f 673/175 661/179 659/180
f 673/175 659/180 657/170
f 673/175 657/170 655/181
f 673/175 655/181 652/182
f 673/175 652/182 651/174
f 654/174 653/175 656/176
f 654/174 656/176 658/162
f 654/174 658/162 660/177
f 654/174 660/177 662/178
f 654/174 662/178 664/166
f 654/174 664/166 666/179
f 654/174 666/179 668/180
f 654/174 668/180 670/170
f 654/174 670/170 672/181
f 654/174 672/181 674/182
f 675/35 676/36 677/37
f 675/35 677/37 678/40
f 679/35 680/36 681/37
f 679/35 681/37 682/40
f 680/35 675/36 678/37
f 680/35 678/37 681/40
f 676/35 679/36 682/37
f 676/35 682/37 677/40
f 681/47 678/48 677/45
f 681/47 677/45 682/46
f 679/41 676/42 675/43
f 679/41 675/43 680/44
f 683/369 684/370 685/371
f 683/369 685/371 686/372
f 684/369 687/370 688/371
f 684/369 688/371 685/372
f 687/369 689/370 690/371
f 687/369 690/371 688/372
f 689/370 691/371 692/372
f 689/370 692/372 690/369
f 691/370 693/371 694/372
f 691/370 694/372 692/369
f 693/371 695/372 696/369
f 693/371 696/369 694/370
f 695/371 697/372 698/369
f 695/371 698/369 696/370
f 697/371 699/372 700/369
f 697/371 700/369 698/370
f 699/371 701/372 702/369
f 699/371 702/369 700/370
f 701/371 703/372 704/369
f 701/371 704/369 702/370
f 703/371 705/372 706/369
f 703/371 706/369 704/370
f 705/370 707/371 708/372
f 705/370 708/372 706/369
f 707/370 709/371 710/372
f 707/370 710/372 708/369
f 709/369 711/370 712/371
f 709/369 712/371 710/372
f 711/369 713/370 714/371
f 711/369 714/371 712/372
f 713/369 683/370 686/371
f 713/369 686/371 714/372
f 715/373 716/374 717/375
f 715/373 717/375 718/372
f 716/376 719/377 720/378
f 716/376 720/378 717/379
f 719/380 721/381 722/382
f 719/380 722/382 720/383
f 721/384 723/385 724/372
f 721/384 724/372 722/369
f 723/384 725/385 726/372
f 723/384 726/372 724/369
f 725/386 727/387 728/388
f 725/386 728/388 726/389
f 727/390 729/391 730/392
f 727/390 730/392 728/393
f 729/394 731/395 732/369
f 729/394 732/369 730/396
f 731/397 733/398 734/399
f 731/397 734/399 732/400
f 733/401 735/402 736/403
f 733/401 736/403 734/404
f 735/405 737/406 738/407
f 735/405 738/407 736/408
f 737/409 739/385 740/372
f 737/409 740/372 738/369
f 739/384 741/385 742/372
f 739/384 742/372 740/369
f 741/410 743/411 744/412
f 741/410 744/412 742/413
f 743/414 745/415 746/416
f 743/414 746/416 744/417
f 745/418 715/419 718/371
f 745/418 718/371 746/420
f 718/369 717/421 747/422
f 718/369 747/422 748/423
f 717/424 720/425 749/426
f 717/424 749/426 747/427
f 720/428 722/429 750/430
f 720/428 750/430 749/431
f 722/370 724/371 751/432
f 722/370 751/432 750/433
f 724/400 726/371 752/432
f 724/400 752/432 751/434
f 726/435 728/436 753/437
f 726/435 753/437 752/438
f 728/439 730/440 754/441
f 728/439 754/441 753/442
f 730/443 732/372 755/444
f 730/443 755/444 754/445
f 732/371 734/446 756/447
f 732/371 756/447 755/448
f 734/449 736/450 757/451
f 734/449 757/451 756/452
f 736/453 738/454 758/455
f 736/453 758/455 757/456
f 738/370 740/371 759/432
f 738/370 759/432 758/434
f 740/370 742/371 760/432
f 740/370 760/432 759/434
f 742/457 744/458 761/459
f 742/457 761/459 760/460
f 744/461 746/462 762/463
f 744/461 762/463 761/464
f 746/465 718/370 748/466
f 746/465 748/466 762/467
f 763/369 764/370 765/371
f 763/369 765/371 766/372
f 764/369 767/370 768/371
f 764/369 768/371 765/372
f 767/369 769/370 770/371
f 767/369 770/371 768/372
f 769/370 771/371 772/372
f 769/370 772/372 770/369
f 771/370 773/371 774/372
f 771/370 774/372 772/369
f 773/371 775/372 776/369
f 773/371 776/369 774/370
f 775/371 777/372 778/369
f 775/371 778/369 776/370
f 777/371 779/372 780/369
f 777/371 780/369 778/370
f 779/371 781/372 782/369
f 779/371 782/369 780/370
f 781/371 783/372 784/369
f 781/371 784/369 782/370
f 783/371 785/372 786/369
f 783/371 786/369 784/370
f 785/370 787/371 788/372
f 785/370 788/372 786/369
f 787/370 789/371 790/372
f 787/370 790/372 788/369
f 789/369 791/370 792/371
f 789/369 792/371 790/372
f 791/369 793/370 794/371
f 791/369 794/371 792/372
f 793/369 763/370 766/371
f 793/369 766/371 794/372
f 766/468 765/469 768/470
f 766/468 768/470 770/471
f 766/468 770/471 772/472
f 766/468 772/472 774/473
f 766/468 774/473 776/474
f 766/468 776/474 778/475
f 766/468 778/475 780/476
f 766/468 780/476 782/477
f 766/468 782/477 784/478
f 766/468 784/478 786/479
f 766/468 786/479 788/480
f 766/468 788/480 790/481
f 766/468 790/481 792/482
f 766/468 792/482 794/483
f 795/484 796/485 797/486
f 795/484 797/486 798/487
f 796/488 799/489 800/490
f 796/488 800/490 797/491
f 799/492 801/493 802/494
f 799/492 802/494 800/495
f 801/370 803/371 804/496
f 801/370 804/496 802/497
f 803/370 805/371 806/496
f 803/370 806/496 804/497
f 805/498 807/499 808/500
f 805/498 808/500 806/501
f 807/502 809/503 810/504
f 807/502 810/504 808/505
f 809/506 811/507 812/508
f 809/506 812/508 810/509
f 811/371 813/510 814/511
f 811/371 814/511 812/512
f 813/513 815/514 816/515
f 813/513 816/515 814/516
f 815/517 817/518 818/519
f 815/517 818/519 816/520
f 817/370 819/371 820/496
f 817/370 820/496 818/497
f 819/370 821/371 822/496
f 819/370 822/496 820/497
f 821/521 823/522 824/523
f 821/521 824/523 822/524
f 823/525 825/526 826/527
f 823/525 826/527 824/528
f 825/529 795/400 798/530
f 825/529 798/530 826/531
f 825/532 823/533 821/534
f 825/532 821/534 819/535
f 825/532 819/535 817/536
f 825/532 817/536 815/537
f 825/532 815/537 813/538
f 825/532 813/538 811/539
f 825/532 811/539 809/540
f 825/532 809/540 807/541
f 825/532 807/541 805/542
f 825/532 805/542 803/543
f 825/532 803/543 801/544
f 825/532 801/544 799/545
f 825/532 799/545 796/546
f 825/532 796/546 795/547
f 827/352 828/548 829/549
f 827/352 829/549 830/550
f 828/551 831/552 832/553
f 828/551 832/553 829/554
f 831/555 833/556 834/557
f 831/555 834/557 832/558
f 833/356 835/360 836/559
f 833/356 836/559 834/560
f 835/356 837/360 838/559
f 835/356 838/559 836/560
f 837/561 839/562 840/563
f 837/561 840/563 838/564
f 839/565 841/566 842/567
f 839/565 842/567 840/568
f 841/569 843/351 844/570
f 841/569 844/570 842/571
f 843/360 845/572 846/573
f 843/360 846/573 844/574
f 845/575 847/576 848/577
f 845/575 848/577 846/578
f 847/579 849/580 850/581
f 847/579 850/581 848/582
f 849/356 851/360 852/559
f 849/356 852/559 850/560
f 851/356 853/360 854/559
f 851/356 854/559 852/560
f 853/583 855/584 856/585
f 853/583 856/585 854/586
f 855/587 857/588 858/589
f 855/587 858/589 856/590
f 857/591 827/356 830/592
f 857/591 830/592 858/593
f 857/594 855/595 853/596
f 857/594 853/596 851/597
f 857/594 851/597 849/598
f 857/594 849/598 847/599
f 857/594 847/599 845/600
f 857/594 845/600 843/601
f 857/594 843/601 841/602
f 857/594 841/602 839/603
f 857/594 839/603 837/604
f 857/594 837/604 835/605
f 857/594 835/605 833/606
f 857/594 833/606 831/607
f 857/594 831/607 828/608
f 857/594 828/608 827/609
f 859/610 860/611 861/612
f 859/610 861/612 862/613
f 860/610 863/611 864/612
f 860/610 864/612 861/613
f 863/610 865/611 866/612
f 863/610 866/612 864/613
f 865/611 867/612 868/613
f 865/611 868/613 866/610
f 867/611 869/612 870/613
f 867/611 870/613 868/610
f 869/612 871/613 872/610
f 869/612 872/610 870/611
f 871/612 873/613 874/610
f 871/612 874/610 872/611
f 873/612 875/613 876/610
f 873/612 876/610 874/611
f 875/612 877/613 878/610
f 875/612 878/610 876/611
f 877/612 879/613 880/610
f 877/612 880/610 878/611
f 879/612 881/613 882/610
f 879/612 882/610 880/611
f 881/611 883/612 884/613
f 881/611 884/613 882/610
f 883/611 885/612 886/613
f 883/611 886/613 884/610
f 885/610 887/611 888/612
f 885/610 888/612 886/613
f 887/610 889/611 890/612
f 887/610 890/612 888/613
f 889/610 859/611 862/612
f 889/610 862/612 890/613
f 889/614 887/615 885/616
f 889/614 885/616 883/617
f 889/614 883/617 881/618
f 889/614 881/618 879/619
f 889/614 879/619 877/620
f 889/614 877/620 875/621
f 889/614 875/621 873/622
f 889/614 873/622 871/623
f 889/614 871/623 869/624
f 889/614 869/624 867/625
f 889/614 867/625 865/626
f 889/614 865/626 863/627
f 889/614 863/627 860/628
f 889/614 860/628 859/629
f 862/621 861/622 864/623
f 862/621 864/623 866/624
f 862/621 866/624 868/625
f 862/621 868/625 870/626
f 862/621 870/626 872/627
f 862/621 872/627 874/628
f 862/621 874/628 876/629
f 862/621 876/629 878/614
f 862/621 878/614 880/615
f 862/621 880/615 882/616
f 862/621 882/616 884/617
f 862/621 884/617 886/618
f 862/621 886/618 888/619
f 862/621 888/619 890/620
f 891/611 892/612 893/613
f 891/611 893/613 894/610
f 892/611 895/612 896/613
f 892/611 896/613 893/610
f 895/611 897/612 898/613
f 895/611 898/613 896/610
f 897/611 899/612 900/613
f 897/611 900/613 898/610
f 899/611 901/612 902/613
f 899/611 902/613 900/610
f 901/611 903/612 904/613
f 901/611 904/613 902/610
f 903/611 905/612 906/613
f 903/611 906/613 904/610
f 905/611 907/612 908/613
f 905/611 908/613 906/610
f 907/611 909/612 910/613
f 907/611 910/613 908/610
f 909/611 911/612 912/613
f 909/611 912/613 910/610
f 911/611 913/612 914/613
f 911/611 914/613 912/610
f 913/611 891/612 894/613
f 913/611 894/613 914/610
f 894/630 893/631 896/632
f 894/630 896/632 898/633
f 894/630 898/633 900/634
f 894/630 900/634 902/635
f 894/630 902/635 904/636
f 894/630 904/636 906/637
f 894/630 906/637 908/638
f 894/630 908/638 910/639
f 894/630 910/639 912/640
f 894/630 912/640 914/641
f 913/637 911/638 909/639
f 913/637 909/639 907/640
f 913/637 907/640 905/641
f 913/637 905/641 903/630
f 913/637 903/630 901/631
f 913/637 901/631 899/632
f 913/637 899/632 897/633
f 913/637 897/633 895/634
f 913/637 895/634 892/635
f 913/637 892/635 891/636
f 915/612 916/613 917/610
f 915/612 917/610 918/611
f 916/612 919/613 920/610
f 916/612 920/610 917/611
f 919/612 921/613 922/610
f 919/612 922/610 920/611
f 921/612 923/613 924/610
f 921/612 924/610 922/611
f 923/612 925/613 926/610
f 923/612 926/610 924/611
f 925/610 927/611 928/612
f 925/610 928/612 926/613
f 927/610 929/611 930/612
f 927/610 930/612 928/613
f 929/610 931/611 932/612
f 929/610 932/612 930/613
f 931/610 933/611 934/612
f 931/610 934/612 932/613
f 933/610 935/611 936/612
f 933/610 936/612 934/613
f 935/610 937/611 938/612
f 935/610 938/612 936/613
f 937/612 915/613 918/610
f 937/612 918/610 938/611
f 937/640 935/641 933/630
f 937/640 933/630 931/631
f 937/640 931/631 929/632
f 937/640 929/632 927/633
f 937/640 927/633 925/634
f 937/640 925/634 923/635
f 937/640 923/635 921/636
f 937/640 921/636 919/637
f 937/640 919/637 916/638
f 937/640 916/638 915/639
f 918/639 917/640 920/641
f 918/639 920/641 922/630
f 918/639 922/630 924/631
f 918/639 924/631 926/632
f 918/639 926/632 928/633
f 918/639 928/633 930/634
f 918/639 930/634 932/635
f 918/639 932/635 934/636
f 918/639 934/636 936/637
f 918/639 936/637 938/638
f 939/612 940/613 941/610
f 939/612 941/610 942/611
f 940/612 943/613 944/610
f 940/612 944/610 941/611
f 943/612 945/613 946/610
f 943/612 946/610 944/611
f 945/612 947/613 948/610
f 945/612 948/610 946/611
f 947/612 949/613 950/610
f 947/612 950/610 948/611
f 949/610 951/611 952/612
f 949/610 952/612 950/613
f 951/610 953/611 954/612
f 951/610 954/612 952/613
f 953/610 955/611 956/612
f 953/610 956/612 954/613
f 955/610 957/611 958/612
f 955/610 958/612 956/613
f 957/610 959/611 960/612
f 957/610 960/612 958/613
f 959/610 961/611 962/612
f 959/610 962/612 960/613
f 961/612 939/613 942/610
f 961/612 942/610 962/611
f 961/640 959/641 957/630
f 961/640 957/630 955/631
f 961/640 955/631 953/632
f 961/640 953/632 951/633
f 961/640 951/633 949/634
f 961/640 949/634 947/635
f 961/640 947/635 945/636
f 961/640 945/636 943/637
f 961/640 943/637 940/638
f 961/640 940/638 939/639
f 942/639 941/640 944/641
f 942/639 944/641 946/630
f 942/639 946/630 948/631
f 942/639 948/631 950/632
f 942/639 950/632 952/633
f 942/639 952/633 954/634
f 942/639 954/634 956/635
f 942/639 956/635 958/636
f 942/639 958/636 960/637
f 942/639 960/637 962/638
f 963/35 964/36 965/37
f 963/35 965/37 966/40
f 967/35 968/36 969/37
f 967/35 969/37 970/40
f 968/35 963/36 966/37
f 968/35 966/37 969/40
f 964/35 967/36 970/37
f 964/35 970/37 965/40
f 969/47 966/48 965/45
f 969/47 965/45 970/46
f 967/41 964/42 963/43
f 967/41 963/43 968/44
f 971/304 972/305 973/306
f 971/304 973/306 974/303
f 975/304 976/305 977/306
f 975/304 977/306 978/303
f 976/304 971/305 974/306
f 976/304 974/306 977/303
f 972/304 975/305 978/306
f 972/304 978/306 973/303
f 977/642 974/643 973/644
f 977/642 973/644 978/645
f 975/646 972/647 971/648
f 975/646 971/648 976/649
f 979/304 980/305 981/306
f 979/304 981/306 982/303
f 983/304 984/305 985/306
f 983/304 985/306 986/303
f 984/304 979/305 982/306
f 984/304 982/306 985/303
f 980/304 983/305 986/306
f 980/304 986/306 981/303
f 985/642 982/643 981/644
f 985/642 981/644 986/645
f 983/646 980/647 979/648
f 983/646 979/648 984/649
f 987/35 988/36 989/37
f 987/35 989/37 990/40
f 991/35 992/36 993/37
f 991/35 993/37 994/40
f 992/35 987/36 990/37
f 992/35 990/37 993/40
f 988/35 991/36 994/37
f 988/35 994/37 989/40
f 993/47 990/48 989/45
f 993/47 989/45 994/46
f 991/41 988/42 987/43
f 991/41 987/43 992/44
f 995/304 996/305 997/306
f 995/304 997/306 998/303
f 999/304 1000/305 1001/306
f 999/304 1001/306 1002/303
f 1000/304 995/305 998/306
f 1000/304 998/306 1001/303
f 996/304 999/305 1002/306
f 996/304 1002/306 997/303
f 1001/642 998/643 997/644
f 1001/642 997/644 1002/645
f 999/646 996/647 995/648
f 999/646 995/648 1000/649
f 1003/304 1004/305 1005/306
f 1003/304 1005/306 1006/303
f 1007/304 1008/305 1009/306
f 1007/304 1009/306 1010/303
f 1008/304 1003/305 1006/306
f 1008/304 1006/306 1009/303
f 1004/304 1007/305 1010/306
f 1004/304 1010/306 1005/303
f 1009/642 1006/643 1005/644
f 1009/642 1005/644 1010/645
f 1007/646 1004/647 1003/648
f 1007/646 1003/648 1008/649
f 1011/13 1012/14 1013/15
f 1011/13 1013/15 1014/16
f 1015/13 1016/14 1017/15
f 1015/13 1017/15 1018/16
f 1016/13 1011/14 1014/15
f 1016/13 1014/15 1017/16
f 1012/13 1015/14 1018/15
f 1012/13 1018/15 1013/16
f 1017/29 1014/30 1013/31
f 1017/29 1013/31 1018/32
f 1015/21 1012/22 1011/23
f 1015/21 1011/23 1016/24
f 1019/13 1020/14 1021/15
f 1019/13 1021/15 1022/16
f 1023/13 1024/14 1025/15
f 1023/13 1025/15 1026/16
f 1024/13 1019/14 1022/15
f 1024/13 1022/15 1025/16
f 1020/13 1023/14 1026/15
f 1020/13 1026/15 1021/16
f 1025/29 1022/30 1021/31
f 1025/29 1021/31 1026/32
f 1023/21 1020/22 1019/23
f 1023/21 1019/23 1024/24
f 1027/13 1028/14 1029/15
f 1027/13 1029/15 1030/16
f 1031/13 1032/14 1033/15
f 1031/13 1033/15 1034/16
f 1032/13 1027/14 1030/15
f 1032/13 1030/15 1033/16
f 1028/13 1031/14 1034/15
f 1028/13 1034/15 1029/16
f 1033/29 1030/30 1029/31
f 1033/29 1029/31 1034/32
f 1031/21 1028/22 1027/23
f 1031/21 1027/23 1032/24
f 1035/13 1036/14 1037/15
f 1035/13 1037/15 1038/16
f 1039/13 1040/14 1041/15
f 1039/13 1041/15 1042/16
f 1040/13 1035/14 1038/15
f 1040/13 1038/15 1041/16
f 1036/13 1039/14 1042/15
f 1036/13 1042/15 1037/16
f 1041/29 1038/30 1037/31
f 1041/29 1037/31 1042/32
f 1039/21 1036/22 1035/23
f 1039/21 1035/23 1040/24
f 1043/13 1044/14 1045/15
f 1043/13 1045/15 1046/16
f 1047/13 1048/14 1049/15
f 1047/13 1049/15 1050/16
f 1048/13 1043/14 1046/15
f 1048/13 1046/15 1049/16
f 1044/13 1047/14 1050/15
f 1044/13 1050/15 1045/16
f 1049/29 1046/30 1045/31
f 1049/29 1045/31 1050/32
f 1047/21 1044/22 1043/23
f 1047/21 1043/23 1048/24
f 1051/13 1052/14 1053/15
f 1051/13 1053/15 1054/16
f 1055/13 1056/14 1057/15
f 1055/13 1057/15 1058/16
f 1056/13 1051/14 1054/15
f 1056/13 1054/15 1057/16
f 1052/13 1055/14 1058/15
f 1052/13 1058/15 1053/16
f 1057/29 1054/30 1053/31
f 1057/29 1053/31 1058/32
f 1055/21 1052/22 1051/23
f 1055/21 1051/23 1056/24
f 1059/13 1060/14 1061/15
f 1059/13 1061/15 1062/16
f 1063/13 1064/14 1065/15
f 1063/13 1065/15 1066/16
f 1064/13 1059/14 1062/15
f 1064/13 1062/15 1065/16
f 1060/13 1063/14 1066/15
f 1060/13 1066/15 1061/16
f 1065/29 1062/30 1061/31
f 1065/29 1061/31 1066/32
f 1063/21 1060/22 1059/23
f 1063/21 1059/23 1064/24
f 1067/13 1068/14 1069/15
f 1067/13 1069/15 1070/16
f 1071/13 1072/14 1073/15
f 1071/13 1073/15 1074/16
f 1072/13 1067/14 1070/15
f 1072/13 1070/15 1073/16
f 1068/13 1071/14 1074/15
f 1068/13 1074/15 1069/16
f 1073/29 1070/30 1069/31
f 1073/29 1069/31 1074/32
f 1071/21 1068/22 1067/23
f 1071/21 1067/23 1072/24
f 1075/13 1076/14 1077/15
f 1075/13 1077/15 1078/16
f 1079/13 1080/14 1081/15
f 1079/13 1081/15 1082/16
f 1080/13 1075/14 1078/15
f 1080/13 1078/15 1081/16
f 1076/13 1079/14 1082/15
f 1076/13 1082/15 1077/16
f 1081/29 1078/30 1077/31
f 1081/29 1077/31 1082/32
f 1079/21 1076/22 1075/23
f 1079/21 1075/23 1080/24
f 1083/13 1084/14 1085/15
f 1083/13 1085/15 1086/16
f 1087/13 1088/14 1089/15
f 1087/13 1089/15 1090/16
f 1088/13 1083/14 1086/15
f 1088/13 1086/15 1089/16
f 1084/13 1087/14 1090/15
f 1084/13 1090/15 1085/16
f 1089/29 1086/30 1085/31
f 1089/29 1085/31 1090/32
f 1087/21 1084/22 1083/23
f 1087/21 1083/23 1088/24
f 1091/35 1092/36 1093/37
f 1091/35 1093/37 1094/40
f 1095/35 1096/36 1097/37
f 1095/35 1097/37 1098/40
f 1096/35 1091/36 1094/37
f 1096/35 1094/37 1097/40
f 1092/35 1095/36 1098/37
f 1092/35 1098/37 1093/40
f 1097/47 1094/48 1093/45
f 1097/47 1093/45 1098/46
f 1095/41 1092/42 1091/43
f 1095/41 1091/43 1096/44
f 1099/35 1100/36 1101/37
f 1099/35 1101/37 1102/40
f 1103/35 1104/36 1105/37
f 1103/35 1105/37 1106/40
f 1104/35 1099/36 1102/37
f 1104/35 1102/37 1105/40
f 1100/35 1103/36 1106/37
f 1100/35 1106/37 1101/40
f 1105/47 1102/48 1101/45
f 1105/47 1101/45 1106/46
f 1103/41 1100/42 1099/43
f 1103/41 1099/43 1104/44
